SplineFontDB: 3.2
FontName: BertiogaSans-Bold
FullName: Bertioga Sans Bold
FamilyName: Bertioga Sans
Weight: Bold
Copyright: Copyright 2020 The Arimo Project Authors (https://github.com/googlefonts/arimo)\nCopyright 2020 The Libra Sans Project Authors (https://github.com/stefanpeev/libra-sans)\nCopyright 2024 The Bertioga Sans Project Authors (https://github.com/cssobral2013/bertioga-sans)
Version: 3.004
ItalicAngle: 0
UnderlinePosition: -292
UnderlineWidth: 150
Ascent: 1638
Descent: 410
InvalidEm: 0
sfntRevision: 0x000300c4
LayerCount: 2
Layer: 0 1 "Back" 1
Layer: 1 1 "Fore" 0
XUID: [1021 531 -1996577725 9026309]
StyleMap: 0x0040
FSType: 0
OS2Version: 4
OS2_WeightWidthSlopeOnly: 0
OS2_UseTypoMetrics: 1
CreationTime: 1574117785
ModificationTime: 1708633327
PfmFamily: 17
TTFWeight: 700
TTFWidth: 5
LineGap: 67
VLineGap: 0
Panose: 2 11 6 4 2 2 2 2 2 4
OS2TypoAscent: 1854
OS2TypoAOffset: 0
OS2TypoDescent: -434
OS2TypoDOffset: 0
OS2TypoLinegap: 67
OS2WinAscent: 2136
OS2WinAOffset: 0
OS2WinDescent: 797
OS2WinDOffset: 0
HheadAscent: 1854
HheadAOffset: 0
HheadDescent: -434
HheadDOffset: 0
OS2SubXSize: 1331
OS2SubYSize: 1229
OS2SubXOff: 0
OS2SubYOff: 154
OS2SupXSize: 1331
OS2SupYSize: 1229
OS2SupXOff: 0
OS2SupYOff: 717
OS2StrikeYSize: 102
OS2StrikeYPos: 530
OS2CapHeight: 1409
OS2XHeight: 1082
OS2Vendor: 'GOOG'
OS2CodePages: 600001bf.dff70000
OS2UnicodeRanges: e0000aff.500078ff.00000021.00000000
Lookup: 4 1 0 "Ligature Substitution lookup 0" { "Ligature Substitution lookup 0 subtable"  } []
Lookup: 4 1 0 "'dlig' Discretionary Ligatures in Hebrew lookup 1" { "'dlig' Discretionary Ligatures in Hebrew lookup 1 subtable"  } ['dlig' ('hebr' <'dflt' > ) ]
Lookup: 4 0 0 "'ccmp' Glyph Composition/Decomposition lookup 2" { "'ccmp' Glyph Composition/Decomposition lookup 2 subtable"  } ['ccmp' ('cyrl' <'dflt' > 'grek' <'dflt' > 'latn' <'MAH ' 'dflt' > ) ]

StartChar: .notdef
Encoding: 65536 -1 0
Width: 1536
GlyphClass: 2
Flags: W
LayerCount: 2
Fore
SplineSet
1330 1409 m 1,0,-1
 1330 0 l 1,1,-1
 205 0 l 1,2,-1
 205 1409 l 1,3,-1
 1330 1409 l 1,0,-1
281 76 m 1,4,-1
 1254 76 l 1,5,-1
 1254 1333 l 1,6,-1
 281 1333 l 1,7,-1
 281 76 l 1,4,-1
EndSplineSet
EndChar

StartChar: exclam
Encoding: 33 33 4
Width: 682
GlyphClass: 2
Flags: W
LayerCount: 2
Fore
SplineSet
487 1409 m 1,0,-1
 455 426 l 1,1,-1
 225 426 l 1,2,-1
 193 1409 l 1,3,-1
 487 1409 l 1,0,-1
481 270 m 1,4,-1
 481 0 l 1,5,-1
 193 0 l 1,6,-1
 193 270 l 1,7,-1
 481 270 l 1,4,-1
EndSplineSet
EndChar

StartChar: quotedbl
Encoding: 34 34 5
Width: 971
GlyphClass: 2
Flags: W
LayerCount: 2
Fore
SplineSet
836 1409 m 1,0,-1
 807 898 l 1,1,-1
 588 898 l 1,2,-1
 561 1409 l 1,3,-1
 836 1409 l 1,0,-1
408 1409 m 1,4,-1
 381 898 l 1,5,-1
 162 898 l 1,6,-1
 135 1409 l 1,7,-1
 408 1409 l 1,4,-1
EndSplineSet
EndChar

StartChar: numbersign
Encoding: 35 35 6
Width: 1139
GlyphClass: 2
Flags: W
LayerCount: 2
Fore
SplineSet
344 381 m 1,0,-1
 264 0 l 1,1,-1
 111 0 l 1,2,-1
 190 381 l 1,3,-1
 35 381 l 1,4,-1
 35 530 l 1,5,-1
 223 530 l 1,6,-1
 293 862 l 1,7,-1
 86 862 l 1,8,-1
 86 1010 l 1,9,-1
 324 1010 l 1,10,-1
 408 1395 l 1,11,-1
 561 1395 l 1,12,-1
 479 1010 l 1,13,-1
 786 1010 l 1,14,-1
 870 1395 l 1,15,-1
 1026 1395 l 1,16,-1
 942 1010 l 1,17,-1
 1106 1010 l 1,18,-1
 1106 862 l 1,19,-1
 909 862 l 1,20,-1
 840 530 l 1,21,-1
 1055 530 l 1,22,-1
 1055 381 l 1,23,-1
 809 381 l 1,24,-1
 727 0 l 1,25,-1
 571 0 l 1,26,-1
 651 381 l 1,27,-1
 344 381 l 1,0,-1
377 530 m 1,28,-1
 686 530 l 1,29,-1
 756 862 l 1,30,-1
 449 862 l 1,31,-1
 377 530 l 1,28,-1
EndSplineSet
EndChar

StartChar: dollar
Encoding: 36 36 7
Width: 1139
GlyphClass: 2
Flags: W
LayerCount: 2
Fore
SplineSet
520 20 m 1,0,1
 305 28 305 28 185 121.5 c 128,-1,2
 65 215 65 215 27 408 c 1,3,-1
 283 455 l 1,4,5
 302 342 302 342 358.5 289.5 c 128,-1,6
 415 237 415 237 520 227 c 1,7,-1
 520 618 l 1,8,9
 482 627 482 627 430 641.5 c 128,-1,10
 378 656 378 656 328 674.5 c 128,-1,11
 278 693 278 693 245 713 c 0,12,13
 163 763 163 763 117.5 840.5 c 128,-1,14
 72 918 72 918 72 1030 c 0,15,16
 72 1196 72 1196 186.5 1287 c 128,-1,17
 301 1378 301 1378 520 1386 c 1,18,-1
 520 1520 l 1,19,-1
 629 1520 l 1,20,-1
 629 1386 l 1,21,22
 752 1380 752 1380 839.5 1348 c 128,-1,23
 927 1316 927 1316 984.5 1242 c 128,-1,24
 1042 1168 1042 1168 1075 1036 c 1,25,-1
 811 997 l 1,26,27
 796 1084 796 1084 752.5 1131.5 c 128,-1,28
 709 1179 709 1179 629 1190 c 1,29,-1
 629 838 l 1,30,31
 652 834 652 834 697.5 823 c 128,-1,32
 743 812 743 812 817 788 c 0,33,34
 964 740 964 740 1037 646.5 c 128,-1,35
 1110 553 1110 553 1110 412 c 0,36,37
 1110 231 1110 231 988.5 131.5 c 128,-1,38
 867 32 867 32 629 23 c 1,39,-1
 629 -152 l 1,40,-1
 520 -152 l 1,41,-1
 520 20 l 1,0,1
334 1034 m 0,42,43
 334 989 334 989 350 961 c 0,44,45
 369 925 369 925 408 906 c 128,-1,46
 447 887 447 887 520 862 c 1,47,-1
 520 1194 l 1,48,49
 334 1181 334 1181 334 1034 c 0,42,43
850 408 m 0,50,51
 850 458 850 458 832.5 489.5 c 128,-1,52
 815 521 815 521 780 541 c 256,53,54
 745 561 745 561 629 594 c 1,55,-1
 629 227 l 1,56,57
 739 235 739 235 794.5 280 c 128,-1,58
 850 325 850 325 850 408 c 0,50,51
EndSplineSet
EndChar

StartChar: percent
Encoding: 37 37 8
Width: 1821
GlyphClass: 2
Flags: W
LayerCount: 2
Fore
SplineSet
408 1425 m 0,0,1
 760 1425 760 1425 760 977 c 0,2,3
 760 759 760 759 669.5 643.5 c 128,-1,4
 579 528 579 528 403 528 c 0,5,6
 229 528 229 528 140 642.5 c 128,-1,7
 51 757 51 757 51 977 c 0,8,9
 51 1204 51 1204 137 1314.5 c 128,-1,10
 223 1425 223 1425 408 1425 c 0,0,1
1475 1409 m 1,11,-1
 552 0 l 1,12,-1
 346 0 l 1,13,-1
 1266 1409 l 1,14,-1
 1475 1409 l 1,11,-1
543 977 m 0,15,16
 543 1135 543 1135 512.5 1202.5 c 128,-1,17
 482 1270 482 1270 408 1270 c 0,18,19
 328 1270 328 1270 297 1202.5 c 128,-1,20
 266 1135 266 1135 266 977 c 0,21,22
 266 820 266 820 298.5 752 c 128,-1,23
 331 684 331 684 406 684 c 0,24,25
 480 684 480 684 511.5 752 c 128,-1,26
 543 820 543 820 543 977 c 0,15,16
1767 432 m 0,27,28
 1767 214 1767 214 1677 99 c 128,-1,29
 1587 -16 1587 -16 1413 -16 c 0,30,31
 1237 -16 1237 -16 1148 98 c 128,-1,32
 1059 212 1059 212 1059 432 c 0,33,34
 1059 656 1059 656 1145 768.5 c 128,-1,35
 1231 881 1231 881 1417 881 c 0,36,37
 1597 881 1597 881 1682 767.5 c 128,-1,38
 1767 654 1767 654 1767 432 c 0,27,28
1552 432 m 0,39,40
 1552 592 1552 592 1521.5 659.5 c 128,-1,41
 1491 727 1491 727 1417 727 c 0,42,43
 1337 727 1337 727 1306.5 657.5 c 128,-1,44
 1276 588 1276 588 1276 432 c 0,45,46
 1276 271 1276 271 1308.5 206 c 128,-1,47
 1341 141 1341 141 1415 141 c 0,48,49
 1488 141 1488 141 1520 209 c 128,-1,50
 1552 277 1552 277 1552 432 c 0,39,40
EndSplineSet
EndChar

StartChar: ampersand
Encoding: 38 38 9
Width: 1479
GlyphClass: 2
Flags: W
LayerCount: 2
Fore
SplineSet
90 385 m 0,0,1
 90 520 90 520 171 625.5 c 128,-1,2
 252 731 252 731 428 813 c 1,3,4
 391 888 391 888 372.5 958 c 128,-1,5
 354 1028 354 1028 354 1092 c 0,6,7
 354 1248 354 1248 452 1332.5 c 128,-1,8
 550 1417 550 1417 731 1417 c 0,9,10
 899 1417 899 1417 996.5 1337 c 128,-1,11
 1094 1257 1094 1257 1094 1120 c 0,12,13
 1094 1043 1094 1043 1055 981 c 128,-1,14
 1016 919 1016 919 945 866 c 0,15,16
 909 840 909 840 848.5 806.5 c 128,-1,17
 788 773 788 773 702 733 c 1,18,19
 802 556 802 556 946 397 c 1,20,21
 1050 556 1050 556 1104 760 c 1,22,-1
 1313 690 l 1,23,24
 1246 460 1246 460 1120 270 c 1,25,26
 1205 197 1205 197 1298 197 c 0,27,28
 1364 197 1364 197 1415 213 c 1,29,-1
 1415 10 l 1,30,31
 1361 -12 1361 -12 1284 -12 c 0,32,33
 1198 -12 1198 -12 1111.5 19 c 128,-1,34
 1025 50 1025 50 954 109 c 1,35,36
 785 -20 785 -20 575 -20 c 0,37,38
 344 -20 344 -20 217 86.5 c 128,-1,39
 90 193 90 193 90 385 c 0,0,1
870 1118 m 0,40,41
 870 1175 870 1175 832 1211 c 128,-1,42
 794 1247 794 1247 729 1247 c 0,43,44
 652 1247 652 1247 611.5 1204 c 128,-1,45
 571 1161 571 1161 571 1090 c 0,46,47
 571 1004 571 1004 625 897 c 1,48,49
 731 942 731 942 776 973 c 256,50,51
 821 1004 821 1004 845.5 1039 c 128,-1,52
 870 1074 870 1074 870 1118 c 0,40,41
788 246 m 1,53,54
 705 338 705 338 637 432.5 c 128,-1,55
 569 527 569 527 516 623 c 1,56,57
 344 542 344 542 344 389 c 0,58,59
 344 290 344 290 409 230 c 128,-1,60
 474 170 474 170 586 170 c 0,61,62
 651 170 651 170 703.5 194 c 128,-1,63
 756 218 756 218 788 246 c 1,53,54
EndSplineSet
EndChar

StartChar: quotesingle
Encoding: 39 39 10
Width: 487
GlyphClass: 2
Flags: W
LayerCount: 2
Fore
SplineSet
381 1409 m 1,0,-1
 354 898 l 1,1,-1
 135 898 l 1,2,-1
 109 1409 l 1,3,-1
 381 1409 l 1,0,-1
EndSplineSet
EndChar

StartChar: parenleft
Encoding: 40 40 11
Width: 682
GlyphClass: 2
Flags: W
LayerCount: 2
Fore
SplineSet
399 -425 m 1,0,1
 295 -274 295 -274 229 -125.5 c 128,-1,2
 163 23 163 23 132.5 184 c 128,-1,3
 102 345 102 345 102 531 c 256,4,5
 102 717 102 717 132.5 877.5 c 128,-1,6
 163 1038 163 1038 229 1186 c 128,-1,7
 295 1334 295 1334 399 1484 c 1,8,-1
 680 1484 l 1,9,10
 522 1256 522 1256 450.5 1030 c 128,-1,11
 379 804 379 804 379 530 c 0,12,13
 379 348 379 348 410 189 c 128,-1,14
 441 30 441 30 507.5 -119.5 c 128,-1,15
 574 -269 574 -269 680 -425 c 1,16,-1
 399 -425 l 1,0,1
EndSplineSet
EndChar

StartChar: parenright
Encoding: 41 41 12
Width: 682
GlyphClass: 2
Flags: W
LayerCount: 2
Fore
SplineSet
2 -425 m 1,0,1
 109 -269 109 -269 175 -119.5 c 128,-1,2
 241 30 241 30 272 189 c 128,-1,3
 303 348 303 348 303 530 c 0,4,5
 303 805 303 805 231 1031.5 c 128,-1,6
 159 1258 159 1258 2 1484 c 1,7,-1
 283 1484 l 1,8,9
 389 1333 389 1333 454 1184 c 128,-1,10
 519 1035 519 1035 549.5 875 c 128,-1,11
 580 715 580 715 580 531 c 0,12,13
 580 346 580 346 549.5 185.5 c 128,-1,14
 519 25 519 25 454 -124 c 128,-1,15
 389 -273 389 -273 283 -425 c 1,16,-1
 2 -425 l 1,0,1
EndSplineSet
EndChar

StartChar: asterisk
Encoding: 42 42 13
Width: 797
GlyphClass: 2
Flags: W
LayerCount: 2
Fore
SplineSet
731 768 m 1,0,-1
 547 647 l 1,1,-1
 401 899 l 1,2,-1
 252 647 l 1,3,-1
 66 770 l 1,4,-1
 256 981 l 1,5,-1
 6 1042 l 1,6,-1
 74 1239 l 1,7,-1
 313 1135 l 1,8,-1
 295 1409 l 1,9,-1
 510 1409 l 1,10,-1
 492 1135 l 1,11,-1
 727 1239 l 1,12,-1
 795 1042 l 1,13,-1
 545 981 l 1,14,-1
 731 768 l 1,0,-1
EndSplineSet
EndChar

StartChar: plus
Encoding: 43 43 14
Width: 1196
GlyphClass: 2
Flags: W
LayerCount: 2
Fore
SplineSet
711 569 m 1,0,-1
 711 161 l 1,1,-1
 485 161 l 1,2,-1
 485 569 l 1,3,-1
 86 569 l 1,4,-1
 86 793 l 1,5,-1
 485 793 l 1,6,-1
 485 1201 l 1,7,-1
 711 1201 l 1,8,-1
 711 793 l 1,9,-1
 1113 793 l 1,10,-1
 1113 569 l 1,11,-1
 711 569 l 1,0,-1
EndSplineSet
EndChar

StartChar: comma
Encoding: 44 44 15
Width: 569
GlyphClass: 2
Flags: W
LayerCount: 2
Fore
SplineSet
432 66 m 2,0,1
 432 -54 432 -54 406.5 -146 c 128,-1,2
 381 -238 381 -238 324 -317 c 1,3,-1
 139 -317 l 1,4,5
 198 -246 198 -246 235 -161 c 128,-1,6
 272 -76 272 -76 272 0 c 1,7,-1
 143 0 l 1,8,-1
 143 305 l 1,9,-1
 432 305 l 1,10,-1
 432 66 l 2,0,1
EndSplineSet
EndChar

StartChar: hyphen
Encoding: 45 45 16
AltUni2: 0000ad.ffffffff.0
Width: 682
GlyphClass: 2
Flags: W
LayerCount: 2
Fore
SplineSet
600 653 m 1,0,-1
 600 409 l 1,1,-1
 80 409 l 1,2,-1
 80 653 l 1,3,-1
 600 653 l 1,0,-1
EndSplineSet
EndChar

StartChar: period
Encoding: 46 46 17
Width: 569
GlyphClass: 2
Flags: W
LayerCount: 2
Fore
SplineSet
428 305 m 1,0,-1
 428 0 l 1,1,-1
 139 0 l 1,2,-1
 139 305 l 1,3,-1
 428 305 l 1,0,-1
EndSplineSet
EndChar

StartChar: slash
Encoding: 47 47 18
Width: 569
GlyphClass: 2
Flags: W
LayerCount: 2
Fore
SplineSet
549 1484 m 1,0,-1
 263 -41 l 1,1,-1
 20 -41 l 1,2,-1
 311 1484 l 1,3,-1
 549 1484 l 1,0,-1
EndSplineSet
EndChar

StartChar: zero
Encoding: 48 48 19
Width: 1139
GlyphClass: 2
Flags: W
LayerCount: 2
Fore
SplineSet
1055 705 m 0,0,1
 1055 348 1055 348 932.5 164 c 128,-1,2
 810 -20 810 -20 565 -20 c 0,3,4
 323 -20 323 -20 202 161.5 c 128,-1,5
 81 343 81 343 81 705 c 0,6,7
 81 1076 81 1076 196.5 1253 c 128,-1,8
 312 1430 312 1430 573 1430 c 0,9,10
 823 1430 823 1430 939 1249 c 128,-1,11
 1055 1068 1055 1068 1055 705 c 0,0,1
773 705 m 0,12,13
 773 895 773 895 756 1005.5 c 128,-1,14
 739 1116 739 1116 695 1163 c 128,-1,15
 651 1210 651 1210 571 1210 c 0,16,17
 486 1210 486 1210 440.5 1162.5 c 128,-1,18
 395 1115 395 1115 378.5 1004.5 c 128,-1,19
 362 894 362 894 362 705 c 256,20,21
 362 516 362 516 379.5 405.5 c 128,-1,22
 397 295 397 295 441.5 248 c 128,-1,23
 486 201 486 201 567 201 c 0,24,25
 687 201 687 201 730 317 c 128,-1,26
 773 433 773 433 773 705 c 0,12,13
EndSplineSet
EndChar

StartChar: one
Encoding: 49 49 20
Width: 1139
GlyphClass: 2
Flags: W
LayerCount: 2
Fore
SplineSet
1082 209 m 1,0,-1
 1082 0 l 1,1,-1
 129 0 l 1,2,-1
 129 209 l 1,3,-1
 478 209 l 1,4,-1
 478 1170 l 1,5,-1
 140 959 l 1,6,-1
 140 1180 l 1,7,-1
 493 1409 l 1,8,-1
 759 1409 l 1,9,-1
 759 209 l 1,10,-1
 1082 209 l 1,0,-1
EndSplineSet
EndChar

StartChar: two
Encoding: 50 50 21
Width: 1139
GlyphClass: 2
Flags: W
LayerCount: 2
Fore
SplineSet
1057 231 m 1,0,-1
 1057 0 l 1,1,-1
 71 0 l 1,2,-1
 71 195 l 1,3,4
 108 276 108 276 165 353.5 c 128,-1,5
 222 431 222 431 301.5 509.5 c 128,-1,6
 381 588 381 588 469 659.5 c 128,-1,7
 557 731 557 731 609 780.5 c 128,-1,8
 661 830 661 830 690.5 869 c 128,-1,9
 720 908 720 908 735 946.5 c 128,-1,10
 750 985 750 985 750 1022 c 0,11,12
 750 1114 750 1114 703.5 1160 c 128,-1,13
 657 1206 657 1206 565 1206 c 0,14,15
 475 1206 475 1206 427.5 1157.5 c 128,-1,16
 380 1109 380 1109 366 1012 c 1,17,-1
 83 1028 l 1,18,19
 107 1224 107 1224 229.5 1327 c 128,-1,20
 352 1430 352 1430 563 1430 c 0,21,22
 791 1430 791 1430 913 1326 c 128,-1,23
 1035 1222 1035 1222 1035 1034 c 0,24,25
 1035 928 1035 928 991 844 c 128,-1,26
 947 760 947 760 885 694 c 128,-1,27
 823 628 823 628 752.5 573 c 128,-1,28
 682 518 682 518 614 464 c 128,-1,29
 546 410 546 410 488.5 353 c 128,-1,30
 431 296 431 296 403 231 c 1,31,-1
 1057 231 l 1,0,-1
EndSplineSet
EndChar

StartChar: three
Encoding: 51 51 22
Width: 1139
GlyphClass: 2
Flags: W
LayerCount: 2
Fore
SplineSet
1065 391 m 0,0,1
 1065 193 1065 193 935 85 c 128,-1,2
 805 -23 805 -23 565 -23 c 0,3,4
 338 -23 338 -23 204 81.5 c 128,-1,5
 70 186 70 186 47 383 c 1,6,-1
 333 408 l 1,7,8
 360 205 360 205 564 205 c 0,9,10
 665 205 665 205 721 255 c 128,-1,11
 777 305 777 305 777 408 c 0,12,13
 777 502 777 502 709 552 c 128,-1,14
 641 602 641 602 507 602 c 2,15,-1
 409 602 l 1,16,-1
 409 829 l 1,17,-1
 501 829 l 2,18,19
 622 829 622 829 683 878.5 c 128,-1,20
 744 928 744 928 744 1020 c 0,21,22
 744 1107 744 1107 695.5 1156.5 c 128,-1,23
 647 1206 647 1206 554 1206 c 0,24,25
 467 1206 467 1206 413.5 1158 c 128,-1,26
 360 1110 360 1110 352 1022 c 1,27,-1
 71 1042 l 1,28,29
 93 1224 93 1224 222 1327 c 128,-1,30
 351 1430 351 1430 559 1430 c 0,31,32
 780 1430 780 1430 904.5 1330.5 c 128,-1,33
 1029 1231 1029 1231 1029 1055 c 0,34,35
 1029 923 1029 923 951.5 838 c 128,-1,36
 874 753 874 753 728 725 c 1,37,-1
 728 721 l 1,38,39
 890 702 890 702 977.5 614.5 c 128,-1,40
 1065 527 1065 527 1065 391 c 0,0,1
EndSplineSet
EndChar

StartChar: four
Encoding: 52 52 23
Width: 1139
GlyphClass: 2
Flags: W
LayerCount: 2
Fore
SplineSet
940 287 m 1,0,-1
 940 0 l 1,1,-1
 672 0 l 1,2,-1
 672 287 l 1,3,-1
 31 287 l 1,4,-1
 31 498 l 1,5,-1
 626 1409 l 1,6,-1
 940 1409 l 1,7,-1
 940 496 l 1,8,-1
 1128 496 l 1,9,-1
 1128 287 l 1,10,-1
 940 287 l 1,0,-1
260 496 m 1,11,-1
 672 496 l 1,12,-1
 672 957 l 2,13,14
 672 1011 672 1011 675.5 1074 c 128,-1,15
 679 1137 679 1137 681 1155 c 1,16,17
 668 1127 668 1127 644.5 1086.5 c 128,-1,18
 621 1046 621 1046 587 993 c 2,19,-1
 260 496 l 1,11,-1
EndSplineSet
EndChar

StartChar: five
Encoding: 53 53 24
Width: 1139
GlyphClass: 2
Flags: W
LayerCount: 2
Fore
SplineSet
1082 469 m 0,0,1
 1082 245 1082 245 942.5 112.5 c 128,-1,2
 803 -20 803 -20 560 -20 c 0,3,4
 348 -20 348 -20 220.5 75.5 c 128,-1,5
 93 171 93 171 63 352 c 1,6,-1
 344 375 l 1,7,8
 366 285 366 285 422 244 c 128,-1,9
 478 203 478 203 563 203 c 0,10,11
 668 203 668 203 730.5 270 c 128,-1,12
 793 337 793 337 793 463 c 0,13,14
 793 574 793 574 734 640.5 c 128,-1,15
 675 707 675 707 569 707 c 0,16,17
 511 707 511 707 463 684.5 c 128,-1,18
 415 662 415 662 378 616 c 1,19,-1
 104 616 l 1,20,-1
 153 1409 l 1,21,-1
 1000 1409 l 1,22,-1
 1000 1200 l 1,23,-1
 408 1200 l 1,24,-1
 385 844 l 1,25,26
 487 934 487 934 640 934 c 0,27,28
 774 934 774 934 873.5 877.5 c 128,-1,29
 973 821 973 821 1027.5 717 c 128,-1,30
 1082 613 1082 613 1082 469 c 0,0,1
EndSplineSet
EndChar

StartChar: six
Encoding: 54 54 25
Width: 1139
GlyphClass: 2
Flags: W
LayerCount: 2
Fore
SplineSet
1065 461 m 0,0,1
 1065 236 1065 236 939 108 c 128,-1,2
 813 -20 813 -20 591 -20 c 0,3,4
 342 -20 342 -20 208.5 154.5 c 128,-1,5
 75 329 75 329 75 672 c 0,6,7
 75 1049 75 1049 210.5 1239.5 c 128,-1,8
 346 1430 346 1430 598 1430 c 0,9,10
 777 1430 777 1430 880.5 1351 c 128,-1,11
 984 1272 984 1272 1027 1106 c 1,12,-1
 762 1069 l 1,13,14
 725 1208 725 1208 592 1208 c 0,15,16
 479 1208 479 1208 414.5 1095 c 128,-1,17
 350 982 350 982 350 752 c 1,18,19
 395 827 395 827 475 867 c 128,-1,20
 555 907 555 907 656 907 c 0,21,22
 845 907 845 907 955 787 c 128,-1,23
 1065 667 1065 667 1065 461 c 0,0,1
783 453 m 0,24,25
 783 573 783 573 727.5 636.5 c 128,-1,26
 672 700 672 700 575 700 c 0,27,28
 482 700 482 700 426 640.5 c 128,-1,29
 370 581 370 581 370 483 c 0,30,31
 370 401 370 401 396.5 337 c 128,-1,32
 423 273 423 273 471 236 c 128,-1,33
 519 199 519 199 582 199 c 0,34,35
 677 199 677 199 730 266.5 c 128,-1,36
 783 334 783 334 783 453 c 0,24,25
EndSplineSet
EndChar

StartChar: seven
Encoding: 55 55 26
Width: 1139
GlyphClass: 2
Flags: W
LayerCount: 2
Fore
SplineSet
1049 1186 m 1,0,1
 954 1036 954 1036 869.5 895.5 c 128,-1,2
 785 755 785 755 722 612 c 0,3,4
 659 470 659 470 622.5 319 c 128,-1,5
 586 168 586 168 586 0 c 1,6,-1
 293 0 l 1,7,8
 293 161 293 161 328 305.5 c 128,-1,9
 363 450 363 450 439 610 c 0,10,11
 489 714 489 714 571 848 c 128,-1,12
 653 982 653 982 788 1178 c 1,13,-1
 88 1178 l 1,14,-1
 88 1409 l 1,15,-1
 1049 1409 l 1,16,-1
 1049 1186 l 1,0,1
EndSplineSet
EndChar

StartChar: eight
Encoding: 56 56 27
Width: 1139
GlyphClass: 2
Flags: W
LayerCount: 2
Fore
SplineSet
1076 397 m 0,0,1
 1076 199 1076 199 945 89.5 c 128,-1,2
 814 -20 814 -20 571 -20 c 0,3,4
 330 -20 330 -20 197.5 89 c 128,-1,5
 65 198 65 198 65 395 c 0,6,7
 65 530 65 530 143 622.5 c 128,-1,8
 221 715 221 715 352 737 c 1,9,-1
 352 741 l 1,10,11
 238 766 238 766 168 854 c 128,-1,12
 98 942 98 942 98 1057 c 0,13,14
 98 1230 98 1230 220.5 1330 c 128,-1,15
 343 1430 343 1430 567 1430 c 0,16,17
 796 1430 796 1430 918.5 1332.5 c 128,-1,18
 1041 1235 1041 1235 1041 1055 c 0,19,20
 1041 940 1041 940 971.5 853 c 128,-1,21
 902 766 902 766 785 743 c 1,22,-1
 785 739 l 1,23,24
 921 717 921 717 998.5 627.5 c 128,-1,25
 1076 538 1076 538 1076 397 c 0,0,1
752 1040 m 0,26,27
 752 1233 752 1233 567 1233 c 0,28,29
 385 1233 385 1233 385 1040 c 0,30,31
 385 939 385 939 431 888.5 c 128,-1,32
 477 838 477 838 569 838 c 256,33,34
 661 838 661 838 706.5 885 c 128,-1,35
 752 932 752 932 752 1040 c 0,26,27
785 420 m 0,36,37
 785 530 785 530 730 585.5 c 128,-1,38
 675 641 675 641 565 641 c 0,39,40
 463 641 463 641 408.5 583 c 128,-1,41
 354 525 354 525 354 416 c 0,42,43
 354 292 354 292 408 235 c 128,-1,44
 462 178 462 178 573 178 c 0,45,46
 682 178 682 178 733.5 235 c 128,-1,47
 785 292 785 292 785 420 c 0,36,37
EndSplineSet
EndChar

StartChar: nine
Encoding: 57 57 28
Width: 1139
GlyphClass: 2
Flags: W
LayerCount: 2
Fore
SplineSet
1063 727 m 0,0,1
 1063 352 1063 352 926 166 c 128,-1,2
 789 -20 789 -20 537 -20 c 0,3,4
 351 -20 351 -20 245.5 59.5 c 128,-1,5
 140 139 140 139 96 311 c 1,6,-1
 360 348 l 1,7,8
 399 201 399 201 540 201 c 0,9,10
 658 201 658 201 721.5 314 c 128,-1,11
 785 427 785 427 787 649 c 1,12,13
 749 574 749 574 662.5 531.5 c 128,-1,14
 576 489 576 489 476 489 c 0,15,16
 352 489 352 489 261 546.5 c 128,-1,17
 170 604 170 604 120.5 709 c 128,-1,18
 71 814 71 814 71 958 c 0,19,20
 71 1180 71 1180 199.5 1305 c 128,-1,21
 328 1430 328 1430 563 1430 c 0,22,23
 816 1430 816 1430 939.5 1254.5 c 128,-1,24
 1063 1079 1063 1079 1063 727 c 0,0,1
766 924 m 0,25,26
 766 1055 766 1055 708.5 1132.5 c 128,-1,27
 651 1210 651 1210 556 1210 c 0,28,29
 463 1210 463 1210 409.5 1142.5 c 128,-1,30
 356 1075 356 1075 356 956 c 0,31,32
 356 839 356 839 409 768.5 c 128,-1,33
 462 698 462 698 557 698 c 0,34,35
 617 698 617 698 664 726 c 128,-1,36
 711 754 711 754 738.5 805 c 128,-1,37
 766 856 766 856 766 924 c 0,25,26
EndSplineSet
EndChar

StartChar: colon
Encoding: 58 58 29
Width: 682
GlyphClass: 2
Flags: W
LayerCount: 2
Fore
SplineSet
485 1034 m 1,0,-1
 485 752 l 1,1,-1
 197 752 l 1,2,-1
 197 1034 l 1,3,-1
 485 1034 l 1,0,-1
485 281 m 1,4,-1
 485 0 l 1,5,-1
 197 0 l 1,6,-1
 197 281 l 1,7,-1
 485 281 l 1,4,-1
EndSplineSet
EndChar

StartChar: semicolon
Encoding: 59 59 30
AltUni2: 00037e.ffffffff.0
Width: 682
GlyphClass: 2
Flags: W
LayerCount: 2
Fore
SplineSet
487 1034 m 1,0,-1
 487 752 l 1,1,-1
 199 752 l 1,2,-1
 199 1034 l 1,3,-1
 487 1034 l 1,0,-1
487 66 m 2,4,5
 487 -54 487 -54 461.5 -146 c 128,-1,6
 436 -238 436 -238 379 -317 c 1,7,-1
 195 -317 l 1,8,9
 259 -236 259 -236 293.5 -153.5 c 128,-1,10
 328 -71 328 -71 328 0 c 1,11,-1
 199 0 l 1,12,-1
 199 281 l 1,13,-1
 487 281 l 1,14,-1
 487 66 l 2,4,5
EndSplineSet
EndChar

StartChar: less
Encoding: 60 60 31
Width: 1196
GlyphClass: 2
Flags: W
LayerCount: 2
Fore
SplineSet
1113 352 m 1,0,-1
 1113 125 l 1,1,-1
 86 516 l 1,2,-1
 86 838 l 1,3,-1
 1113 1229 l 1,4,-1
 1113 1001 l 1,5,-1
 280 676 l 1,6,-1
 1113 352 l 1,0,-1
EndSplineSet
EndChar

StartChar: equal
Encoding: 61 61 32
Width: 1196
GlyphClass: 2
Flags: W
LayerCount: 2
Fore
SplineSet
1112 1065 m 1,0,-1
 1112 842 l 1,1,-1
 85 842 l 1,2,-1
 85 1065 l 1,3,-1
 1112 1065 l 1,0,-1
1112 512 m 1,4,-1
 1112 291 l 1,5,-1
 85 291 l 1,6,-1
 85 512 l 1,7,-1
 1112 512 l 1,4,-1
EndSplineSet
EndChar

StartChar: greater
Encoding: 62 62 33
Width: 1196
GlyphClass: 2
Flags: W
LayerCount: 2
Fore
SplineSet
1113 516 m 1,0,-1
 86 125 l 1,1,-1
 86 352 l 1,2,-1
 918 676 l 1,3,-1
 86 1001 l 1,4,-1
 86 1229 l 1,5,-1
 1113 838 l 1,6,-1
 1113 516 l 1,0,-1
EndSplineSet
EndChar

StartChar: question
Encoding: 63 63 34
Width: 1251
GlyphClass: 2
Flags: W
LayerCount: 2
Fore
SplineSet
1133 1026 m 0,0,1
 1133 929 1133 929 1089.5 852 c 128,-1,2
 1046 775 1046 775 927 690 c 2,3,-1
 851 635 l 2,4,5
 719 541 719 541 713 426 c 1,6,-1
 446 426 l 1,7,8
 450 494 450 494 474 552 c 128,-1,9
 498 610 498 610 543.5 661 c 128,-1,10
 589 712 589 712 655 758 c 0,11,12
 727 808 727 808 769.5 848.5 c 128,-1,13
 812 889 812 889 831 928.5 c 128,-1,14
 850 968 850 968 850 1014 c 0,15,16
 850 1102 850 1102 792.5 1153 c 128,-1,17
 735 1204 735 1204 629 1204 c 0,18,19
 528 1204 528 1204 459.5 1145 c 128,-1,20
 391 1086 391 1086 379 989 c 1,21,-1
 94 1001 l 1,22,23
 121 1204 121 1204 261 1317 c 128,-1,24
 401 1430 401 1430 625 1430 c 0,25,26
 862 1430 862 1430 997.5 1322.5 c 128,-1,27
 1133 1215 1133 1215 1133 1026 c 0,0,1
727 270 m 1,28,-1
 727 0 l 1,29,-1
 438 0 l 1,30,-1
 438 270 l 1,31,-1
 727 270 l 1,28,-1
EndSplineSet
EndChar

StartChar: at
Encoding: 64 64 35
Width: 1997
GlyphClass: 2
Flags: W
LayerCount: 2
Fore
SplineSet
1878 725 m 0,0,1
 1878 543 1878 543 1815 393 c 0,2,3
 1751 243 1751 243 1639 158.5 c 128,-1,4
 1527 74 1527 74 1397 74 c 0,5,6
 1305 74 1305 74 1255.5 119.5 c 128,-1,7
 1206 165 1206 165 1206 246 c 0,8,9
 1206 265 1206 265 1207.5 281.5 c 128,-1,10
 1209 298 1209 298 1212 313 c 1,11,-1
 1206 313 l 1,12,13
 1156 208 1156 208 1057.5 141 c 128,-1,14
 959 74 959 74 856 74 c 0,15,16
 699 74 699 74 612.5 175.5 c 128,-1,17
 526 277 526 277 526 459 c 0,18,19
 526 621 526 621 591 765 c 0,20,21
 656 908 656 908 770 989.5 c 128,-1,22
 884 1071 884 1071 1026 1071 c 0,23,24
 1221 1071 1221 1071 1290 897 c 1,25,-1
 1296 897 l 1,26,-1
 1335 1049 l 1,27,-1
 1491 1049 l 1,28,-1
 1374 543 l 2,29,30
 1337 373 1337 373 1337 303 c 0,31,32
 1337 253 1337 253 1360.5 232 c 128,-1,33
 1384 211 1384 211 1415 211 c 0,34,35
 1495 211 1495 211 1568 281 c 0,36,37
 1641 350 1641 350 1683.5 466.5 c 128,-1,38
 1726 583 1726 583 1726 723 c 0,39,40
 1726 899 1726 899 1650 1033 c 256,41,42
 1574 1167 1574 1167 1429.5 1240 c 128,-1,43
 1285 1313 1285 1313 1094 1313 c 0,44,45
 854 1313 854 1313 671 1208 c 256,46,47
 488 1103 488 1103 383.5 905 c 128,-1,48
 279 707 279 707 279 461 c 0,49,50
 279 267 279 267 359 119 c 256,51,52
 439 -29 439 -29 582.5 -104.5 c 128,-1,53
 726 -180 726 -180 920 -180 c 0,54,55
 1067 -180 1067 -180 1214 -141 c 128,-1,56
 1361 -102 1361 -102 1509 -25 c 1,57,-1
 1571 -147 l 1,58,59
 1403 -242 1403 -242 1242.5 -283 c 128,-1,60
 1082 -324 1082 -324 913 -324 c 0,61,62
 677 -324 677 -324 498 -228 c 0,63,64
 318 -133 318 -133 217.5 47.5 c 128,-1,65
 117 228 117 228 117 461 c 0,66,67
 117 744 117 744 244 973 c 0,68,69
 370 1202 370 1202 593 1328 c 128,-1,70
 816 1454 816 1454 1092 1454 c 0,71,72
 1335 1454 1335 1454 1513 1364 c 0,73,74
 1691 1273 1691 1273 1784.5 1108 c 128,-1,75
 1878 943 1878 943 1878 725 c 0,0,1
1231 721 m 0,76,77
 1231 816 1231 816 1171.5 876 c 128,-1,78
 1112 936 1112 936 1018 936 c 256,79,80
 924 936 924 936 850 874 c 0,81,82
 775 811 775 811 733.5 696.5 c 128,-1,83
 692 582 692 582 692 461 c 0,84,85
 692 347 692 347 740.5 281 c 128,-1,86
 789 215 789 215 889 215 c 0,87,88
 955 215 955 215 1017.5 257.5 c 128,-1,89
 1080 300 1080 300 1129 379 c 0,90,91
 1162 432 1162 432 1184.5 496.5 c 128,-1,92
 1207 561 1207 561 1219 621 c 128,-1,93
 1231 681 1231 681 1231 721 c 0,76,77
EndSplineSet
EndChar

StartChar: A
Encoding: 65 65 36
Width: 1479
GlyphClass: 2
Flags: W
LayerCount: 2
Fore
SplineSet
471 360 m 1,0,-1
 346 0 l 1,1,-1
 51 0 l 1,2,-1
 565 1409 l 1,3,-1
 913 1409 l 1,4,-1
 1425 0 l 1,5,-1
 1133 0 l 1,6,-1
 1008 360 l 1,7,-1
 471 360 l 1,0,-1
739 1192 m 1,8,9
 729 1152 729 1152 711 1096 c 128,-1,10
 693 1040 693 1040 685 1017 c 2,11,-1
 537 582 l 1,12,-1
 942 582 l 1,13,-1
 790 1026 l 2,14,15
 776 1067 776 1067 764 1109 c 128,-1,16
 752 1151 752 1151 739 1192 c 1,8,9
EndSplineSet
EndChar

StartChar: B
Encoding: 66 66 37
Width: 1479
GlyphClass: 2
Flags: W
LayerCount: 2
Fore
SplineSet
1386 402 m 0,0,1
 1386 210 1386 210 1242 105 c 128,-1,2
 1098 0 1098 0 842 0 c 2,3,-1
 137 0 l 1,4,-1
 137 1409 l 1,5,-1
 782 1409 l 2,6,7
 1040 1409 1040 1409 1172.5 1319.5 c 128,-1,8
 1305 1230 1305 1230 1305 1055 c 0,9,10
 1305 935 1305 935 1238.5 852.5 c 128,-1,11
 1172 770 1172 770 1036 741 c 1,12,13
 1207 721 1207 721 1296.5 633.5 c 128,-1,14
 1386 546 1386 546 1386 402 c 0,0,1
1008 1015 m 0,15,16
 1008 1110 1008 1110 947.5 1150 c 128,-1,17
 887 1190 887 1190 768 1190 c 2,18,-1
 432 1190 l 1,19,-1
 432 841 l 1,20,-1
 770 841 l 2,21,22
 895 841 895 841 951.5 884.5 c 128,-1,23
 1008 928 1008 928 1008 1015 c 0,15,16
1090 425 m 0,24,25
 1090 623 1090 623 806 623 c 2,26,-1
 432 623 l 1,27,-1
 432 219 l 1,28,-1
 817 219 l 2,29,30
 959 219 959 219 1024.5 270.5 c 128,-1,31
 1090 322 1090 322 1090 425 c 0,24,25
EndSplineSet
EndChar

StartChar: C
Encoding: 67 67 38
Width: 1479
GlyphClass: 2
Flags: W
LayerCount: 2
Fore
SplineSet
795 212 m 0,0,1
 1063 212 1063 212 1166 480 c 1,2,-1
 1423 383 l 1,3,4
 1340 179 1340 179 1179.5 79.5 c 128,-1,5
 1019 -20 1019 -20 795 -20 c 0,6,7
 569 -20 569 -20 410 66.5 c 128,-1,8
 251 153 251 153 167.5 317 c 128,-1,9
 84 481 84 481 84 711 c 0,10,11
 84 943 84 943 164 1103 c 128,-1,12
 244 1263 244 1263 400 1346.5 c 128,-1,13
 556 1430 556 1430 782 1430 c 0,14,15
 1030 1430 1030 1430 1186 1330.5 c 128,-1,16
 1342 1231 1342 1231 1405 1038 c 1,17,-1
 1145 967 l 1,18,19
 1112 1073 1112 1073 1015.5 1135.5 c 128,-1,20
 919 1198 919 1198 788 1198 c 0,21,22
 588 1198 588 1198 484.5 1074 c 128,-1,23
 381 950 381 950 381 711 c 0,24,25
 381 549 381 549 428.5 438 c 128,-1,26
 476 327 476 327 568.5 269.5 c 128,-1,27
 661 212 661 212 795 212 c 0,0,1
EndSplineSet
EndChar

StartChar: D
Encoding: 68 68 39
Width: 1479
GlyphClass: 2
Flags: W
LayerCount: 2
Fore
SplineSet
1393 715 m 0,0,1
 1393 489 1393 489 1305.5 329 c 128,-1,2
 1218 169 1218 169 1063.5 84.5 c 128,-1,3
 909 0 909 0 707 0 c 2,4,-1
 137 0 l 1,5,-1
 137 1409 l 1,6,-1
 647 1409 l 2,7,8
 1003 1409 1003 1409 1198 1229.5 c 128,-1,9
 1393 1050 1393 1050 1393 715 c 0,0,1
1096 715 m 0,10,11
 1096 942 1096 942 978 1061.5 c 128,-1,12
 860 1181 860 1181 641 1181 c 2,13,-1
 432 1181 l 1,14,-1
 432 228 l 1,15,-1
 682 228 l 2,16,17
 809 228 809 228 901.5 287.5 c 128,-1,18
 994 347 994 347 1045 456 c 128,-1,19
 1096 565 1096 565 1096 715 c 0,10,11
EndSplineSet
EndChar

StartChar: E
Encoding: 69 69 40
Width: 1366
GlyphClass: 2
Flags: W
LayerCount: 2
Fore
SplineSet
1286 228 m 1,0,-1
 1286 0 l 1,1,-1
 137 0 l 1,2,-1
 137 1409 l 1,3,-1
 1245 1409 l 1,4,-1
 1245 1181 l 1,5,-1
 432 1181 l 1,6,-1
 432 827 l 1,7,-1
 1184 827 l 1,8,-1
 1184 599 l 1,9,-1
 432 599 l 1,10,-1
 432 228 l 1,11,-1
 1286 228 l 1,0,-1
EndSplineSet
EndChar

StartChar: F
Encoding: 70 70 41
Width: 1251
GlyphClass: 2
Flags: W
LayerCount: 2
Fore
SplineSet
432 517 m 1,0,-1
 432 0 l 1,1,-1
 137 0 l 1,2,-1
 137 1409 l 1,3,-1
 1176 1409 l 1,4,-1
 1176 1181 l 1,5,-1
 432 1181 l 1,6,-1
 432 745 l 1,7,-1
 1153 745 l 1,8,-1
 1153 517 l 1,9,-1
 432 517 l 1,0,-1
EndSplineSet
EndChar

StartChar: G
Encoding: 71 71 42
Width: 1593
GlyphClass: 2
Flags: W
LayerCount: 2
Fore
SplineSet
806 211 m 0,0,1
 921 211 921 211 1029 244.5 c 128,-1,2
 1137 278 1137 278 1196 330 c 1,3,-1
 1196 525 l 1,4,-1
 852 525 l 1,5,-1
 852 743 l 1,6,-1
 1466 743 l 1,7,-1
 1466 225 l 1,8,9
 1354 110 1354 110 1174.5 45 c 128,-1,10
 995 -20 995 -20 798 -20 c 0,11,12
 569 -20 569 -20 409.5 65.5 c 128,-1,13
 250 151 250 151 167 314.5 c 128,-1,14
 84 478 84 478 84 711 c 0,15,16
 84 1059 84 1059 270 1244.5 c 128,-1,17
 456 1430 456 1430 805 1430 c 0,18,19
 1053 1430 1053 1430 1211 1338.5 c 128,-1,20
 1369 1247 1369 1247 1436 1063 c 1,21,-1
 1164 981 l 1,22,23
 1120 1088 1120 1088 1026 1143 c 128,-1,24
 932 1198 932 1198 805 1198 c 0,25,26
 597 1198 597 1198 489 1072 c 128,-1,27
 381 946 381 946 381 711 c 0,28,29
 381 472 381 472 492.5 341.5 c 128,-1,30
 604 211 604 211 806 211 c 0,0,1
EndSplineSet
EndChar

StartChar: H
Encoding: 72 72 43
Width: 1479
GlyphClass: 2
Flags: W
LayerCount: 2
Fore
SplineSet
432 604 m 1,0,-1
 432 0 l 1,1,-1
 137 0 l 1,2,-1
 137 1409 l 1,3,-1
 432 1409 l 1,4,-1
 432 848 l 1,5,-1
 1046 848 l 1,6,-1
 1046 1409 l 1,7,-1
 1341 1409 l 1,8,-1
 1341 0 l 1,9,-1
 1046 0 l 1,10,-1
 1046 604 l 1,11,-1
 432 604 l 1,0,-1
EndSplineSet
EndChar

StartChar: I
Encoding: 73 73 44
Width: 569
GlyphClass: 2
Flags: W
LayerCount: 2
Fore
SplineSet
432 1409 m 1,0,-1
 432 0 l 1,1,-1
 137 0 l 1,2,-1
 137 1409 l 1,3,-1
 432 1409 l 1,0,-1
EndSplineSet
EndChar

StartChar: J
Encoding: 74 74 45
Width: 1139
GlyphClass: 2
Flags: W
LayerCount: 2
Fore
SplineSet
524 -20 m 0,0,1
 305 -20 305 -20 187.5 75 c 128,-1,2
 70 170 70 170 31 382 c 1,3,-1
 324 425 l 1,4,5
 342 316 342 316 391 263.5 c 128,-1,6
 440 211 440 211 526 211 c 0,7,8
 614 211 614 211 659.5 270 c 128,-1,9
 705 329 705 329 705 439 c 2,10,-1
 705 1409 l 1,11,-1
 999 1409 l 1,12,-1
 999 446 l 2,13,14
 999 226 999 226 874 103 c 128,-1,15
 749 -20 749 -20 524 -20 c 0,0,1
EndSplineSet
EndChar

StartChar: K
Encoding: 75 75 46
Width: 1479
GlyphClass: 2
Flags: W
LayerCount: 2
Fore
SplineSet
432 514 m 1,0,-1
 432 0 l 1,1,-1
 137 0 l 1,2,-1
 137 1409 l 1,3,-1
 432 1409 l 1,4,-1
 432 770 l 1,5,-1
 1067 1409 l 1,6,-1
 1411 1409 l 1,7,-1
 809 813 l 1,8,-1
 1460 0 l 1,9,-1
 1112 0 l 1,10,-1
 606 647 l 1,11,-1
 432 514 l 1,0,-1
EndSplineSet
EndChar

StartChar: L
Encoding: 76 76 47
Width: 1251
GlyphClass: 2
Flags: W
LayerCount: 2
Fore
SplineSet
1188 228 m 1,0,-1
 1188 0 l 1,1,-1
 137 0 l 1,2,-1
 137 1409 l 1,3,-1
 432 1409 l 1,4,-1
 432 228 l 1,5,-1
 1188 228 l 1,0,-1
EndSplineSet
EndChar

StartChar: M
Encoding: 77 77 48
Width: 1706
GlyphClass: 2
Flags: W
LayerCount: 2
Fore
SplineSet
399 854 m 2,0,-1
 399 0 l 1,1,-1
 137 0 l 1,2,-1
 137 1409 l 1,3,-1
 532 1409 l 1,4,-1
 784 621 l 2,5,6
 801 555 801 555 819 488.5 c 128,-1,7
 837 422 837 422 854 356 c 1,8,9
 865 394 865 394 875 431.5 c 128,-1,10
 885 469 885 469 895.5 507 c 128,-1,11
 906 545 906 545 917 582 c 2,12,-1
 1176 1409 l 1,13,-1
 1569 1409 l 1,14,-1
 1569 0 l 1,15,-1
 1307 0 l 1,16,-1
 1307 854 l 2,17,18
 1307 883 1307 883 1309.5 970.5 c 128,-1,19
 1312 1058 1312 1058 1317 1161 c 1,20,21
 1282 1027 1282 1027 1255.5 933 c 128,-1,22
 1229 839 1229 839 1212 786 c 2,23,-1
 958 0 l 1,24,-1
 748 0 l 1,25,-1
 494 786 l 1,26,-1
 387 1161 l 1,27,28
 393 1045 393 1045 396 968.5 c 128,-1,29
 399 892 399 892 399 854 c 2,0,-1
EndSplineSet
EndChar

StartChar: N
Encoding: 78 78 49
Width: 1479
GlyphClass: 2
Flags: W
LayerCount: 2
Fore
SplineSet
399 831 m 2,0,-1
 399 0 l 1,1,-1
 137 0 l 1,2,-1
 137 1409 l 1,3,-1
 474 1409 l 1,4,-1
 1097 315 l 1,5,6
 1079 467 1079 467 1079 590 c 2,7,-1
 1079 1409 l 1,8,-1
 1341 1409 l 1,9,-1
 1341 0 l 1,10,-1
 995 0 l 1,11,-1
 381 1085 l 1,12,13
 390 1006 390 1006 394.5 942.5 c 128,-1,14
 399 879 399 879 399 831 c 2,0,-1
EndSplineSet
EndChar

StartChar: O
Encoding: 79 79 50
Width: 1593
GlyphClass: 2
Flags: W
LayerCount: 2
Fore
SplineSet
1507 711 m 0,0,1
 1507 491 1507 491 1418.5 326.5 c 128,-1,2
 1330 162 1330 162 1169.5 71 c 128,-1,3
 1009 -20 1009 -20 793 -20 c 0,4,5
 572 -20 572 -20 413 68.5 c 128,-1,6
 254 157 254 157 169 321 c 128,-1,7
 84 485 84 485 84 711 c 256,8,9
 84 937 84 937 168.5 1098 c 128,-1,10
 253 1259 253 1259 412.5 1344.5 c 128,-1,11
 572 1430 572 1430 795 1430 c 0,12,13
 1019 1430 1019 1430 1178 1343.5 c 128,-1,14
 1337 1257 1337 1257 1422 1096 c 128,-1,15
 1507 935 1507 935 1507 711 c 0,0,1
1206 711 m 0,16,17
 1206 939 1206 939 1098 1068.5 c 128,-1,18
 990 1198 990 1198 795 1198 c 0,19,20
 597 1198 597 1198 489 1069.5 c 128,-1,21
 381 941 381 941 381 711 c 0,22,23
 381 557 381 557 431 445 c 128,-1,24
 481 333 481 333 573.5 272.5 c 128,-1,25
 666 212 666 212 793 212 c 0,26,27
 991 212 991 212 1098.5 342 c 128,-1,28
 1206 472 1206 472 1206 711 c 0,16,17
EndSplineSet
EndChar

StartChar: P
Encoding: 80 80 51
Width: 1366
GlyphClass: 2
Flags: W
LayerCount: 2
Fore
SplineSet
1296 963 m 0,0,1
 1296 826 1296 826 1233.5 720.5 c 128,-1,2
 1171 615 1171 615 1056 555.5 c 128,-1,3
 941 496 941 496 782 496 c 2,4,-1
 432 496 l 1,5,-1
 432 0 l 1,6,-1
 137 0 l 1,7,-1
 137 1409 l 1,8,-1
 770 1409 l 2,9,10
 1023 1409 1023 1409 1159.5 1292.5 c 128,-1,11
 1296 1176 1296 1176 1296 963 c 0,0,1
999 958 m 0,12,13
 999 1180 999 1180 737 1180 c 2,14,-1
 432 1180 l 1,15,-1
 432 723 l 1,16,-1
 745 723 l 2,17,18
 867 723 867 723 933 783.5 c 128,-1,19
 999 844 999 844 999 958 c 0,12,13
EndSplineSet
EndChar

StartChar: Q
Encoding: 81 81 52
Width: 1593
GlyphClass: 2
Flags: W
LayerCount: 2
Fore
SplineSet
1507 711 m 0,0,1
 1507 523 1507 523 1444.5 376 c 128,-1,2
 1382 229 1382 229 1265 133.5 c 128,-1,3
 1148 38 1148 38 983 4 c 1,4,5
 1017 -95 1017 -95 1078.5 -139 c 128,-1,6
 1140 -183 1140 -183 1251 -183 c 0,7,8
 1313 -183 1313 -183 1370 -173 c 1,9,-1
 1368 -375 l 1,10,11
 1244 -403 1244 -403 1126 -403 c 0,12,13
 963 -403 963 -403 856 -312 c 128,-1,14
 749 -221 749 -221 684 -10 c 1,15,16
 494 8 494 8 360 100 c 128,-1,17
 226 192 226 192 155 347.5 c 128,-1,18
 84 503 84 503 84 711 c 0,19,20
 84 937 84 937 168.5 1098 c 128,-1,21
 253 1259 253 1259 412.5 1344.5 c 128,-1,22
 572 1430 572 1430 795 1430 c 0,23,24
 1019 1430 1019 1430 1178 1343.5 c 128,-1,25
 1337 1257 1337 1257 1422 1096 c 128,-1,26
 1507 935 1507 935 1507 711 c 0,0,1
1206 711 m 0,27,28
 1206 939 1206 939 1098 1068.5 c 128,-1,29
 990 1198 990 1198 795 1198 c 0,30,31
 597 1198 597 1198 489 1069.5 c 128,-1,32
 381 941 381 941 381 711 c 0,33,34
 381 557 381 557 430.5 444.5 c 128,-1,35
 480 332 480 332 572.5 271.5 c 128,-1,36
 665 211 665 211 793 211 c 0,37,38
 991 211 991 211 1098.5 341 c 128,-1,39
 1206 471 1206 471 1206 711 c 0,27,28
EndSplineSet
EndChar

StartChar: R
Encoding: 82 82 53
Width: 1479
GlyphClass: 2
Flags: W
LayerCount: 2
Fore
SplineSet
432 535 m 1,0,-1
 432 0 l 1,1,-1
 137 0 l 1,2,-1
 137 1409 l 1,3,-1
 841 1409 l 2,4,5
 1093 1409 1093 1409 1230 1300.5 c 128,-1,6
 1367 1192 1367 1192 1367 989 c 0,7,8
 1367 841 1367 841 1283 733.5 c 128,-1,9
 1199 626 1199 626 1056 592 c 1,10,-1
 1437 0 l 1,11,-1
 1105 0 l 1,12,-1
 778 535 l 1,13,-1
 432 535 l 1,0,-1
1070 977 m 256,14,15
 1070 1078 1070 1078 1005 1129 c 128,-1,16
 940 1180 940 1180 810 1180 c 2,17,-1
 432 1180 l 1,18,-1
 432 764 l 1,19,-1
 818 764 l 2,20,21
 942 764 942 764 1006 820 c 128,-1,22
 1070 876 1070 876 1070 977 c 256,14,15
EndSplineSet
EndChar

StartChar: S
Encoding: 83 83 54
Width: 1366
GlyphClass: 2
Flags: W
LayerCount: 2
Fore
SplineSet
1286 406 m 0,0,1
 1286 199 1286 199 1132.5 89.5 c 128,-1,2
 979 -20 979 -20 682 -20 c 0,3,4
 147 -20 147 -20 59 367 c 1,5,-1
 344 414 l 1,6,7
 373 302 373 302 457 251.5 c 128,-1,8
 541 201 541 201 690 201 c 0,9,10
 845 201 845 201 922 248 c 128,-1,11
 999 295 999 295 999 389 c 0,12,13
 999 449 999 449 964 488 c 128,-1,14
 929 527 929 527 864 553 c 0,15,16
 832 566 832 566 770 581.5 c 128,-1,17
 708 597 708 597 616 616 c 0,18,19
 510 641 510 641 450 658.5 c 128,-1,20
 390 676 390 676 354 692.5 c 128,-1,21
 318 709 318 709 284 729 c 0,22,23
 209 774 209 774 167 849 c 128,-1,24
 125 924 125 924 125 1036 c 0,25,26
 125 1227 125 1227 268.5 1328.5 c 128,-1,27
 412 1430 412 1430 686 1430 c 0,28,29
 948 1430 948 1430 1079.5 1348 c 128,-1,30
 1211 1266 1211 1266 1249 1077 c 1,31,-1
 963 1038 l 1,32,33
 941 1129 941 1129 873.5 1175 c 128,-1,34
 806 1221 806 1221 680 1221 c 0,35,36
 546 1221 546 1221 479 1179 c 128,-1,37
 412 1137 412 1137 412 1053 c 0,38,39
 412 998 412 998 440.5 963 c 128,-1,40
 469 928 469 928 525 903 c 0,41,42
 578 879 578 879 752 842 c 0,43,44
 853 820 853 820 926 800.5 c 128,-1,45
 999 781 999 781 1043 763 c 0,46,47
 1087 744 1087 744 1121.5 723 c 128,-1,48
 1156 702 1156 702 1181 678 c 0,49,50
 1232 629 1232 629 1259 561.5 c 128,-1,51
 1286 494 1286 494 1286 406 c 0,0,1
EndSplineSet
EndChar

StartChar: T
Encoding: 84 84 55
Width: 1251
GlyphClass: 2
Flags: W
LayerCount: 2
Fore
SplineSet
773 1181 m 1,0,-1
 773 0 l 1,1,-1
 478 0 l 1,2,-1
 478 1181 l 1,3,-1
 23 1181 l 1,4,-1
 23 1409 l 1,5,-1
 1229 1409 l 1,6,-1
 1229 1181 l 1,7,-1
 773 1181 l 1,0,-1
EndSplineSet
EndChar

StartChar: U
Encoding: 85 85 56
Width: 1479
GlyphClass: 2
Flags: W
LayerCount: 2
Fore
SplineSet
723 -20 m 0,0,1
 529 -20 529 -20 395 43.5 c 128,-1,2
 261 107 261 107 192 229.5 c 128,-1,3
 123 352 123 352 123 528 c 2,4,-1
 123 1409 l 1,5,-1
 418 1409 l 1,6,-1
 418 551 l 2,7,8
 418 384 418 384 497.5 297.5 c 128,-1,9
 577 211 577 211 731 211 c 0,10,11
 889 211 889 211 974 301.5 c 128,-1,12
 1059 392 1059 392 1059 561 c 2,13,-1
 1059 1409 l 1,14,-1
 1354 1409 l 1,15,-1
 1354 543 l 2,16,17
 1354 365 1354 365 1279.5 239 c 128,-1,18
 1205 113 1205 113 1064 46.5 c 128,-1,19
 923 -20 923 -20 723 -20 c 0,0,1
EndSplineSet
EndChar

StartChar: V
Encoding: 86 86 57
Width: 1366
GlyphClass: 2
Flags: W
LayerCount: 2
Fore
SplineSet
1352 1409 m 1,0,-1
 834 0 l 1,1,-1
 535 0 l 1,2,-1
 14 1409 l 1,3,-1
 322 1409 l 1,4,-1
 612 504 l 2,5,6
 626 460 626 460 644.5 393.5 c 128,-1,7
 663 327 663 327 686 238 c 1,8,9
 719 363 719 363 733.5 419 c 128,-1,10
 748 475 748 475 758 504 c 2,11,-1
 1047 1409 l 1,12,-1
 1352 1409 l 1,0,-1
EndSplineSet
EndChar

StartChar: W
Encoding: 87 87 58
Width: 1933
GlyphClass: 2
Flags: W
LayerCount: 2
Fore
SplineSet
909 834 m 2,0,-1
 715 0 l 1,1,-1
 365 0 l 1,2,-1
 2 1409 l 1,3,-1
 301 1409 l 1,4,-1
 497 546 l 2,5,6
 510 491 510 491 525.5 419 c 128,-1,7
 541 347 541 347 551 279 c 1,8,9
 561 326 561 326 569.5 370.5 c 128,-1,10
 578 415 578 415 587 458.5 c 128,-1,11
 596 502 596 502 606 545 c 2,12,-1
 805 1409 l 1,13,-1
 1135 1409 l 1,14,-1
 1332 576 l 2,15,16
 1342 534 1342 534 1356.5 454 c 128,-1,17
 1371 374 1371 374 1384 279 c 1,18,19
 1397 337 1397 337 1407.5 381.5 c 128,-1,20
 1418 426 1418 426 1428.5 470.5 c 128,-1,21
 1439 515 1439 515 1451 572 c 2,22,-1
 1632 1409 l 1,23,-1
 1931 1409 l 1,24,-1
 1567 0 l 1,25,-1
 1217 0 l 1,26,-1
 1026 815 l 2,27,28
 1009 887 1009 887 994 962 c 128,-1,29
 979 1037 979 1037 967 1116 c 1,30,31
 959 1073 959 1073 947 1015 c 128,-1,32
 935 957 935 957 924.5 907 c 128,-1,33
 914 857 914 857 909 834 c 2,0,-1
EndSplineSet
EndChar

StartChar: X
Encoding: 88 88 59
Width: 1366
GlyphClass: 2
Flags: W
LayerCount: 2
Fore
SplineSet
684 561 m 1,0,-1
 330 0 l 1,1,-1
 18 0 l 1,2,-1
 506 741 l 1,3,-1
 59 1409 l 1,4,-1
 371 1409 l 1,5,-1
 684 911 l 1,6,-1
 997 1409 l 1,7,-1
 1307 1409 l 1,8,-1
 879 741 l 1,9,-1
 1348 0 l 1,10,-1
 1038 0 l 1,11,-1
 684 561 l 1,0,-1
EndSplineSet
EndChar

StartChar: Y
Encoding: 89 89 60
Width: 1366
GlyphClass: 2
Flags: W
LayerCount: 2
Fore
SplineSet
831 578 m 1,0,-1
 831 0 l 1,1,-1
 537 0 l 1,2,-1
 537 578 l 1,3,-1
 35 1409 l 1,4,-1
 344 1409 l 1,5,-1
 682 813 l 1,6,-1
 1024 1409 l 1,7,-1
 1333 1409 l 1,8,-1
 831 578 l 1,0,-1
EndSplineSet
EndChar

StartChar: Z
Encoding: 90 90 61
Width: 1251
GlyphClass: 2
Flags: W
LayerCount: 2
Fore
SplineSet
1192 231 m 1,0,-1
 1192 0 l 1,1,-1
 61 0 l 1,2,-1
 61 209 l 1,3,-1
 823 1178 l 1,4,-1
 137 1178 l 1,5,-1
 137 1409 l 1,6,-1
 1151 1409 l 1,7,-1
 1151 1204 l 1,8,-1
 389 231 l 1,9,-1
 1192 231 l 1,0,-1
EndSplineSet
EndChar

StartChar: bracketleft
Encoding: 91 91 62
Width: 682
GlyphClass: 2
Flags: W
LayerCount: 2
Fore
SplineSet
657 -234 m 1,0,-1
 657 -425 l 1,1,-1
 115 -425 l 1,2,-1
 115 1484 l 1,3,-1
 657 1484 l 1,4,-1
 657 1294 l 1,5,-1
 381 1294 l 1,6,-1
 381 -234 l 1,7,-1
 657 -234 l 1,0,-1
EndSplineSet
EndChar

StartChar: backslash
Encoding: 92 92 63
Width: 569
GlyphClass: 2
Flags: W
LayerCount: 2
Fore
SplineSet
259 1485 m 1,0,-1
 550 -41 l 1,1,-1
 307 -41 l 1,2,-1
 21 1485 l 1,3,-1
 259 1485 l 1,0,-1
EndSplineSet
EndChar

StartChar: bracketright
Encoding: 93 93 64
Width: 682
GlyphClass: 2
Flags: W
LayerCount: 2
Fore
SplineSet
567 1484 m 1,0,-1
 567 -425 l 1,1,-1
 25 -425 l 1,2,-1
 25 -234 l 1,3,-1
 303 -234 l 1,4,-1
 303 1294 l 1,5,-1
 25 1294 l 1,6,-1
 25 1484 l 1,7,-1
 567 1484 l 1,0,-1
EndSplineSet
EndChar

StartChar: asciicircum
Encoding: 94 94 65
Width: 1196
GlyphClass: 2
Flags: W
LayerCount: 2
Fore
SplineSet
45 514 m 1,0,-1
 436 1409 l 1,1,-1
 758 1409 l 1,2,-1
 1151 514 l 1,3,-1
 922 514 l 1,4,-1
 596 1266 l 1,5,-1
 272 514 l 1,6,-1
 45 514 l 1,0,-1
EndSplineSet
EndChar

StartChar: underscore
Encoding: 95 95 66
Width: 1139
GlyphClass: 2
Flags: W
LayerCount: 2
Fore
SplineSet
1157 -172 m 1,0,-1
 1157 -250 l 1,1,-1
 -20 -250 l 1,2,-1
 -20 -172 l 1,3,-1
 1157 -172 l 1,0,-1
EndSplineSet
EndChar

StartChar: grave
Encoding: 96 96 67
Width: 682
GlyphClass: 2
Flags: W
LayerCount: 2
Fore
SplineSet
575 1214 m 1,0,-1
 575 1183 l 1,1,-1
 406 1183 l 1,2,-1
 66 1459 l 1,3,-1
 66 1502 l 1,4,-1
 324 1502 l 1,5,-1
 575 1214 l 1,0,-1
EndSplineSet
EndChar

StartChar: a
Encoding: 97 97 68
Width: 1139
GlyphClass: 2
Flags: W
LayerCount: 2
Fore
SplineSet
393 -20 m 0,0,1
 236 -20 236 -20 148 65.5 c 128,-1,2
 60 151 60 151 60 306 c 0,3,4
 60 474 60 474 169.5 561 c 128,-1,5
 279 648 279 648 487 652 c 2,6,-1
 720 656 l 1,7,-1
 720 711 l 2,8,9
 720 817 720 817 683 868.5 c 128,-1,10
 646 920 646 920 562 920 c 0,11,12
 484 920 484 920 447.5 884.5 c 128,-1,13
 411 849 411 849 402 767 c 1,14,-1
 109 781 l 1,15,16
 164 1102 164 1102 574 1102 c 0,17,18
 779 1102 779 1102 890 1001 c 128,-1,19
 1001 900 1001 900 1001 714 c 2,20,-1
 1001 320 l 2,21,22
 1001 229 1001 229 1021.5 194.5 c 128,-1,23
 1042 160 1042 160 1090 160 c 0,24,25
 1122 160 1122 160 1152 166 c 1,26,-1
 1152 14 l 1,27,28
 1100 1 1100 1 1063 -5.5 c 128,-1,29
 1026 -12 1026 -12 972 -12 c 0,30,31
 866 -12 866 -12 815.5 40 c 128,-1,32
 765 92 765 92 755 193 c 1,33,-1
 749 193 l 1,34,35
 690 87 690 87 601 33.5 c 128,-1,36
 512 -20 512 -20 393 -20 c 0,0,1
720 501 m 1,37,-1
 576 499 l 2,38,39
 477 494 477 494 437 478 c 0,40,41
 396 460 396 460 374.5 424 c 128,-1,42
 353 388 353 388 353 328 c 0,43,44
 353 251 353 251 388.5 213.5 c 128,-1,45
 424 176 424 176 483 176 c 0,46,47
 549 176 549 176 604 212 c 0,48,49
 658 248 658 248 689 311.5 c 128,-1,50
 720 375 720 375 720 446 c 2,51,-1
 720 501 l 1,37,-1
EndSplineSet
EndChar

StartChar: b
Encoding: 98 98 69
Width: 1251
GlyphClass: 2
Flags: W
LayerCount: 2
Fore
SplineSet
1167 545 m 0,0,1
 1167 277 1167 277 1059.5 128.5 c 128,-1,2
 952 -20 952 -20 752 -20 c 0,3,4
 637 -20 637 -20 553 30 c 128,-1,5
 469 80 469 80 424 174 c 1,6,-1
 422 174 l 1,7,8
 422 151 422 151 420 114 c 128,-1,9
 418 77 418 77 415 44.5 c 128,-1,10
 412 12 412 12 408 0 c 1,11,-1
 135 0 l 1,12,13
 139 47 139 47 141 108.5 c 128,-1,14
 143 170 143 170 143 247 c 2,15,-1
 143 1484 l 1,16,-1
 424 1484 l 1,17,-1
 424 1070 l 2,18,19
 424 1026 424 1026 422.5 982 c 128,-1,20
 421 938 421 938 420 894 c 1,21,-1
 424 894 l 1,22,23
 471 998 471 998 558 1050 c 128,-1,24
 645 1102 645 1102 770 1102 c 0,25,26
 962 1102 962 1102 1064.5 956.5 c 128,-1,27
 1167 811 1167 811 1167 545 c 0,0,1
874 545 m 0,28,29
 874 729 874 729 820 818 c 128,-1,30
 766 907 766 907 653 907 c 0,31,32
 539 907 539 907 479.5 811.5 c 128,-1,33
 420 716 420 716 420 536 c 0,34,35
 420 364 420 364 478.5 268 c 128,-1,36
 537 172 537 172 651 172 c 0,37,38
 763 172 763 172 818.5 265 c 128,-1,39
 874 358 874 358 874 545 c 0,28,29
EndSplineSet
EndChar

StartChar: c
Encoding: 99 99 70
Width: 1139
GlyphClass: 2
Flags: W
LayerCount: 2
Fore
SplineSet
594 -20 m 0,0,1
 348 -20 348 -20 214 126.5 c 128,-1,2
 80 273 80 273 80 535 c 0,3,4
 80 803 80 803 215 952.5 c 128,-1,5
 350 1102 350 1102 598 1102 c 0,6,7
 789 1102 789 1102 914 1006 c 128,-1,8
 1039 910 1039 910 1071 741 c 1,9,-1
 788 727 l 1,10,11
 776 810 776 810 728 859.5 c 128,-1,12
 680 909 680 909 592 909 c 0,13,14
 483 909 483 909 429 818.5 c 128,-1,15
 375 728 375 728 375 546 c 0,16,17
 375 359 375 359 430.5 265.5 c 128,-1,18
 486 172 486 172 596 172 c 0,19,20
 676 172 676 172 730 222.5 c 128,-1,21
 784 273 784 273 797 373 c 1,22,-1
 1079 360 l 1,23,24
 1064 246 1064 246 998.5 160.5 c 128,-1,25
 933 75 933 75 829 27.5 c 128,-1,26
 725 -20 725 -20 594 -20 c 0,0,1
EndSplineSet
EndChar

StartChar: d
Encoding: 100 100 71
Width: 1251
GlyphClass: 2
Flags: W
LayerCount: 2
Fore
SplineSet
844 0 m 1,0,1
 842 10 842 10 838 42 c 128,-1,2
 834 74 834 74 831.5 112 c 128,-1,3
 829 150 829 150 829 176 c 1,4,-1
 825 176 l 1,5,6
 779 78 779 78 693 29 c 128,-1,7
 607 -20 607 -20 479 -20 c 0,8,9
 290 -20 290 -20 187 127.5 c 128,-1,10
 84 275 84 275 84 540 c 0,11,12
 84 809 84 809 192.5 955.5 c 128,-1,13
 301 1102 301 1102 500 1102 c 0,14,15
 615 1102 615 1102 698.5 1054 c 128,-1,16
 782 1006 782 1006 827 911 c 1,17,-1
 829 911 l 1,18,-1
 827 1089 l 1,19,-1
 827 1484 l 1,20,-1
 1108 1484 l 1,21,-1
 1108 236 l 2,22,23
 1108 186 1108 186 1110 127 c 128,-1,24
 1112 68 1112 68 1116 0 c 1,25,-1
 844 0 l 1,0,1
377 540 m 0,26,27
 377 356 377 356 432.5 264 c 128,-1,28
 488 172 488 172 598 172 c 0,29,30
 709 172 709 172 770 269.5 c 128,-1,31
 831 367 831 367 831 547 c 0,32,33
 831 722 831 722 772.5 816.5 c 128,-1,34
 714 911 714 911 600 911 c 0,35,36
 487 911 487 911 432 819.5 c 128,-1,37
 377 728 377 728 377 540 c 0,26,27
EndSplineSet
EndChar

StartChar: e
Encoding: 101 101 72
Width: 1139
GlyphClass: 2
Flags: W
LayerCount: 2
Fore
SplineSet
375 487 m 1,0,1
 375 329 375 329 433.5 248.5 c 128,-1,2
 492 168 492 168 600 168 c 0,3,4
 674 168 674 168 721.5 200.5 c 128,-1,5
 769 233 769 233 788 297 c 1,6,-1
 1053 274 l 1,7,8
 938 -20 938 -20 586 -20 c 0,9,10
 342 -20 342 -20 211 124.5 c 128,-1,11
 80 269 80 269 80 546 c 0,12,13
 80 814 80 814 213 958 c 128,-1,14
 346 1102 346 1102 590 1102 c 0,15,16
 823 1102 823 1102 946 947.5 c 128,-1,17
 1069 793 1069 793 1069 495 c 2,18,-1
 1069 487 l 1,19,-1
 375 487 l 1,0,1
797 663 m 1,20,21
 789 794 789 794 734 859.5 c 128,-1,22
 679 925 679 925 586 925 c 0,23,24
 487 925 487 925 433.5 856 c 128,-1,25
 380 787 380 787 377 663 c 1,26,-1
 797 663 l 1,20,21
EndSplineSet
EndChar

StartChar: f
Encoding: 102 102 73
Width: 682
GlyphClass: 2
Flags: W
LayerCount: 2
Fore
SplineSet
473 892 m 1,0,-1
 473 0 l 1,1,-1
 193 0 l 1,2,-1
 193 892 l 1,3,-1
 35 892 l 1,4,-1
 35 1082 l 1,5,-1
 193 1082 l 1,6,-1
 193 1195 l 2,7,8
 193 1342 193 1342 271 1413 c 128,-1,9
 349 1484 349 1484 508 1484 c 0,10,11
 590 1484 590 1484 686 1468 c 1,12,-1
 686 1287 l 1,13,14
 646 1296 646 1296 604 1296 c 0,15,16
 532 1296 532 1296 502.5 1267.5 c 128,-1,17
 473 1239 473 1239 473 1167 c 2,18,-1
 473 1082 l 1,19,-1
 686 1082 l 1,20,-1
 686 892 l 1,21,-1
 473 892 l 1,0,-1
EndSplineSet
EndChar

StartChar: g
Encoding: 103 103 74
Width: 1251
GlyphClass: 2
Flags: W
LayerCount: 2
Fore
SplineSet
596 -434 m 0,0,1
 398 -434 398 -434 277.5 -358.5 c 128,-1,2
 157 -283 157 -283 129 -143 c 1,3,-1
 410 -110 l 1,4,5
 425 -175 425 -175 474.5 -212 c 128,-1,6
 524 -249 524 -249 604 -249 c 0,7,8
 721 -249 721 -249 775 -177 c 128,-1,9
 829 -105 829 -105 829 37 c 2,10,-1
 831 201 l 1,11,-1
 829 201 l 1,12,13
 783 101 783 101 696 51.5 c 128,-1,14
 609 2 609 2 481 2 c 0,15,16
 292 2 292 2 188 144 c 128,-1,17
 84 286 84 286 84 550 c 0,18,19
 84 815 84 815 191 959 c 128,-1,20
 298 1103 298 1103 502 1103 c 0,21,22
 620 1103 620 1103 701.5 1054.5 c 128,-1,23
 783 1006 783 1006 829 908 c 1,24,-1
 834 908 l 1,25,26
 834 932 834 932 836 968 c 128,-1,27
 838 1004 838 1004 841.5 1037 c 128,-1,28
 845 1070 845 1070 848 1082 c 1,29,-1
 1114 1082 l 1,30,31
 1108 974 1108 974 1108 832 c 2,32,-1
 1108 33 l 2,33,34
 1108 -198 1108 -198 977 -316 c 128,-1,35
 846 -434 846 -434 596 -434 c 0,0,1
831 556 m 0,36,37
 831 723 831 723 771.5 816.5 c 128,-1,38
 712 910 712 910 602 910 c 0,39,40
 490 910 490 910 433.5 820 c 128,-1,41
 377 730 377 730 377 550 c 0,42,43
 377 374 377 374 432.5 285.5 c 128,-1,44
 488 197 488 197 600 197 c 256,45,46
 712 197 712 197 771.5 290.5 c 128,-1,47
 831 384 831 384 831 556 c 0,36,37
EndSplineSet
EndChar

StartChar: h
Encoding: 104 104 75
Width: 1251
GlyphClass: 2
Flags: W
LayerCount: 2
Fore
SplineSet
420 866 m 1,0,1
 477 990 477 990 563 1046 c 128,-1,2
 649 1102 649 1102 768 1102 c 0,3,4
 940 1102 940 1102 1032 996 c 128,-1,5
 1124 890 1124 890 1124 686 c 2,6,-1
 1124 0 l 1,7,-1
 844 0 l 1,8,-1
 844 606 l 2,9,10
 844 749 844 749 796 820 c 128,-1,11
 748 891 748 891 651 891 c 0,12,13
 549 891 549 891 486.5 803.5 c 128,-1,14
 424 716 424 716 424 579 c 2,15,-1
 424 0 l 1,16,-1
 143 0 l 1,17,-1
 143 1484 l 1,18,-1
 424 1484 l 1,19,-1
 424 1079 l 2,20,21
 424 1043 424 1043 423 1007 c 128,-1,22
 422 971 422 971 420.5 936 c 128,-1,23
 419 901 419 901 416 866 c 1,24,-1
 420 866 l 1,0,1
EndSplineSet
EndChar

StartChar: i
Encoding: 105 105 76
Width: 569
GlyphClass: 2
Flags: W
LayerCount: 2
Fore
SplineSet
424 1484 m 1,0,-1
 424 1277 l 1,1,-1
 143 1277 l 1,2,-1
 143 1484 l 1,3,-1
 424 1484 l 1,0,-1
424 1082 m 1,4,-1
 424 0 l 1,5,-1
 143 0 l 1,6,-1
 143 1082 l 1,7,-1
 424 1082 l 1,4,-1
EndSplineSet
Substitution2: "Single Substitution lookup 12 subtable" dotlessi
EndChar

StartChar: j
Encoding: 106 106 77
Width: 569
GlyphClass: 2
Flags: W
LayerCount: 2
Fore
SplineSet
425 1484 m 1,0,-1
 425 1277 l 1,1,-1
 144 1277 l 1,2,-1
 144 1484 l 1,3,-1
 425 1484 l 1,0,-1
138 -425 m 0,4,5
 39 -425 39 -425 -32 -416 c 1,6,-1
 -32 -218 l 1,7,8
 -19 -219 -19 -219 -6.5 -220.5 c 128,-1,9
 6 -222 6 -222 19 -222 c 0,10,11
 91 -222 91 -222 117.5 -190.5 c 128,-1,12
 144 -159 144 -159 144 -60 c 2,13,-1
 144 1082 l 1,14,-1
 425 1082 l 1,15,-1
 425 -128 l 2,16,17
 425 -271 425 -271 352.5 -348 c 128,-1,18
 280 -425 280 -425 138 -425 c 0,4,5
EndSplineSet
Substitution2: "Single Substitution lookup 12 subtable" uni0237
EndChar

StartChar: k
Encoding: 107 107 78
Width: 1139
GlyphClass: 2
Flags: W
LayerCount: 2
Fore
SplineSet
424 406 m 1,0,-1
 424 0 l 1,1,-1
 143 0 l 1,2,-1
 143 1484 l 1,3,-1
 424 1484 l 1,4,-1
 424 634 l 1,5,-1
 810 1082 l 1,6,-1
 1112 1082 l 1,7,-1
 732 660 l 1,8,-1
 1141 0 l 1,9,-1
 834 0 l 1,10,-1
 545 490 l 1,11,-1
 424 406 l 1,0,-1
EndSplineSet
EndChar

StartChar: l
Encoding: 108 108 79
Width: 569
GlyphClass: 2
Flags: W
LayerCount: 2
Fore
SplineSet
424 1484 m 1,0,-1
 424 0 l 1,1,-1
 143 0 l 1,2,-1
 143 1484 l 1,3,-1
 424 1484 l 1,0,-1
EndSplineSet
EndChar

StartChar: m
Encoding: 109 109 80
Width: 1821
GlyphClass: 2
Flags: W
LayerCount: 2
Fore
SplineSet
424 580 m 2,0,-1
 424 0 l 1,1,-1
 143 0 l 1,2,-1
 143 840 l 2,3,4
 143 927 143 927 140.5 982.5 c 128,-1,5
 138 1038 138 1038 135 1082 c 1,6,-1
 403 1082 l 1,7,8
 405 1070 405 1070 408 1025.5 c 128,-1,9
 411 981 411 981 413.5 934.5 c 128,-1,10
 416 888 416 888 416 867 c 1,11,-1
 420 867 l 1,12,13
 472 991 472 991 549.5 1047 c 128,-1,14
 627 1103 627 1103 735 1103 c 0,15,16
 859 1103 859 1103 934.5 1044 c 128,-1,17
 1010 985 1010 985 1036 867 c 1,18,-1
 1042 867 l 1,19,20
 1097 993 1097 993 1174 1048 c 128,-1,21
 1251 1103 1251 1103 1370 1103 c 0,22,23
 1528 1103 1528 1103 1611 995.5 c 128,-1,24
 1694 888 1694 888 1694 687 c 2,25,-1
 1694 0 l 1,26,-1
 1415 0 l 1,27,-1
 1415 607 l 2,28,29
 1415 750 1415 750 1374 821 c 128,-1,30
 1333 892 1333 892 1251 892 c 256,31,32
 1169 892 1169 892 1114 812.5 c 128,-1,33
 1059 733 1059 733 1059 593 c 2,34,-1
 1059 0 l 1,35,-1
 780 0 l 1,36,-1
 780 607 l 2,37,38
 780 750 780 750 739 821 c 128,-1,39
 698 892 698 892 616 892 c 0,40,41
 531 892 531 892 477.5 805 c 128,-1,42
 424 718 424 718 424 580 c 2,0,-1
EndSplineSet
EndChar

StartChar: n
Encoding: 110 110 81
Width: 1251
GlyphClass: 2
Flags: W
LayerCount: 2
Fore
SplineSet
424 580 m 2,0,-1
 424 0 l 1,1,-1
 143 0 l 1,2,-1
 143 840 l 2,3,4
 143 927 143 927 140.5 982.5 c 128,-1,5
 138 1038 138 1038 135 1082 c 1,6,-1
 403 1082 l 1,7,8
 405 1070 405 1070 408 1025.5 c 128,-1,9
 411 981 411 981 413.5 934.5 c 128,-1,10
 416 888 416 888 416 867 c 1,11,-1
 420 867 l 1,12,13
 477 991 477 991 563 1047 c 128,-1,14
 649 1103 649 1103 768 1103 c 0,15,16
 940 1103 940 1103 1032 997 c 128,-1,17
 1124 891 1124 891 1124 687 c 2,18,-1
 1124 0 l 1,19,-1
 844 0 l 1,20,-1
 844 607 l 2,21,22
 844 750 844 750 796 821 c 128,-1,23
 748 892 748 892 651 892 c 0,24,25
 549 892 549 892 486.5 804.5 c 128,-1,26
 424 717 424 717 424 580 c 2,0,-1
EndSplineSet
EndChar

StartChar: o
Encoding: 111 111 82
Width: 1251
GlyphClass: 2
Flags: W
LayerCount: 2
Fore
SplineSet
1171 542 m 0,0,1
 1171 279 1171 279 1025 129.5 c 128,-1,2
 879 -20 879 -20 621 -20 c 0,3,4
 368 -20 368 -20 224 130 c 128,-1,5
 80 280 80 280 80 542 c 0,6,7
 80 803 80 803 224 952.5 c 128,-1,8
 368 1102 368 1102 627 1102 c 0,9,10
 892 1102 892 1102 1031.5 957.5 c 128,-1,11
 1171 813 1171 813 1171 542 c 0,0,1
877 542 m 0,12,13
 877 735 877 735 814 822 c 128,-1,14
 751 909 751 909 631 909 c 0,15,16
 503 909 503 909 439 817.5 c 128,-1,17
 375 726 375 726 375 542 c 0,18,19
 375 361 375 361 437.5 266.5 c 128,-1,20
 500 172 500 172 618 172 c 0,21,22
 748 172 748 172 812.5 264.5 c 128,-1,23
 877 357 877 357 877 542 c 0,12,13
EndSplineSet
EndChar

StartChar: p
Encoding: 112 112 83
Width: 1251
GlyphClass: 2
Flags: W
LayerCount: 2
Fore
SplineSet
1167 546 m 0,0,1
 1167 275 1167 275 1058.5 127.5 c 128,-1,2
 950 -20 950 -20 752 -20 c 0,3,4
 517 -20 517 -20 424 172 c 1,5,-1
 418 172 l 1,6,7
 424 142 424 142 424 -10 c 2,8,-1
 424 -425 l 1,9,-1
 143 -425 l 1,10,-1
 143 833 l 2,11,12
 143 910 143 910 141 972 c 128,-1,13
 139 1034 139 1034 135 1082 c 1,14,-1
 408 1082 l 1,15,16
 412 1070 412 1070 414.5 1041.5 c 128,-1,17
 417 1013 417 1013 418.5 977 c 128,-1,18
 420 941 420 941 420 906 c 1,19,-1
 424 906 l 1,20,21
 471 1006 471 1006 558 1055.5 c 128,-1,22
 645 1105 645 1105 770 1105 c 0,23,24
 959 1105 959 1105 1063 959.5 c 128,-1,25
 1167 814 1167 814 1167 546 c 0,0,1
874 546 m 0,26,27
 874 728 874 728 818.5 819 c 128,-1,28
 763 910 763 910 651 910 c 256,29,30
 539 910 539 910 479.5 812 c 128,-1,31
 420 714 420 714 420 538 c 0,32,33
 420 363 420 363 479.5 267.5 c 128,-1,34
 539 172 539 172 649 172 c 0,35,36
 762 172 762 172 818 265.5 c 128,-1,37
 874 359 874 359 874 546 c 0,26,27
EndSplineSet
EndChar

StartChar: q
Encoding: 113 113 84
Width: 1251
GlyphClass: 2
Flags: W
LayerCount: 2
Fore
SplineSet
84 540 m 0,0,1
 84 808 84 808 193.5 955.5 c 128,-1,2
 303 1103 303 1103 502 1103 c 0,3,4
 620 1103 620 1103 701.5 1054.5 c 128,-1,5
 783 1006 783 1006 829 908 c 1,6,7
 829 939 829 939 831.5 975.5 c 128,-1,8
 834 1012 834 1012 838 1042 c 128,-1,9
 842 1072 842 1072 844 1082 c 1,10,-1
 1114 1082 l 1,11,12
 1111 1028 1111 1028 1109.5 966 c 128,-1,13
 1108 904 1108 904 1108 833 c 2,14,-1
 1108 -425 l 1,15,-1
 829 -425 l 1,16,-1
 829 25 l 1,17,-1
 834 180 l 1,18,-1
 832 180 l 1,19,20
 786 80 786 80 697.5 30 c 128,-1,21
 609 -20 609 -20 479 -20 c 0,22,23
 290 -20 290 -20 187 127.5 c 128,-1,24
 84 275 84 275 84 540 c 0,0,1
831 546 m 0,25,26
 831 719 831 719 773 814.5 c 128,-1,27
 715 910 715 910 602 910 c 0,28,29
 490 910 490 910 433.5 817.5 c 128,-1,30
 377 725 377 725 377 540 c 0,31,32
 377 356 377 356 432.5 264 c 128,-1,33
 488 172 488 172 600 172 c 0,34,35
 710 172 710 172 770.5 269.5 c 128,-1,36
 831 367 831 367 831 546 c 0,25,26
EndSplineSet
EndChar

StartChar: r
Encoding: 114 114 85
Width: 797
GlyphClass: 2
Flags: W
LayerCount: 2
Fore
SplineSet
424 531 m 2,0,-1
 424 0 l 1,1,-1
 143 0 l 1,2,-1
 143 828 l 2,3,4
 143 917 143 917 140.5 976.5 c 128,-1,5
 138 1036 138 1036 135 1082 c 1,6,-1
 403 1082 l 1,7,8
 405 1073 405 1073 407 1042 c 128,-1,9
 409 1011 409 1011 411 972.5 c 128,-1,10
 413 934 413 934 414.5 900 c 128,-1,11
 416 866 416 866 416 851 c 1,12,-1
 420 851 l 1,13,14
 460 963 460 963 493 1012 c 0,15,16
 525 1059 525 1059 569 1081 c 128,-1,17
 613 1103 613 1103 679 1103 c 0,18,19
 733 1103 733 1103 766 1088 c 1,20,-1
 766 853 l 1,21,22
 699 868 699 868 646 868 c 0,23,24
 541 868 541 868 482.5 783 c 128,-1,25
 424 698 424 698 424 531 c 2,0,-1
EndSplineSet
EndChar

StartChar: s
Encoding: 115 115 86
Width: 1139
GlyphClass: 2
Flags: W
LayerCount: 2
Fore
SplineSet
1055 316 m 0,0,1
 1055 159 1055 159 926.5 69.5 c 128,-1,2
 798 -20 798 -20 571 -20 c 0,3,4
 348 -20 348 -20 229.5 50.5 c 128,-1,5
 111 121 111 121 72 270 c 1,6,-1
 319 307 l 1,7,8
 340 230 340 230 391.5 198 c 128,-1,9
 443 166 443 166 571 166 c 0,10,11
 689 166 689 166 743 196 c 128,-1,12
 797 226 797 226 797 290 c 0,13,14
 797 342 797 342 753.5 372.5 c 128,-1,15
 710 403 710 403 606 424 c 0,16,17
 527 440 527 440 464.5 455 c 128,-1,18
 402 470 402 470 357.5 484.5 c 128,-1,19
 313 499 313 499 285 512 c 0,20,21
 202 553 202 553 158.5 617 c 128,-1,22
 115 681 115 681 115 775 c 0,23,24
 115 930 115 930 234.5 1016.5 c 128,-1,25
 354 1103 354 1103 573 1103 c 0,26,27
 766 1103 766 1103 883.5 1028 c 128,-1,28
 1001 953 1001 953 1030 811 c 1,29,-1
 781 785 l 1,30,31
 769 851 769 851 722 883.5 c 128,-1,32
 675 916 675 916 573 916 c 0,33,34
 473 916 473 916 423 890.5 c 128,-1,35
 373 865 373 865 373 805 c 0,36,37
 373 758 373 758 411.5 730.5 c 128,-1,38
 450 703 450 703 541 685 c 0,39,40
 668 659 668 659 766.5 631.5 c 128,-1,41
 865 604 865 604 925 566 c 0,42,43
 984 528 984 528 1019.5 468.5 c 128,-1,44
 1055 409 1055 409 1055 316 c 0,0,1
EndSplineSet
EndChar

StartChar: t
Encoding: 116 116 87
Width: 682
GlyphClass: 2
Flags: W
LayerCount: 2
Fore
SplineSet
657 16 m 1,0,1
 555 -18 555 -18 420 -18 c 0,2,3
 296 -18 296 -18 229 49.5 c 128,-1,4
 162 117 162 117 162 254 c 2,5,-1
 162 892 l 1,6,-1
 25 892 l 1,7,-1
 25 1082 l 1,8,-1
 176 1082 l 1,9,-1
 264 1336 l 1,10,-1
 440 1336 l 1,11,-1
 440 1082 l 1,12,-1
 645 1082 l 1,13,-1
 645 892 l 1,14,-1
 440 892 l 1,15,-1
 440 330 l 2,16,17
 440 251 440 251 470 213.5 c 128,-1,18
 500 176 500 176 563 176 c 0,19,20
 593 176 593 176 657 190 c 1,21,-1
 657 16 l 1,0,1
EndSplineSet
EndChar

StartChar: u
Encoding: 117 117 88
Width: 1251
GlyphClass: 2
Flags: W
LayerCount: 2
Fore
SplineSet
831 215 m 1,0,1
 775 92 775 92 688.5 36 c 128,-1,2
 602 -20 602 -20 483 -20 c 0,3,4
 311 -20 311 -20 219 85.5 c 128,-1,5
 127 191 127 191 127 395 c 2,6,-1
 127 1082 l 1,7,-1
 408 1082 l 1,8,-1
 408 475 l 2,9,10
 408 333 408 333 456 261.5 c 128,-1,11
 504 190 504 190 600 190 c 0,12,13
 702 190 702 190 764.5 277.5 c 128,-1,14
 827 365 827 365 827 502 c 2,15,-1
 827 1082 l 1,16,-1
 1108 1082 l 1,17,-1
 1108 242 l 2,18,19
 1108 173 1108 173 1110 112.5 c 128,-1,20
 1112 52 1112 52 1116 0 c 1,21,-1
 848 0 l 1,22,23
 842 72 842 72 839 126 c 128,-1,24
 836 180 836 180 836 215 c 1,25,-1
 831 215 l 1,0,1
EndSplineSet
EndChar

StartChar: v
Encoding: 118 118 89
Width: 1139
GlyphClass: 2
Flags: W
LayerCount: 2
Fore
SplineSet
1130 1082 m 1,0,-1
 731 0 l 1,1,-1
 395 0 l 1,2,-1
 8 1082 l 1,3,-1
 305 1082 l 1,4,-1
 494 477 l 2,5,6
 502 452 502 452 519.5 389.5 c 128,-1,7
 537 327 537 327 565 227 c 1,8,9
 569 241 569 241 581.5 283 c 128,-1,10
 594 325 594 325 609 375 c 128,-1,11
 624 425 624 425 635 459 c 2,12,-1
 836 1082 l 1,13,-1
 1130 1082 l 1,0,-1
EndSplineSet
EndChar

StartChar: w
Encoding: 119 119 90
Width: 1593
GlyphClass: 2
Flags: W
LayerCount: 2
Fore
SplineSet
745 658 m 2,0,-1
 571 0 l 1,1,-1
 274 0 l 1,2,-1
 -6 1082 l 1,3,-1
 258 1082 l 1,4,-1
 396 442 l 2,5,6
 406 396 406 396 416 349 c 128,-1,7
 426 302 426 302 436 255 c 1,8,9
 446 303 446 303 454 351 c 128,-1,10
 462 399 462 399 475 446 c 2,11,-1
 645 1082 l 1,12,-1
 946 1082 l 1,13,-1
 1112 446 l 2,14,15
 1119 420 1119 420 1129.5 372.5 c 128,-1,16
 1140 325 1140 325 1153 255 c 1,17,18
 1164 303 1164 303 1174.5 350.5 c 128,-1,19
 1185 398 1185 398 1195 446 c 2,20,-1
 1337 1082 l 1,21,-1
 1597 1082 l 1,22,-1
 1313 0 l 1,23,-1
 1016 0 l 1,24,-1
 844 660 l 2,25,26
 838 683 838 683 826 738.5 c 128,-1,27
 814 794 814 794 797 882 c 1,28,29
 784 826 784 826 772 770 c 128,-1,30
 760 714 760 714 745 658 c 2,0,-1
EndSplineSet
EndChar

StartChar: x
Encoding: 120 120 91
Width: 1139
GlyphClass: 2
Flags: W
LayerCount: 2
Fore
SplineSet
567 392 m 1,0,-1
 313 0 l 1,1,-1
 14 0 l 1,2,-1
 410 559 l 1,3,-1
 33 1082 l 1,4,-1
 336 1082 l 1,5,-1
 567 728 l 1,6,-1
 797 1082 l 1,7,-1
 1102 1082 l 1,8,-1
 725 562 l 1,9,-1
 1124 0 l 1,10,-1
 819 0 l 1,11,-1
 567 392 l 1,0,-1
EndSplineSet
EndChar

StartChar: y
Encoding: 121 121 92
Width: 1139
GlyphClass: 2
Flags: W
LayerCount: 2
Fore
SplineSet
283 -425 m 0,0,1
 180 -425 180 -425 106 -412 c 1,2,-1
 106 -212 l 1,3,4
 162 -220 162 -220 203 -220 c 0,5,6
 301 -220 301 -220 349.5 -167 c 128,-1,7
 398 -114 398 -114 444 11 c 1,8,-1
 16 1082 l 1,9,-1
 313 1082 l 1,10,-1
 483 575 l 2,11,12
 503 520 503 520 528 437 c 128,-1,13
 553 354 553 354 584 241 c 1,14,15
 607 333 607 333 628 411 c 128,-1,16
 649 489 649 489 674 571 c 2,17,-1
 834 1082 l 1,18,-1
 1128 1082 l 1,19,-1
 700 -57 l 2,20,21
 674 -126 674 -126 645 -179 c 128,-1,22
 616 -232 616 -232 586 -273 c 0,23,24
 525 -356 525 -356 453 -390.5 c 128,-1,25
 381 -425 381 -425 283 -425 c 0,0,1
EndSplineSet
EndChar

StartChar: z
Encoding: 122 122 93
Width: 1024
GlyphClass: 2
Flags: W
LayerCount: 2
Fore
SplineSet
950 205 m 1,0,-1
 950 0 l 1,1,-1
 82 0 l 1,2,-1
 82 199 l 1,3,-1
 591 879 l 1,4,-1
 123 879 l 1,5,-1
 123 1082 l 1,6,-1
 901 1082 l 1,7,-1
 901 881 l 1,8,-1
 395 205 l 1,9,-1
 950 205 l 1,0,-1
EndSplineSet
EndChar

StartChar: braceleft
Encoding: 123 123 94
Width: 797
GlyphClass: 2
Flags: W
LayerCount: 2
Fore
SplineSet
557 -425 m 2,0,1
 423 -425 423 -425 342.5 -346.5 c 128,-1,2
 262 -268 262 -268 262 -126 c 2,3,-1
 262 202 l 2,4,5
 262 316 262 316 207 372.5 c 128,-1,6
 152 429 152 429 33 431 c 1,7,-1
 33 626 l 1,8,9
 154 631 154 631 208 687.5 c 128,-1,10
 262 744 262 744 262 857 c 2,11,-1
 262 1185 l 2,12,13
 262 1331 262 1331 340.5 1407.5 c 128,-1,14
 419 1484 419 1484 557 1484 c 2,15,-1
 754 1484 l 1,16,-1
 754 1294 l 1,17,-1
 696 1294 l 2,18,19
 605 1294 605 1294 564.5 1242 c 128,-1,20
 524 1190 524 1190 524 1085 c 2,21,-1
 524 784 l 2,22,23
 524 689 524 689 466.5 620 c 128,-1,24
 409 551 409 551 317 532 c 1,25,-1
 317 528 l 1,26,27
 412 506 412 506 468 437.5 c 128,-1,28
 524 369 524 369 524 276 c 2,29,-1
 524 -25 l 2,30,31
 524 -131 524 -131 564.5 -182.5 c 128,-1,32
 605 -234 605 -234 696 -234 c 2,33,-1
 754 -234 l 1,34,-1
 754 -425 l 1,35,-1
 557 -425 l 2,0,1
EndSplineSet
EndChar

StartChar: bar
Encoding: 124 124 95
Width: 573
GlyphClass: 2
Flags: W
LayerCount: 2
Fore
SplineSet
418 1484 m 1,0,-1
 418 -455 l 1,1,-1
 156 -455 l 1,2,-1
 156 1484 l 1,3,-1
 418 1484 l 1,0,-1
EndSplineSet
EndChar

StartChar: braceright
Encoding: 125 125 96
Width: 797
GlyphClass: 2
Flags: W
LayerCount: 2
Fore
SplineSet
43 -234 m 1,0,-1
 100 -234 l 2,1,2
 193 -234 193 -234 232.5 -182.5 c 128,-1,3
 272 -131 272 -131 272 -25 c 2,4,-1
 272 276 l 2,5,6
 272 368 272 368 328.5 437 c 128,-1,7
 385 506 385 506 479 528 c 1,8,-1
 479 532 l 1,9,10
 388 551 388 551 330 619.5 c 128,-1,11
 272 688 272 688 272 784 c 2,12,-1
 272 1085 l 2,13,14
 272 1190 272 1190 232.5 1242 c 128,-1,15
 193 1294 193 1294 100 1294 c 2,16,-1
 43 1294 l 1,17,-1
 43 1484 l 1,18,-1
 240 1484 l 2,19,20
 378 1484 378 1484 456.5 1407.5 c 128,-1,21
 535 1331 535 1331 535 1185 c 2,22,-1
 535 857 l 2,23,24
 535 745 535 745 590 688 c 128,-1,25
 645 631 645 631 766 626 c 1,26,-1
 766 431 l 1,27,28
 645 429 645 429 590 371 c 128,-1,29
 535 313 535 313 535 202 c 2,30,-1
 535 -126 l 2,31,32
 535 -267 535 -267 455 -346 c 128,-1,33
 375 -425 375 -425 240 -425 c 2,34,-1
 43 -425 l 1,35,-1
 43 -234 l 1,0,-1
EndSplineSet
EndChar

StartChar: asciitilde
Encoding: 126 126 97
Width: 1196
GlyphClass: 2
Flags: W
LayerCount: 2
Fore
SplineSet
852 516 m 0,0,1
 777 516 777 516 704.5 537 c 128,-1,2
 632 558 632 558 557 584 c 0,3,4
 421 631 421 631 336 631 c 0,5,6
 265 631 265 631 205.5 609.5 c 128,-1,7
 146 588 146 588 81 543 c 1,8,-1
 81 756 l 1,9,10
 194 840 194 840 352 840 c 0,11,12
 456 840 456 840 594 793 c 0,13,14
 660 770 660 770 705.5 755.5 c 128,-1,15
 751 741 751 741 776 735 c 256,16,17
 801 729 801 729 825 726 c 128,-1,18
 849 723 849 723 871 723 c 0,19,20
 1004 723 1004 723 1119 815 c 1,21,-1
 1119 596 l 1,22,23
 1055 552 1055 552 996.5 534 c 128,-1,24
 938 516 938 516 852 516 c 0,0,1
EndSplineSet
EndChar

StartChar: exclamdown
Encoding: 161 161 99
Width: 682
GlyphClass: 2
Flags: W
LayerCount: 2
Fore
SplineSet
488 1082 m 1,0,-1
 488 812 l 1,1,-1
 200 812 l 1,2,-1
 200 1082 l 1,3,-1
 488 1082 l 1,0,-1
194 -327 m 1,4,-1
 226 654 l 1,5,-1
 456 654 l 1,6,-1
 488 -327 l 1,7,-1
 194 -327 l 1,4,-1
EndSplineSet
EndChar

StartChar: cent
Encoding: 162 162 100
Width: 1139
GlyphClass: 2
Flags: W
LayerCount: 2
Fore
SplineSet
588 340 m 0,0,1
 676 340 676 340 735.5 394.5 c 128,-1,2
 795 449 795 449 809 549 c 1,3,-1
 1092 537 l 1,4,5
 1070 384 1070 384 958 282.5 c 128,-1,6
 846 181 846 181 668 160 c 1,7,-1
 668 -31 l 1,8,-1
 506 -31 l 1,9,-1
 506 158 l 1,10,11
 291 179 291 179 171 315 c 128,-1,12
 51 451 51 451 51 686 c 0,13,14
 51 918 51 918 168.5 1059 c 128,-1,15
 286 1200 286 1200 506 1225 c 1,16,-1
 506 1409 l 1,17,-1
 668 1409 l 1,18,-1
 668 1225 l 1,19,20
 837 1206 837 1206 946 1112.5 c 128,-1,21
 1055 1019 1055 1019 1083 868 c 1,22,-1
 801 854 l 1,23,24
 786 945 786 945 730 994.5 c 128,-1,25
 674 1044 674 1044 586 1044 c 0,26,27
 462 1044 462 1044 398 952 c 128,-1,28
 334 860 334 860 334 696 c 0,29,30
 334 522 334 522 400.5 431 c 128,-1,31
 467 340 467 340 588 340 c 0,0,1
EndSplineSet
EndChar

StartChar: sterling
Encoding: 163 163 101
Width: 1139
GlyphClass: 2
Flags: W
LayerCount: 2
Fore
SplineSet
1066 0 m 1,0,-1
 32 0 l 1,1,-1
 32 205 l 1,2,3
 134 263 134 263 171.5 335 c 128,-1,4
 209 407 209 407 209 512 c 2,5,-1
 209 604 l 1,6,-1
 21 604 l 1,7,-1
 21 774 l 1,8,-1
 199 774 l 1,9,-1
 199 1022 l 2,10,11
 199 1223 199 1223 306 1326.5 c 128,-1,12
 413 1430 413 1430 625 1430 c 0,13,14
 794 1430 794 1430 891 1361 c 128,-1,15
 988 1292 988 1292 1032 1139 c 1,16,-1
 799 1092 l 1,17,18
 778 1169 778 1169 737 1204 c 128,-1,19
 696 1239 696 1239 630 1239 c 0,20,21
 539 1239 539 1239 499 1181.5 c 128,-1,22
 459 1124 459 1124 459 999 c 2,23,-1
 459 774 l 1,24,-1
 745 774 l 1,25,-1
 745 604 l 1,26,-1
 459 604 l 1,27,-1
 459 514 l 2,28,29
 459 411 459 411 418 338 c 128,-1,30
 377 265 377 265 277 209 c 1,31,-1
 1066 209 l 1,32,-1
 1066 0 l 1,0,-1
EndSplineSet
EndChar

StartChar: currency
Encoding: 164 164 102
Width: 1139
Flags: W
LayerCount: 2
Fore
SplineSet
134 684 m 256,0,1
 134 805 134 805 194 905 c 1,2,-1
 61 1038 l 1,3,-1
 218 1194 l 1,4,-1
 349 1061 l 1,5,6
 450 1120 450 1120 569 1120 c 0,7,8
 690 1120 690 1120 788 1061 c 1,9,-1
 923 1196 l 1,10,-1
 1081 1038 l 1,11,-1
 945 903 l 1,12,13
 1005 804 1005 804 1005 684 c 0,14,15
 1005 565 1005 565 947 467 c 1,16,-1
 1081 334 l 1,17,-1
 923 174 l 1,18,-1
 790 309 l 1,19,20
 689 250 689 250 569 250 c 0,21,22
 447 250 447 250 349 307 c 1,23,-1
 214 170 l 1,24,-1
 57 328 l 1,25,-1
 192 465 l 1,26,27
 134 563 134 563 134 684 c 256,0,1
360 686 m 0,28,29
 360 629 360 629 388 581.5 c 128,-1,30
 416 534 416 534 463.5 505.5 c 128,-1,31
 511 477 511 477 569 477 c 0,32,33
 626 477 626 477 673 505.5 c 128,-1,34
 720 534 720 534 748.5 582 c 128,-1,35
 777 630 777 630 777 686 c 0,36,37
 777 744 777 744 749 791 c 128,-1,38
 721 838 721 838 674 866.5 c 128,-1,39
 627 895 627 895 569 895 c 256,40,41
 511 895 511 895 464 867 c 128,-1,42
 417 839 417 839 388.5 791.5 c 128,-1,43
 360 744 360 744 360 686 c 0,28,29
EndSplineSet
EndChar

StartChar: yen
Encoding: 165 165 103
Width: 1139
GlyphClass: 2
Flags: W
LayerCount: 2
Fore
SplineSet
704 236 m 1,0,-1
 704 0 l 1,1,-1
 432 0 l 1,2,-1
 432 236 l 1,3,-1
 96 236 l 1,4,-1
 96 383 l 1,5,-1
 432 383 l 1,6,-1
 434 545 l 1,7,-1
 96 545 l 1,8,-1
 96 691 l 1,9,-1
 372 691 l 1,10,-1
 8 1409 l 1,11,-1
 297 1409 l 1,12,-1
 567 813 l 1,13,-1
 841 1409 l 1,14,-1
 1130 1409 l 1,15,-1
 766 691 l 1,16,-1
 1042 691 l 1,17,-1
 1042 545 l 1,18,-1
 704 545 l 1,19,-1
 704 383 l 1,20,-1
 1042 383 l 1,21,-1
 1042 236 l 1,22,-1
 704 236 l 1,0,-1
EndSplineSet
EndChar

StartChar: brokenbar
Encoding: 166 166 104
Width: 573
Flags: W
LayerCount: 2
Fore
SplineSet
418 1454 m 1,0,-1
 418 676 l 1,1,-1
 156 676 l 1,2,-1
 156 1454 l 1,3,-1
 418 1454 l 1,0,-1
418 324 m 1,4,-1
 418 -455 l 1,5,-1
 156 -455 l 1,6,-1
 156 324 l 1,7,-1
 418 324 l 1,4,-1
EndSplineSet
EndChar

StartChar: section
Encoding: 167 167 105
Width: 1139
GlyphClass: 2
Flags: W
LayerCount: 2
Fore
SplineSet
575 1427 m 0,0,1
 769 1427 769 1427 886.5 1356.5 c 128,-1,2
 1004 1286 1004 1286 1031 1153 c 1,3,-1
 792 1128 l 1,4,5
 779 1190 779 1190 722 1223.5 c 128,-1,6
 665 1257 665 1257 575 1257 c 0,7,8
 463 1257 463 1257 410.5 1227.5 c 128,-1,9
 358 1198 358 1198 358 1133 c 0,10,11
 358 1092 358 1092 385.5 1063.5 c 128,-1,12
 413 1035 413 1035 462 1014 c 0,13,14
 512 992 512 992 642 963 c 0,15,16
 806 926 806 926 891 884 c 0,17,18
 971 843 971 843 1013.5 782 c 128,-1,19
 1056 721 1056 721 1056 634 c 0,20,21
 1056 541 1056 541 1001 469.5 c 128,-1,22
 946 398 946 398 859 371 c 1,23,24
 950 331 950 331 995 267.5 c 128,-1,25
 1040 204 1040 204 1040 115 c 0,26,27
 1040 -52 1040 -52 914.5 -140.5 c 128,-1,28
 789 -229 789 -229 556 -229 c 0,29,30
 333 -229 333 -229 212.5 -159.5 c 128,-1,31
 92 -90 92 -90 53 59 c 1,32,-1
 290 96 l 1,33,34
 310 16 310 16 371.5 -21.5 c 128,-1,35
 433 -59 433 -59 556 -59 c 0,36,37
 678 -59 678 -59 741 -26.5 c 128,-1,38
 804 6 804 6 804 86 c 0,39,40
 804 134 804 134 780 164.5 c 128,-1,41
 756 195 756 195 705 217 c 0,42,43
 653 240 653 240 468 283 c 0,44,45
 262 332 262 332 176.5 410 c 128,-1,46
 91 488 91 488 91 600 c 0,47,48
 91 693 91 693 146 757 c 128,-1,49
 201 821 201 821 304 856 c 1,50,51
 214 894 214 894 165 962 c 128,-1,52
 116 1030 116 1030 116 1114 c 0,53,54
 116 1263 116 1263 233.5 1345 c 128,-1,55
 351 1427 351 1427 575 1427 c 0,0,1
818 600 m 0,56,57
 818 671 818 671 759 709 c 0,58,59
 698 747 698 747 526 780 c 1,60,61
 429 769 429 769 381 730.5 c 128,-1,62
 333 692 333 692 333 627 c 0,63,64
 333 586 333 586 360 558.5 c 128,-1,65
 387 531 387 531 437 510 c 0,66,67
 484 490 484 490 623 458 c 1,68,69
 721 463 721 463 769.5 498.5 c 128,-1,70
 818 534 818 534 818 600 c 0,56,57
EndSplineSet
EndChar

StartChar: dieresis
Encoding: 168 168 106
Width: 682
GlyphClass: 2
Flags: W
LayerCount: 2
Fore
SplineSet
667 1418 m 1,0,-1
 667 1199 l 1,1,-1
 450 1199 l 1,2,-1
 450 1418 l 1,3,-1
 667 1418 l 1,0,-1
230 1418 m 1,4,-1
 230 1199 l 1,5,-1
 16 1199 l 1,6,-1
 16 1418 l 1,7,-1
 230 1418 l 1,4,-1
EndSplineSet
EndChar

StartChar: copyright
Encoding: 169 169 107
Width: 1509
GlyphClass: 2
Flags: W
LayerCount: 2
Fore
SplineSet
1478 707 m 0,0,1
 1478 514 1478 514 1382 346 c 0,2,3
 1285 177 1285 177 1116.5 80.5 c 128,-1,4
 948 -16 948 -16 755 -16 c 0,5,6
 559 -16 559 -16 389 85 c 0,7,8
 220 186 220 186 126 352 c 128,-1,9
 32 518 32 518 32 707 c 0,10,11
 32 901 32 901 129 1068 c 0,12,13
 226 1236 226 1236 394 1333 c 128,-1,14
 562 1430 562 1430 755 1430 c 0,15,16
 949 1430 949 1430 1118 1333 c 0,17,18
 1286 1236 1286 1236 1382 1068.5 c 128,-1,19
 1478 901 1478 901 1478 707 c 0,0,1
1366 707 m 0,20,21
 1366 871 1366 871 1284 1011 c 256,22,23
 1202 1151 1202 1151 1060 1233 c 128,-1,24
 918 1315 918 1315 755 1315 c 0,25,26
 598 1315 598 1315 458 1237 c 256,27,28
 318 1159 318 1159 232.5 1017.5 c 128,-1,29
 147 876 147 876 147 707 c 0,30,31
 147 544 147 544 229 402 c 0,32,33
 310 260 310 260 450.5 178 c 128,-1,34
 591 96 591 96 755 96 c 256,35,36
 919 96 919 96 1061 178 c 256,37,38
 1203 260 1203 260 1284.5 402 c 128,-1,39
 1366 544 1366 544 1366 707 c 0,20,21
544 709 m 0,40,41
 544 574 544 574 603 500 c 128,-1,42
 662 426 662 426 768 426 c 0,43,44
 906 426 906 426 964 569 c 1,45,-1
 1124 522 l 1,46,47
 1066 397 1066 397 979 341 c 128,-1,48
 892 285 892 285 768 285 c 0,49,50
 575 285 575 285 469.5 396 c 128,-1,51
 364 507 364 507 364 709 c 0,52,53
 364 912 364 912 466 1018 c 128,-1,54
 568 1124 568 1124 759 1124 c 0,55,56
 1018 1124 1018 1124 1112 895 c 1,57,-1
 956 854 l 1,58,59
 930 915 930 915 881.5 949 c 128,-1,60
 833 983 833 983 764 983 c 0,61,62
 655 983 655 983 599.5 913 c 128,-1,63
 544 843 544 843 544 709 c 0,40,41
EndSplineSet
EndChar

StartChar: ordfeminine
Encoding: 170 170 108
Width: 758
GlyphClass: 2
Flags: W
LayerCount: 2
Fore
SplineSet
257 725 m 0,0,1
 160 725 160 725 102.5 777.5 c 128,-1,2
 45 830 45 830 45 927 c 0,3,4
 45 1133 45 1133 329 1138 c 2,5,-1
 476 1140 l 1,6,-1
 476 1182 l 2,7,8
 476 1241 476 1241 450 1271 c 128,-1,9
 424 1301 424 1301 372 1301 c 0,10,11
 321 1301 321 1301 293 1277.5 c 128,-1,12
 265 1254 265 1254 260 1207 c 1,13,-1
 70 1216 l 1,14,15
 88 1314 88 1314 166.5 1366.5 c 128,-1,16
 245 1419 245 1419 371 1419 c 0,17,18
 509 1419 509 1419 583.5 1358 c 128,-1,19
 658 1297 658 1297 658 1184 c 2,20,-1
 658 947 l 2,21,22
 658 899 658 899 667 874 c 128,-1,23
 676 849 676 849 709 850 c 0,24,25
 721 851 721 851 733.5 852.5 c 128,-1,26
 746 854 746 854 758 855 c 1,27,-1
 758 746 l 1,28,29
 694 728 694 728 639 728 c 0,30,31
 568 728 568 728 527.5 764.5 c 128,-1,32
 487 801 487 801 482 862 c 1,33,-1
 479 862 l 1,34,35
 407 725 407 725 257 725 c 0,0,1
328 856 m 0,36,37
 389 856 389 856 432.5 904 c 128,-1,38
 476 952 476 952 476 1017 c 2,39,-1
 476 1044 l 1,40,-1
 384 1042 l 2,41,42
 296 1039 296 1039 265 1015 c 128,-1,43
 234 991 234 991 234 941 c 0,44,45
 234 856 234 856 328 856 c 0,36,37
EndSplineSet
EndChar

StartChar: guillemotleft
Encoding: 171 171 109
Width: 1139
GlyphClass: 2
Flags: W
LayerCount: 2
Fore
SplineSet
1047 176 m 1,0,-1
 1047 141 l 1,1,-1
 807 141 l 1,2,-1
 551 502 l 1,3,-1
 551 573 l 1,4,-1
 807 940 l 1,5,-1
 1045 940 l 1,6,-1
 1045 903 l 1,7,-1
 791 537 l 1,8,-1
 1047 176 l 1,0,-1
588 176 m 1,9,-1
 588 141 l 1,10,-1
 350 141 l 1,11,-1
 92 502 l 1,12,-1
 92 573 l 1,13,-1
 350 940 l 1,14,-1
 586 940 l 1,15,-1
 586 903 l 1,16,-1
 332 537 l 1,17,-1
 588 176 l 1,9,-1
EndSplineSet
EndChar

StartChar: logicalnot
Encoding: 172 172 110
Width: 1196
GlyphClass: 2
Flags: W
LayerCount: 2
Fore
SplineSet
1111 793 m 1,0,-1
 1111 141 l 1,1,-1
 887 141 l 1,2,-1
 887 569 l 1,3,-1
 84 569 l 1,4,-1
 84 793 l 1,5,-1
 1111 793 l 1,0,-1
EndSplineSet
EndChar

StartChar: registered
Encoding: 174 174 111
Width: 1509
GlyphClass: 2
Flags: W
LayerCount: 2
Fore
SplineSet
1478 707 m 0,0,1
 1478 514 1478 514 1382 346 c 0,2,3
 1285 177 1285 177 1116.5 80.5 c 128,-1,4
 948 -16 948 -16 755 -16 c 0,5,6
 559 -16 559 -16 389 85 c 0,7,8
 220 186 220 186 126 352 c 128,-1,9
 32 518 32 518 32 707 c 0,10,11
 32 901 32 901 129 1068 c 0,12,13
 226 1236 226 1236 394 1333 c 128,-1,14
 562 1430 562 1430 755 1430 c 0,15,16
 949 1430 949 1430 1118 1333 c 0,17,18
 1286 1236 1286 1236 1382 1068.5 c 128,-1,19
 1478 901 1478 901 1478 707 c 0,0,1
1366 707 m 0,20,21
 1366 871 1366 871 1284 1011 c 256,22,23
 1202 1151 1202 1151 1060 1233 c 128,-1,24
 918 1315 918 1315 755 1315 c 0,25,26
 598 1315 598 1315 458 1237 c 256,27,28
 318 1159 318 1159 232.5 1017.5 c 128,-1,29
 147 876 147 876 147 707 c 0,30,31
 147 544 147 544 229 402 c 0,32,33
 310 260 310 260 450.5 178 c 128,-1,34
 591 96 591 96 755 96 c 256,35,36
 919 96 919 96 1061 178 c 256,37,38
 1203 260 1203 260 1284.5 402 c 128,-1,39
 1366 544 1366 544 1366 707 c 0,20,21
628 610 m 1,40,-1
 628 297 l 1,41,-1
 450 297 l 1,42,-1
 450 1112 l 1,43,-1
 780 1112 l 2,44,45
 933 1112 933 1112 1009 1047.5 c 128,-1,46
 1085 983 1085 983 1085 870 c 0,47,48
 1085 776 1085 776 1037 717 c 128,-1,49
 989 658 989 658 911 633 c 1,50,-1
 1124 297 l 1,51,-1
 923 297 l 1,52,-1
 745 610 l 1,53,-1
 628 610 l 1,40,-1
905 868 m 0,54,55
 905 925 905 925 867.5 955 c 128,-1,56
 830 985 830 985 761 985 c 2,57,-1
 628 985 l 1,58,-1
 628 739 l 1,59,-1
 772 739 l 2,60,61
 838 739 838 739 871.5 774.5 c 128,-1,62
 905 810 905 810 905 868 c 0,54,55
EndSplineSet
EndChar

StartChar: macron
Encoding: 175 175 112
Width: 1131
Flags: W
LayerCount: 2
Fore
SplineSet
1148 1546 m 1,0,-1
 1148 1452 l 1,1,-1
 -17 1452 l 1,2,-1
 -17 1546 l 1,3,-1
 1148 1546 l 1,0,-1
EndSplineSet
EndChar

StartChar: degree
Encoding: 176 176 113
Width: 819
GlyphClass: 2
Flags: W
LayerCount: 2
Fore
SplineSet
731 1113 m 0,0,1
 731 1027 731 1027 688 954.5 c 128,-1,2
 645 882 645 882 572.5 838.5 c 128,-1,3
 500 795 500 795 410 795 c 0,4,5
 322 795 322 795 249.5 837 c 128,-1,6
 177 879 177 879 133.5 950.5 c 128,-1,7
 90 1022 90 1022 90 1110 c 0,8,9
 90 1197 90 1197 133 1268.5 c 128,-1,10
 176 1340 176 1340 249 1382.5 c 128,-1,11
 322 1425 322 1425 410 1425 c 0,12,13
 500 1425 500 1425 572.5 1383 c 128,-1,14
 645 1341 645 1341 688 1270.5 c 128,-1,15
 731 1200 731 1200 731 1113 c 0,0,1
573 1110 m 256,16,17
 573 1180 573 1180 526.5 1228 c 128,-1,18
 480 1276 480 1276 410 1276 c 0,19,20
 339 1276 339 1276 291.5 1227.5 c 128,-1,21
 244 1179 244 1179 244 1110 c 256,22,23
 244 1041 244 1041 293 991.5 c 128,-1,24
 342 942 342 942 410 942 c 0,25,26
 477 942 477 942 525 991 c 128,-1,27
 573 1040 573 1040 573 1110 c 256,16,17
EndSplineSet
EndChar

StartChar: plusminus
Encoding: 177 177 114
Width: 1124
GlyphClass: 2
Flags: W
LayerCount: 2
Fore
SplineSet
674 707 m 1,0,-1
 674 366 l 1,1,-1
 450 366 l 1,2,-1
 450 707 l 1,3,-1
 49 707 l 1,4,-1
 49 930 l 1,5,-1
 450 930 l 1,6,-1
 450 1270 l 1,7,-1
 674 1270 l 1,8,-1
 674 930 l 1,9,-1
 1076 930 l 1,10,-1
 1076 707 l 1,11,-1
 674 707 l 1,0,-1
1076 223 m 1,12,-1
 1076 0 l 1,13,-1
 49 0 l 1,14,-1
 49 223 l 1,15,-1
 1076 223 l 1,12,-1
EndSplineSet
EndChar

StartChar: uni00B2
Encoding: 178 178 115
Width: 682
Flags: W
LayerCount: 2
Fore
SplineSet
639 832 m 1,0,-1
 639 694 l 1,1,-1
 53 694 l 1,2,-1
 51 815 l 1,3,4
 80 876 80 876 133 928.5 c 128,-1,5
 186 981 186 981 277 1040 c 0,6,7
 363 1096 363 1096 395.5 1132 c 128,-1,8
 428 1168 428 1168 428 1208 c 0,9,10
 428 1254 428 1254 408 1276.5 c 128,-1,11
 388 1299 388 1299 347 1299 c 0,12,13
 304 1299 304 1299 280.5 1274.5 c 128,-1,14
 257 1250 257 1250 252 1201 c 1,15,-1
 58 1206 l 1,16,17
 71 1305 71 1305 147 1365.5 c 128,-1,18
 223 1426 223 1426 347 1426 c 0,19,20
 478 1426 478 1426 552 1370.5 c 128,-1,21
 626 1315 626 1315 626 1216 c 0,22,23
 626 1091 626 1091 473 993 c 0,24,25
 421 960 421 960 386 936 c 128,-1,26
 351 912 351 912 332 896 c 0,27,28
 293 865 293 865 277 832 c 1,29,-1
 639 832 l 1,0,-1
EndSplineSet
EndChar

StartChar: uni00B3
Encoding: 179 179 116
Width: 682
Flags: W
LayerCount: 2
Fore
SplineSet
638 895 m 0,0,1
 638 796 638 796 563 740 c 128,-1,2
 488 684 488 684 350 684 c 0,3,4
 215 684 215 684 136 736 c 128,-1,5
 57 788 57 788 44 892 c 1,6,-1
 233 904 l 1,7,8
 244 811 244 811 347 811 c 0,9,10
 449 811 449 811 449 907 c 0,11,12
 449 1000 449 1000 310 1000 c 2,13,-1
 254 1000 l 1,14,-1
 254 1126 l 1,15,-1
 305 1126 l 2,16,17
 368 1126 368 1126 400 1149.5 c 128,-1,18
 432 1173 432 1173 432 1216 c 0,19,20
 432 1255 432 1255 409 1277 c 128,-1,21
 386 1299 386 1299 343 1299 c 0,22,23
 299 1299 299 1299 274.5 1276.5 c 128,-1,24
 250 1254 250 1254 245 1210 c 1,25,-1
 59 1222 l 1,26,27
 70 1316 70 1316 146.5 1371 c 128,-1,28
 223 1426 223 1426 348 1426 c 0,29,30
 476 1426 476 1426 547.5 1374.5 c 128,-1,31
 619 1323 619 1323 619 1238 c 0,32,33
 619 1174 619 1174 582.5 1128.5 c 128,-1,34
 546 1083 546 1083 467 1067 c 1,35,-1
 467 1065 l 1,36,37
 550 1056 550 1056 594 1010 c 128,-1,38
 638 964 638 964 638 895 c 0,0,1
EndSplineSet
EndChar

StartChar: acute
Encoding: 180 180 117
Width: 682
GlyphClass: 2
Flags: W
LayerCount: 2
Fore
SplineSet
597 1459 m 1,0,-1
 257 1183 l 1,1,-1
 87 1183 l 1,2,-1
 87 1214 l 1,3,-1
 339 1502 l 1,4,-1
 597 1502 l 1,5,-1
 597 1459 l 1,0,-1
EndSplineSet
EndChar

StartChar: mu
Encoding: 181 181 118
Width: 1229
GlyphClass: 2
Flags: W
LayerCount: 2
Fore
SplineSet
134 -426 m 1,0,-1
 134 1082 l 1,1,-1
 415 1082 l 1,2,-1
 415 477 l 2,3,4
 415 327 415 327 457.5 260 c 128,-1,5
 500 193 500 193 590 193 c 0,6,7
 679 193 679 193 723.5 269 c 128,-1,8
 768 345 768 345 768 504 c 2,9,-1
 768 1082 l 1,10,-1
 1049 1082 l 1,11,-1
 1047 320 l 2,12,13
 1047 229 1047 229 1067.5 194.5 c 128,-1,14
 1088 160 1088 160 1136 160 c 0,15,16
 1168 160 1168 160 1198 166 c 1,17,-1
 1198 14 l 1,18,19
 1146 1 1146 1 1109 -5.5 c 128,-1,20
 1072 -12 1072 -12 1018 -12 c 0,21,22
 912 -12 912 -12 861.5 32.5 c 128,-1,23
 811 77 811 77 801 178 c 1,24,-1
 795 178 l 1,25,26
 762 66 762 66 706 23 c 128,-1,27
 650 -20 650 -20 571 -20 c 0,28,29
 519 -20 519 -20 478.5 4 c 128,-1,30
 438 28 438 28 415 70 c 1,31,-1
 415 -426 l 1,32,-1
 134 -426 l 1,0,-1
EndSplineSet
EndChar

StartChar: paragraph
Encoding: 182 182 119
Width: 1139
GlyphClass: 2
Flags: W
LayerCount: 2
Fore
SplineSet
589 1266 m 1,0,-1
 589 -264 l 1,1,-1
 434 -264 l 1,2,-1
 434 694 l 1,3,4
 265 694 265 694 168 786.5 c 128,-1,5
 71 879 71 879 71 1049 c 0,6,7
 71 1218 71 1218 169.5 1313.5 c 128,-1,8
 268 1409 268 1409 442 1409 c 2,9,-1
 1071 1409 l 1,10,-1
 1071 1266 l 1,11,-1
 940 1266 l 1,12,-1
 940 -264 l 1,13,-1
 784 -264 l 1,14,-1
 784 1266 l 1,15,-1
 589 1266 l 1,0,-1
EndSplineSet
EndChar

StartChar: periodcentered
Encoding: 183 183 120
Width: 682
Flags: W
LayerCount: 2
Fore
SplineSet
429 836 m 1,0,-1
 429 531 l 1,1,-1
 141 531 l 1,2,-1
 141 836 l 1,3,-1
 429 836 l 1,0,-1
EndSplineSet
EndChar

StartChar: cedilla
Encoding: 184 184 121
Width: 682
Flags: W
LayerCount: 2
Fore
SplineSet
500 -235 m 0,0,1
 500 -329 500 -329 422 -377 c 128,-1,2
 344 -425 344 -425 197 -425 c 0,3,4
 152 -425 152 -425 96 -419 c 1,5,-1
 96 -301 l 1,6,7
 128 -308 128 -308 180 -308 c 0,8,9
 317 -308 317 -308 317 -239 c 0,10,11
 317 -204 317 -204 289 -187 c 128,-1,12
 261 -170 261 -170 195 -170 c 0,13,14
 176 -170 176 -170 163 -170.5 c 128,-1,15
 150 -171 150 -171 143 -172 c 1,16,-1
 205 0 l 1,17,-1
 348 0 l 1,18,-1
 315 -82 l 1,19,20
 409 -87 409 -87 454.5 -128 c 128,-1,21
 500 -169 500 -169 500 -235 c 0,0,1
EndSplineSet
EndChar

StartChar: uni00B9
Encoding: 185 185 122
Width: 682
Flags: W
LayerCount: 2
Fore
SplineSet
618 815 m 1,0,-1
 618 694 l 1,1,-1
 82 694 l 1,2,-1
 82 815 l 1,3,-1
 266 815 l 1,4,-1
 266 1283 l 1,5,-1
 93 1175 l 1,6,-1
 93 1297 l 1,7,-1
 273 1414 l 1,8,-1
 448 1414 l 1,9,-1
 448 815 l 1,10,-1
 618 815 l 1,0,-1
EndSplineSet
EndChar

StartChar: ordmasculine
Encoding: 186 186 123
Width: 748
GlyphClass: 2
Flags: W
LayerCount: 2
Fore
SplineSet
713 1073 m 0,0,1
 713 911 713 911 623.5 818 c 128,-1,2
 534 725 534 725 375 725 c 0,3,4
 223 725 223 725 134 817 c 128,-1,5
 45 909 45 909 45 1073 c 0,6,7
 45 1235 45 1235 133 1327 c 128,-1,8
 221 1419 221 1419 379 1419 c 0,9,10
 539 1419 539 1419 626 1330 c 128,-1,11
 713 1241 713 1241 713 1073 c 0,0,1
513 1073 m 0,12,13
 513 1179 513 1179 483.5 1227.5 c 128,-1,14
 454 1276 454 1276 381 1276 c 256,15,16
 308 1276 308 1276 275.5 1226.5 c 128,-1,17
 243 1177 243 1177 243 1073 c 0,18,19
 243 967 243 967 275 916 c 128,-1,20
 307 865 307 865 374 865 c 0,21,22
 449 865 449 865 481 915.5 c 128,-1,23
 513 966 513 966 513 1073 c 0,12,13
EndSplineSet
EndChar

StartChar: guillemotright
Encoding: 187 187 124
Width: 1139
GlyphClass: 2
Flags: W
LayerCount: 2
Fore
SplineSet
790 141 m 1,0,-1
 552 141 l 1,1,-1
 552 176 l 1,2,-1
 808 537 l 1,3,-1
 554 903 l 1,4,-1
 554 940 l 1,5,-1
 790 940 l 1,6,-1
 1048 573 l 1,7,-1
 1048 502 l 1,8,-1
 790 141 l 1,0,-1
333 141 m 1,9,-1
 93 141 l 1,10,-1
 93 176 l 1,11,-1
 349 537 l 1,12,-1
 95 903 l 1,13,-1
 95 940 l 1,14,-1
 333 940 l 1,15,-1
 589 573 l 1,16,-1
 589 502 l 1,17,-1
 333 141 l 1,9,-1
EndSplineSet
EndChar

StartChar: questiondown
Encoding: 191 191 128
Width: 1251
GlyphClass: 2
Flags: W
LayerCount: 2
Fore
SplineSet
809 1082 m 1,0,-1
 809 812 l 1,1,-1
 520 812 l 1,2,-1
 520 1082 l 1,3,-1
 809 1082 l 1,0,-1
114 56 m 0,4,5
 114 153 114 153 157.5 230 c 128,-1,6
 201 307 201 307 320 392 c 2,7,-1
 397 447 l 2,8,9
 528 543 528 543 534 656 c 1,10,-1
 801 656 l 1,11,12
 797 588 797 588 772.5 530 c 128,-1,13
 748 472 748 472 703 421.5 c 128,-1,14
 658 371 658 371 592 325 c 0,15,16
 521 275 521 275 478 234.5 c 128,-1,17
 435 194 435 194 416 154.5 c 128,-1,18
 397 115 397 115 397 68 c 0,19,20
 397 -20 397 -20 454.5 -71 c 128,-1,21
 512 -122 512 -122 618 -122 c 0,22,23
 719 -122 719 -122 787.5 -63 c 128,-1,24
 856 -4 856 -4 868 93 c 1,25,-1
 1153 81 l 1,26,27
 1126 -122 1126 -122 986 -235 c 128,-1,28
 846 -348 846 -348 622 -348 c 0,29,30
 385 -348 385 -348 249.5 -240.5 c 128,-1,31
 114 -133 114 -133 114 56 c 0,4,5
EndSplineSet
EndChar

StartChar: AE
Encoding: 198 198 135
Width: 2048
GlyphClass: 2
Flags: W
LayerCount: 2
Fore
SplineSet
481 360 m 1,0,-1
 309 0 l 1,1,-1
 4 0 l 1,2,-1
 704 1409 l 1,3,-1
 1927 1409 l 1,4,-1
 1927 1182 l 1,5,-1
 1226 1182 l 1,6,-1
 1226 827 l 1,7,-1
 1865 827 l 1,8,-1
 1865 606 l 1,9,-1
 1226 606 l 1,10,-1
 1226 227 l 1,11,-1
 1968 227 l 1,12,-1
 1968 0 l 1,13,-1
 931 0 l 1,14,-1
 931 360 l 1,15,-1
 481 360 l 1,0,-1
583 582 m 1,16,-1
 931 582 l 1,17,-1
 931 1192 l 1,18,-1
 870 1192 l 1,19,-1
 583 582 l 1,16,-1
EndSplineSet
EndChar

StartChar: Eth
Encoding: 208 208 145
Width: 1479
Flags: W
LayerCount: 2
Fore
SplineSet
1393 715 m 0,0,1
 1393 490 1393 490 1305.5 330 c 128,-1,2
 1218 170 1218 170 1063.5 85 c 128,-1,3
 909 0 909 0 707 0 c 2,4,-1
 137 0 l 1,5,-1
 137 594 l 1,6,-1
 8 594 l 1,7,-1
 8 813 l 1,8,-1
 137 813 l 1,9,-1
 137 1409 l 1,10,-1
 647 1409 l 2,11,12
 1003 1409 1003 1409 1198 1229.5 c 128,-1,13
 1393 1050 1393 1050 1393 715 c 0,0,1
1096 715 m 0,14,15
 1096 940 1096 940 979 1059 c 128,-1,16
 862 1178 862 1178 641 1178 c 2,17,-1
 432 1178 l 1,18,-1
 432 813 l 1,19,-1
 788 813 l 1,20,-1
 788 594 l 1,21,-1
 432 594 l 1,22,-1
 432 231 l 1,23,-1
 682 231 l 2,24,25
 810 231 810 231 902.5 289.5 c 128,-1,26
 995 348 995 348 1045.5 456.5 c 128,-1,27
 1096 565 1096 565 1096 715 c 0,14,15
EndSplineSet
EndChar

StartChar: multiply
Encoding: 215 215 152
Width: 1196
Flags: W
LayerCount: 2
Fore
SplineSet
600 526 m 1,0,-1
 244 168 l 1,1,-1
 86 326 l 1,2,-1
 442 684 l 1,3,-1
 90 1036 l 1,4,-1
 248 1192 l 1,5,-1
 600 842 l 1,6,-1
 952 1194 l 1,7,-1
 1110 1036 l 1,8,-1
 758 682 l 1,9,-1
 1110 332 l 1,10,-1
 952 172 l 1,11,-1
 600 526 l 1,0,-1
EndSplineSet
EndChar

StartChar: Oslash
Encoding: 216 216 153
Width: 1593
GlyphClass: 2
Flags: W
LayerCount: 2
Fore
SplineSet
1508 711 m 0,0,1
 1508 490 1508 490 1420 325.5 c 128,-1,2
 1332 161 1332 161 1171.5 70.5 c 128,-1,3
 1011 -20 1011 -20 793 -20 c 0,4,5
 582 -20 582 -20 433 57 c 1,6,-1
 342 -72 l 1,7,-1
 147 -73 l 1,8,-1
 301 145 l 1,9,10
 84 341 84 341 84 711 c 0,11,12
 84 937 84 937 168.5 1098 c 128,-1,13
 253 1259 253 1259 412.5 1344.5 c 128,-1,14
 572 1430 572 1430 795 1430 c 0,15,16
 992 1430 992 1430 1149 1356 c 1,17,-1
 1231 1473 l 1,18,-1
 1424 1473 l 1,19,-1
 1282 1270 l 1,20,21
 1394 1176 1394 1176 1451 1033.5 c 128,-1,22
 1508 891 1508 891 1508 711 c 0,0,1
381 711 m 0,23,24
 381 507 381 507 465 379 c 1,25,-1
 1004 1147 l 1,26,27
 913 1198 913 1198 795 1198 c 0,28,29
 597 1198 597 1198 489 1069.5 c 128,-1,30
 381 941 381 941 381 711 c 0,23,24
1207 711 m 0,31,32
 1207 913 1207 913 1121 1038 c 1,33,-1
 580 266 l 1,34,35
 671 211 671 211 793 211 c 0,36,37
 992 211 992 211 1099.5 341.5 c 128,-1,38
 1207 472 1207 472 1207 711 c 0,31,32
EndSplineSet
EndChar

StartChar: Thorn
Encoding: 222 222 159
Width: 1366
Flags: W
LayerCount: 2
Fore
SplineSet
1296 737 m 0,0,1
 1296 604 1296 604 1234 501.5 c 128,-1,2
 1172 399 1172 399 1057 341 c 128,-1,3
 942 283 942 283 782 283 c 2,4,-1
 432 283 l 1,5,-1
 432 0 l 1,6,-1
 137 0 l 1,7,-1
 137 1409 l 1,8,-1
 432 1409 l 1,9,-1
 432 1176 l 1,10,-1
 770 1176 l 2,11,12
 1024 1176 1024 1176 1160 1062.5 c 128,-1,13
 1296 949 1296 949 1296 737 c 0,0,1
999 733 m 0,14,15
 999 843 999 843 933.5 905 c 128,-1,16
 868 967 868 967 737 967 c 2,17,-1
 432 967 l 1,18,-1
 432 492 l 1,19,-1
 745 492 l 2,20,21
 866 492 866 492 932.5 555.5 c 128,-1,22
 999 619 999 619 999 733 c 0,14,15
EndSplineSet
EndChar

StartChar: germandbls
Encoding: 223 223 160
Width: 1251
GlyphClass: 2
Flags: W
LayerCount: 2
Fore
SplineSet
1193 312 m 0,0,1
 1193 150 1193 150 1092.5 65 c 128,-1,2
 992 -20 992 -20 806 -20 c 0,3,4
 658 -20 658 -20 544 23 c 1,5,-1
 544 229 l 1,6,7
 594 206 594 206 661.5 188 c 128,-1,8
 729 170 729 170 776 170 c 0,9,10
 857 170 857 170 894 204.5 c 128,-1,11
 931 239 931 239 931 296 c 0,12,13
 931 348 931 348 893 392.5 c 128,-1,14
 855 437 855 437 762 498 c 0,15,16
 677 553 677 553 635 618.5 c 128,-1,17
 593 684 593 684 593 760 c 0,18,19
 593 814 593 814 620.5 861 c 128,-1,20
 648 908 648 908 705 958 c 0,21,22
 766 1012 766 1012 791 1052.5 c 128,-1,23
 816 1093 816 1093 816 1138 c 0,24,25
 816 1203 816 1203 769.5 1242 c 128,-1,26
 723 1281 723 1281 635 1281 c 0,27,28
 532 1281 532 1281 478 1217.5 c 128,-1,29
 424 1154 424 1154 424 1013 c 2,30,-1
 424 0 l 1,31,-1
 143 0 l 1,32,-1
 143 1007 l 2,33,34
 143 1241 143 1241 270.5 1362.5 c 128,-1,35
 398 1484 398 1484 638 1484 c 0,36,37
 844 1484 844 1484 963 1394 c 128,-1,38
 1082 1304 1082 1304 1082 1149 c 0,39,40
 1082 1067 1082 1067 1048 1011.5 c 128,-1,41
 1014 956 1014 956 970 915 c 0,42,43
 946 893 946 893 919.5 870 c 128,-1,44
 893 847 893 847 875 824.5 c 128,-1,45
 857 802 857 802 857 782 c 0,46,47
 857 766 857 766 863 752.5 c 128,-1,48
 869 739 869 739 904 710.5 c 128,-1,49
 939 682 939 682 1025 618 c 0,50,51
 1193 494 1193 494 1193 312 c 0,0,1
EndSplineSet
EndChar

StartChar: ae
Encoding: 230 230 167
Width: 1821
GlyphClass: 2
Flags: W
LayerCount: 2
Fore
SplineSet
1720 274 m 1,0,1
 1605 -20 1605 -20 1253 -20 c 0,2,3
 943 -20 943 -20 819 209 c 1,4,5
 752 94 752 94 649 37 c 128,-1,6
 546 -20 546 -20 406 -20 c 0,7,8
 245 -20 245 -20 155.5 66 c 128,-1,9
 66 152 66 152 66 306 c 0,10,11
 66 641 66 641 506 652 c 2,12,-1
 746 656 l 1,13,-1
 746 711 l 2,14,15
 746 819 746 819 706 869.5 c 128,-1,16
 666 920 666 920 578 920 c 0,17,18
 493 920 493 920 455 883 c 128,-1,19
 417 846 417 846 408 767 c 1,20,-1
 115 781 l 1,21,22
 141 938 141 938 259.5 1020 c 128,-1,23
 378 1102 378 1102 586 1102 c 0,24,25
 803 1102 803 1102 919 995 c 1,26,27
 1050 1102 1050 1102 1257 1102 c 0,28,29
 1490 1102 1490 1102 1613 947.5 c 128,-1,30
 1736 793 1736 793 1736 495 c 2,31,-1
 1736 476 l 1,32,-1
 1042 476 l 1,33,34
 1042 330 1042 330 1101 249 c 128,-1,35
 1160 168 1160 168 1267 168 c 0,36,37
 1341 168 1341 168 1388.5 200.5 c 128,-1,38
 1436 233 1436 233 1455 297 c 1,39,-1
 1720 274 l 1,0,1
1464 663 m 1,40,41
 1456 794 1456 794 1401 859.5 c 128,-1,42
 1346 925 1346 925 1253 925 c 0,43,44
 1154 925 1154 925 1100.5 856 c 128,-1,45
 1047 787 1047 787 1044 663 c 1,46,-1
 1464 663 l 1,40,41
359 328 m 0,47,48
 359 251 359 251 396.5 213.5 c 128,-1,49
 434 176 434 176 496 176 c 0,50,51
 565 176 565 176 623 215 c 256,52,53
 681 254 681 254 713.5 319 c 128,-1,54
 746 384 746 384 746 456 c 2,55,-1
 746 501 l 1,56,-1
 594 499 l 2,57,58
 491 495 491 495 447 478 c 0,59,60
 404 460 404 460 381.5 424 c 128,-1,61
 359 388 359 388 359 328 c 0,47,48
EndSplineSet
EndChar

StartChar: eth
Encoding: 240 240 177
Width: 1251
Flags: W
LayerCount: 2
Fore
SplineSet
623 -18 m 0,0,1
 372 -18 372 -18 226 115 c 128,-1,2
 80 248 80 248 80 479 c 0,3,4
 80 711 80 711 224.5 842 c 128,-1,5
 369 973 369 973 627 973 c 0,6,7
 731 973 731 973 790 941 c 1,8,9
 726 1076 726 1076 640 1176 c 1,10,-1
 348 1054 l 1,11,-1
 348 1238 l 1,12,-1
 514 1308 l 1,13,14
 470 1343 470 1343 405.5 1387.5 c 128,-1,15
 341 1432 341 1432 256 1484 c 1,16,-1
 549 1484 l 1,17,18
 646 1436 646 1436 709 1390 c 1,19,-1
 977 1503 l 1,20,-1
 977 1315 l 1,21,-1
 856 1266 l 1,22,23
 1014 1106 1014 1106 1092.5 925 c 128,-1,24
 1171 744 1171 744 1171 541 c 0,25,26
 1171 277 1171 277 1026.5 129.5 c 128,-1,27
 882 -18 882 -18 623 -18 c 0,0,1
877 477 m 0,28,29
 877 637 877 637 814 708.5 c 128,-1,30
 751 780 751 780 631 780 c 0,31,32
 503 780 503 780 439 704.5 c 128,-1,33
 375 629 375 629 375 477 c 0,34,35
 375 329 375 329 437 250.5 c 128,-1,36
 499 172 499 172 618 172 c 0,37,38
 743 172 743 172 810 244 c 128,-1,39
 877 316 877 316 877 477 c 0,28,29
EndSplineSet
EndChar

StartChar: divide
Encoding: 247 247 184
Width: 1124
Flags: W
LayerCount: 2
Fore
SplineSet
680 1194 m 1,0,-1
 680 961 l 1,1,-1
 442 961 l 1,2,-1
 442 1194 l 1,3,-1
 680 1194 l 1,0,-1
1076 793 m 1,4,-1
 1076 569 l 1,5,-1
 49 569 l 1,6,-1
 49 793 l 1,7,-1
 1076 793 l 1,4,-1
680 403 m 1,8,-1
 680 170 l 1,9,-1
 442 170 l 1,10,-1
 442 403 l 1,11,-1
 680 403 l 1,8,-1
EndSplineSet
EndChar

StartChar: oslash
Encoding: 248 248 185
Width: 1251
GlyphClass: 2
Flags: W
LayerCount: 2
Fore
SplineSet
1171 542 m 0,0,1
 1171 279 1171 279 1025 129.5 c 128,-1,2
 879 -20 879 -20 621 -20 c 0,3,4
 430 -20 430 -20 297 69 c 1,5,-1
 184 -55 l 1,6,-1
 1 -55 l 1,7,-1
 198 160 l 1,8,9
 80 305 80 305 80 542 c 0,10,11
 80 803 80 803 224 952.5 c 128,-1,12
 368 1102 368 1102 627 1102 c 0,13,14
 826 1102 826 1102 957 1019 c 1,15,-1
 1058 1133 l 1,16,-1
 1242 1133 l 1,17,-1
 1058 927 l 1,18,19
 1171 784 1171 784 1171 542 c 0,0,1
375 542 m 0,20,21
 375 452 375 452 392 379 c 1,22,-1
 799 840 l 1,23,24
 739 909 739 909 631 909 c 0,25,26
 503 909 503 909 439 817.5 c 128,-1,27
 375 726 375 726 375 542 c 0,20,21
877 542 m 0,28,29
 877 639 877 639 861 704 c 1,30,-1
 454 244 l 1,31,32
 516 172 516 172 618 172 c 0,33,34
 748 172 748 172 812.5 264.5 c 128,-1,35
 877 357 877 357 877 542 c 0,28,29
EndSplineSet
EndChar

StartChar: thorn
Encoding: 254 254 191
Width: 1251
Flags: W
LayerCount: 2
Fore
SplineSet
424 -10 m 2,0,-1
 424 -425 l 1,1,-1
 143 -425 l 1,2,-1
 143 1484 l 1,3,-1
 424 1484 l 1,4,-1
 424 1022 l 2,5,6
 424 980 424 980 422.5 938 c 128,-1,7
 421 896 421 896 420 854 c 1,8,-1
 424 854 l 1,9,10
 471 954 471 954 558 1003.5 c 128,-1,11
 645 1053 645 1053 770 1053 c 0,12,13
 961 1053 961 1053 1064 912.5 c 128,-1,14
 1167 772 1167 772 1167 520 c 0,15,16
 1167 263 1167 263 1058.5 121.5 c 128,-1,17
 950 -20 950 -20 752 -20 c 0,18,19
 517 -20 517 -20 424 172 c 1,20,-1
 418 172 l 1,21,22
 424 142 424 142 424 -10 c 2,0,-1
874 520 m 0,23,24
 874 692 874 692 818.5 775 c 128,-1,25
 763 858 763 858 651 858 c 0,26,27
 538 858 538 858 479 766.5 c 128,-1,28
 420 675 420 675 420 512 c 256,29,30
 420 349 420 349 479.5 260.5 c 128,-1,31
 539 172 539 172 649 172 c 0,32,33
 762 172 762 172 818 259 c 128,-1,34
 874 346 874 346 874 520 c 0,23,24
EndSplineSet
EndChar

StartChar: dcroat
Encoding: 273 273 210
Width: 1251
Flags: W
LayerCount: 2
Fore
SplineSet
827 1345 m 1,0,-1
 827 1484 l 1,1,-1
 1109 1484 l 1,2,-1
 1109 1345 l 1,3,-1
 1241 1345 l 1,4,-1
 1241 1175 l 1,5,-1
 1109 1175 l 1,6,-1
 1109 236 l 2,7,8
 1109 186 1109 186 1111 127 c 128,-1,9
 1113 68 1113 68 1117 0 c 1,10,-1
 845 0 l 1,11,12
 843 10 843 10 839 42 c 128,-1,13
 835 74 835 74 832.5 112 c 128,-1,14
 830 150 830 150 830 176 c 1,15,-1
 826 176 l 1,16,17
 780 78 780 78 693.5 29 c 128,-1,18
 607 -20 607 -20 479 -20 c 0,19,20
 291 -20 291 -20 187.5 121.5 c 128,-1,21
 84 263 84 263 84 521 c 0,22,23
 84 781 84 781 192 921.5 c 128,-1,24
 300 1062 300 1062 500 1062 c 0,25,26
 615 1062 615 1062 698.5 1014 c 128,-1,27
 782 966 782 966 827 871 c 1,28,-1
 829 871 l 1,29,-1
 827 1049 l 1,30,-1
 827 1175 l 1,31,-1
 541 1175 l 1,32,-1
 541 1345 l 1,33,-1
 827 1345 l 1,0,-1
377 522 m 0,34,35
 377 347 377 347 432.5 259.5 c 128,-1,36
 488 172 488 172 598 172 c 0,37,38
 711 172 711 172 771 265.5 c 128,-1,39
 831 359 831 359 831 529 c 0,40,41
 831 696 831 696 773 785 c 128,-1,42
 715 874 715 874 600 874 c 0,43,44
 487 874 487 874 432 789 c 128,-1,45
 377 704 377 704 377 522 c 0,34,35
EndSplineSet
EndChar

StartChar: Hbar
Encoding: 294 294 231
Width: 1479
Flags: W
LayerCount: 2
Fore
SplineSet
432 604 m 1,0,-1
 432 0 l 1,1,-1
 137 0 l 1,2,-1
 137 1045 l 1,3,-1
 14 1045 l 1,4,-1
 14 1215 l 1,5,-1
 137 1215 l 1,6,-1
 137 1409 l 1,7,-1
 432 1409 l 1,8,-1
 432 1215 l 1,9,-1
 1057 1215 l 1,10,-1
 1057 1409 l 1,11,-1
 1341 1409 l 1,12,-1
 1341 1215 l 1,13,-1
 1465 1215 l 1,14,-1
 1465 1045 l 1,15,-1
 1341 1045 l 1,16,-1
 1341 0 l 1,17,-1
 1057 0 l 1,18,-1
 1057 604 l 1,19,-1
 432 604 l 1,0,-1
432 848 m 1,20,-1
 1057 848 l 1,21,-1
 1057 1045 l 1,22,-1
 432 1045 l 1,23,-1
 432 848 l 1,20,-1
EndSplineSet
EndChar

StartChar: hbar
Encoding: 295 295 232
Width: 1251
Flags: W
LayerCount: 2
Fore
SplineSet
420 826 m 1,0,1
 477 950 477 950 563 1006 c 128,-1,2
 649 1062 649 1062 768 1062 c 0,3,4
 940 1062 940 1062 1032 956 c 128,-1,5
 1124 850 1124 850 1124 646 c 2,6,-1
 1124 0 l 1,7,-1
 844 0 l 1,8,-1
 844 566 l 2,9,10
 844 709 844 709 796 780 c 128,-1,11
 748 851 748 851 651 851 c 0,12,13
 549 851 549 851 486.5 763.5 c 128,-1,14
 424 676 424 676 424 539 c 2,15,-1
 424 0 l 1,16,-1
 143 0 l 1,17,-1
 143 1175 l 1,18,-1
 10 1175 l 1,19,-1
 10 1345 l 1,20,-1
 143 1345 l 1,21,-1
 143 1484 l 1,22,-1
 424 1484 l 1,23,-1
 424 1345 l 1,24,-1
 730 1345 l 1,25,-1
 730 1175 l 1,26,-1
 424 1175 l 1,27,-1
 424 1039 l 2,28,29
 424 1003 424 1003 423 967 c 128,-1,30
 422 931 422 931 420.5 896 c 128,-1,31
 419 861 419 861 416 826 c 1,32,-1
 420 826 l 1,0,1
EndSplineSet
EndChar

StartChar: dotlessi
Encoding: 305 305 242
Width: 569
Flags: W
LayerCount: 2
Fore
SplineSet
426 1082 m 1,0,-1
 426 0 l 1,1,-1
 145 0 l 1,2,-1
 145 1082 l 1,3,-1
 426 1082 l 1,0,-1
EndSplineSet
EndChar

StartChar: jcircumflex
Encoding: 309 309 246
Width: 569
Flags: W
LayerCount: 2
Fore
SplineSet
281 1375 m 1,0,-1
 70 1183 l 1,1,-1
 -90 1183 l 1,2,-1
 -90 1211 l 1,3,-1
 168 1529 l 1,4,-1
 397 1529 l 1,5,-1
 647 1211 l 1,6,-1
 647 1183 l 1,7,-1
 488 1183 l 1,8,-1
 285 1375 l 1,9,-1
 281 1375 l 1,0,-1
138 -425 m 0,10,11
 39 -425 39 -425 -32 -416 c 1,12,-1
 -32 -218 l 1,13,-1
 19 -222 l 1,14,15
 91 -222 91 -222 117.5 -190.5 c 128,-1,16
 144 -159 144 -159 144 -60 c 2,17,-1
 144 1082 l 1,18,-1
 425 1082 l 1,19,-1
 425 -128 l 2,20,21
 425 -271 425 -271 352.5 -348 c 128,-1,22
 280 -425 280 -425 138 -425 c 0,10,11
EndSplineSet
EndChar

StartChar: kgreenlandic
Encoding: 312 312 249
Width: 1139
Flags: W
LayerCount: 2
Fore
SplineSet
424 406 m 1,0,-1
 424 0 l 1,1,-1
 143 0 l 1,2,-1
 143 1082 l 1,3,-1
 424 1082 l 1,4,-1
 424 634 l 1,5,-1
 810 1082 l 1,6,-1
 1112 1082 l 1,7,-1
 732 660 l 1,8,-1
 1141 0 l 1,9,-1
 834 0 l 1,10,-1
 545 490 l 1,11,-1
 424 406 l 1,0,-1
EndSplineSet
EndChar

StartChar: Lslash
Encoding: 321 321 258
Width: 1251
Flags: W
LayerCount: 2
Fore
SplineSet
136 0 m 1,0,-1
 137 483 l 1,1,-1
 0 418 l 1,2,-1
 0 643 l 1,3,-1
 137 709 l 1,4,-1
 137 1409 l 1,5,-1
 432 1409 l 1,6,-1
 432 850 l 1,7,-1
 739 997 l 1,8,-1
 739 774 l 1,9,-1
 432 627 l 1,10,-1
 432 231 l 1,11,-1
 1188 231 l 1,12,-1
 1188 0 l 1,13,-1
 136 0 l 1,0,-1
EndSplineSet
EndChar

StartChar: lslash
Encoding: 322 322 259
Width: 569
Flags: W
LayerCount: 2
Fore
SplineSet
143 0 m 1,0,-1
 143 561 l 1,1,-1
 18 492 l 1,2,-1
 18 707 l 1,3,-1
 143 776 l 1,4,-1
 143 1484 l 1,5,-1
 424 1484 l 1,6,-1
 424 932 l 1,7,-1
 553 1006 l 1,8,-1
 553 793 l 1,9,-1
 424 717 l 1,10,-1
 424 0 l 1,11,-1
 143 0 l 1,0,-1
EndSplineSet
EndChar

StartChar: eng
Encoding: 331 331 267
Width: 1251
Flags: W
LayerCount: 2
Fore
SplineSet
837 -425 m 0,0,1
 738 -425 738 -425 667 -416 c 1,2,-1
 667 -218 l 1,3,-1
 718 -222 l 1,4,5
 792 -222 792 -222 818 -189.5 c 128,-1,6
 844 -157 844 -157 844 -60 c 2,7,-1
 844 607 l 2,8,9
 844 750 844 750 796 821 c 128,-1,10
 748 892 748 892 651 892 c 0,11,12
 549 892 549 892 486.5 804.5 c 128,-1,13
 424 717 424 717 424 580 c 2,14,-1
 424 0 l 1,15,-1
 143 0 l 1,16,-1
 143 840 l 2,17,18
 143 927 143 927 140.5 982.5 c 128,-1,19
 138 1038 138 1038 135 1082 c 1,20,-1
 403 1082 l 1,21,22
 405 1070 405 1070 408 1025.5 c 128,-1,23
 411 981 411 981 413.5 934.5 c 128,-1,24
 416 888 416 888 416 867 c 1,25,-1
 420 867 l 1,26,27
 477 991 477 991 563 1047 c 128,-1,28
 649 1103 649 1103 768 1103 c 0,29,30
 940 1103 940 1103 1032 997 c 128,-1,31
 1124 891 1124 891 1124 687 c 2,32,-1
 1124 -128 l 2,33,34
 1124 -271 1124 -271 1051.5 -348 c 128,-1,35
 979 -425 979 -425 837 -425 c 0,0,1
EndSplineSet
EndChar

StartChar: OE
Encoding: 338 338 274
Width: 2048
GlyphClass: 2
Flags: W
LayerCount: 2
Fore
SplineSet
992 0 m 2,0,1
 954 -2 954 -2 900 -6 c 128,-1,2
 846 -10 846 -10 793 -10 c 0,3,4
 571 -10 571 -10 412 76.5 c 128,-1,5
 253 163 253 163 168.5 324 c 128,-1,6
 84 485 84 485 84 711 c 256,7,8
 84 937 84 937 168.5 1095 c 128,-1,9
 253 1253 253 1253 412 1336.5 c 128,-1,10
 571 1420 571 1420 795 1420 c 0,11,12
 830 1420 830 1420 881 1417 c 128,-1,13
 932 1414 932 1414 998 1409 c 1,14,-1
 1927 1409 l 1,15,-1
 1927 1182 l 1,16,-1
 1260 1182 l 1,17,-1
 1260 827 l 1,18,-1
 1866 827 l 1,19,-1
 1866 606 l 1,20,-1
 1260 606 l 1,21,-1
 1260 227 l 1,22,-1
 1968 227 l 1,23,-1
 1968 0 l 1,24,-1
 992 0 l 2,0,1
963 1169 m 1,25,26
 928 1179 928 1179 886 1183.5 c 128,-1,27
 844 1188 844 1188 795 1188 c 0,28,29
 595 1188 595 1188 488 1063.5 c 128,-1,30
 381 939 381 939 381 711 c 0,31,32
 381 482 381 482 490.5 352 c 128,-1,33
 600 222 600 222 793 222 c 0,34,35
 851 222 851 222 893.5 227 c 128,-1,36
 936 232 936 232 963 242 c 1,37,-1
 963 1169 l 1,25,26
EndSplineSet
EndChar

StartChar: oe
Encoding: 339 339 275
Width: 1933
GlyphClass: 2
Flags: W
LayerCount: 2
Fore
SplineSet
1173 476 m 1,0,1
 1173 330 1173 330 1232 249 c 128,-1,2
 1291 168 1291 168 1398 168 c 0,3,4
 1472 168 1472 168 1519.5 200.5 c 128,-1,5
 1567 233 1567 233 1586 297 c 1,6,-1
 1851 274 l 1,7,8
 1736 -20 1736 -20 1384 -20 c 0,9,10
 1146 -20 1146 -20 1015 139 c 1,11,12
 871 -20 871 -20 621 -20 c 0,13,14
 368 -20 368 -20 224 130 c 128,-1,15
 80 280 80 280 80 542 c 0,16,17
 80 803 80 803 224 952.5 c 128,-1,18
 368 1102 368 1102 627 1102 c 0,19,20
 883 1102 883 1102 1021 949 c 1,21,22
 1155 1102 1155 1102 1388 1102 c 256,23,24
 1621 1102 1621 1102 1744 947.5 c 128,-1,25
 1867 793 1867 793 1867 495 c 2,26,-1
 1867 476 l 1,27,-1
 1173 476 l 1,0,1
877 542 m 0,28,29
 877 735 877 735 814 822 c 128,-1,30
 751 909 751 909 631 909 c 0,31,32
 503 909 503 909 439 817.5 c 128,-1,33
 375 726 375 726 375 542 c 0,34,35
 375 361 375 361 437.5 266.5 c 128,-1,36
 500 172 500 172 618 172 c 0,37,38
 748 172 748 172 812.5 264.5 c 128,-1,39
 877 357 877 357 877 542 c 0,28,29
1384 925 m 0,40,41
 1285 925 1285 925 1231.5 856 c 128,-1,42
 1178 787 1178 787 1175 663 c 1,43,-1
 1595 663 l 1,44,45
 1587 794 1587 794 1532 859.5 c 128,-1,46
 1477 925 1477 925 1384 925 c 0,40,41
EndSplineSet
EndChar

StartChar: Tbar
Encoding: 358 358 294
Width: 1251
Flags: W
LayerCount: 2
Fore
SplineSet
773 626 m 1,0,-1
 773 0 l 1,1,-1
 478 0 l 1,2,-1
 478 626 l 1,3,-1
 251 626 l 1,4,-1
 251 816 l 1,5,-1
 478 816 l 1,6,-1
 478 1181 l 1,7,-1
 23 1181 l 1,8,-1
 23 1409 l 1,9,-1
 1229 1409 l 1,10,-1
 1229 1181 l 1,11,-1
 773 1181 l 1,12,-1
 773 816 l 1,13,-1
 1001 816 l 1,14,-1
 1001 626 l 1,15,-1
 773 626 l 1,0,-1
EndSplineSet
EndChar

StartChar: tbar
Encoding: 359 359 295
Width: 682
Flags: W
LayerCount: 2
Fore
SplineSet
420 -18 m 0,0,1
 296 -18 296 -18 229 49.5 c 128,-1,2
 162 117 162 117 162 254 c 2,3,-1
 162 473 l 1,4,-1
 35 473 l 1,5,-1
 35 663 l 1,6,-1
 162 663 l 1,7,-1
 162 892 l 1,8,-1
 25 892 l 1,9,-1
 25 1082 l 1,10,-1
 176 1082 l 1,11,-1
 264 1336 l 1,12,-1
 440 1336 l 1,13,-1
 440 1082 l 1,14,-1
 645 1082 l 1,15,-1
 645 892 l 1,16,-1
 440 892 l 1,17,-1
 440 663 l 1,18,-1
 625 663 l 1,19,-1
 625 473 l 1,20,-1
 440 473 l 1,21,-1
 440 330 l 2,22,23
 440 251 440 251 470 213.5 c 128,-1,24
 500 176 500 176 563 176 c 0,25,26
 593 176 593 176 657 190 c 1,27,-1
 657 16 l 1,28,29
 555 -18 555 -18 420 -18 c 0,0,1
EndSplineSet
EndChar

StartChar: longs
Encoding: 383 383 319
Width: 569
Flags: W
LayerCount: 2
Fore
SplineSet
422 1167 m 2,0,-1
 422 0 l 1,1,-1
 142 0 l 1,2,-1
 142 1195 l 2,3,4
 142 1342 142 1342 220 1413 c 128,-1,5
 298 1484 298 1484 457 1484 c 0,6,7
 539 1484 539 1484 635 1468 c 1,8,-1
 635 1287 l 1,9,10
 595 1296 595 1296 553 1296 c 0,11,12
 481 1296 481 1296 451.5 1267.5 c 128,-1,13
 422 1239 422 1239 422 1167 c 2,0,-1
EndSplineSet
EndChar

StartChar: uni0180
Encoding: 384 384 320
Width: 1251
Flags: W
LayerCount: 2
Fore
SplineSet
1167 525 m 0,0,1
 1167 261 1167 261 1060.5 120.5 c 128,-1,2
 954 -20 954 -20 752 -20 c 0,3,4
 636 -20 636 -20 551.5 30.5 c 128,-1,5
 467 81 467 81 424 174 c 1,6,-1
 422 174 l 1,7,8
 422 151 422 151 420 114 c 128,-1,9
 418 77 418 77 415 44.5 c 128,-1,10
 412 12 412 12 408 0 c 1,11,-1
 135 0 l 1,12,13
 139 47 139 47 141 108.5 c 128,-1,14
 143 170 143 170 143 247 c 2,15,-1
 143 1175 l 1,16,-1
 10 1175 l 1,17,-1
 10 1345 l 1,18,-1
 143 1345 l 1,19,-1
 143 1484 l 1,20,-1
 424 1484 l 1,21,-1
 424 1345 l 1,22,-1
 734 1345 l 1,23,-1
 734 1175 l 1,24,-1
 424 1175 l 1,25,-1
 424 1030 l 2,26,27
 424 986 424 986 422.5 942 c 128,-1,28
 421 898 421 898 420 854 c 1,29,-1
 424 854 l 1,30,31
 471 958 471 958 558 1010 c 128,-1,32
 645 1062 645 1062 770 1062 c 0,33,34
 964 1062 964 1062 1065.5 924.5 c 128,-1,35
 1167 787 1167 787 1167 525 c 0,0,1
874 525 m 0,36,37
 874 703 874 703 821 785 c 128,-1,38
 768 867 768 867 653 867 c 0,39,40
 533 867 533 867 476.5 777.5 c 128,-1,41
 420 688 420 688 420 516 c 0,42,43
 420 349 420 349 475.5 260.5 c 128,-1,44
 531 172 531 172 651 172 c 0,45,46
 767 172 767 172 820.5 258 c 128,-1,47
 874 344 874 344 874 525 c 0,36,37
EndSplineSet
EndChar

StartChar: uni0181
Encoding: 385 385 321
Width: 1713
Flags: W
LayerCount: 2
Fore
SplineSet
1623 402 m 0,0,1
 1623 210 1623 210 1479 105 c 128,-1,2
 1335 0 1335 0 1079 0 c 2,3,-1
 374 0 l 1,4,-1
 374 1195 l 1,5,-1
 346 1195 l 2,6,7
 279 1195 279 1195 246 1167.5 c 128,-1,8
 213 1140 213 1140 213 1085 c 0,9,10
 213 1032 213 1032 244 951 c 1,11,-1
 30 934 l 1,12,13
 0 1039 0 1039 0 1135 c 0,14,15
 0 1262 0 1262 91.5 1335.5 c 128,-1,16
 183 1409 183 1409 334 1409 c 2,17,-1
 1019 1409 l 2,18,19
 1542 1409 1542 1409 1542 1055 c 0,20,21
 1542 935 1542 935 1475.5 852.5 c 128,-1,22
 1409 770 1409 770 1273 741 c 1,23,24
 1444 721 1444 721 1533.5 633.5 c 128,-1,25
 1623 546 1623 546 1623 402 c 0,0,1
1245 1015 m 0,26,27
 1245 1110 1245 1110 1184 1150 c 128,-1,28
 1123 1190 1123 1190 1005 1190 c 2,29,-1
 669 1190 l 1,30,-1
 669 841 l 1,31,-1
 1007 841 l 2,32,33
 1132 841 1132 841 1188.5 884.5 c 128,-1,34
 1245 928 1245 928 1245 1015 c 0,26,27
1327 425 m 0,35,36
 1327 623 1327 623 1043 623 c 2,37,-1
 669 623 l 1,38,-1
 669 219 l 1,39,-1
 1054 219 l 2,40,41
 1195 219 1195 219 1261 270.5 c 128,-1,42
 1327 322 1327 322 1327 425 c 0,35,36
EndSplineSet
EndChar

StartChar: uni0182
Encoding: 386 386 322
Width: 1472
Flags: W
LayerCount: 2
Fore
SplineSet
1390 431 m 0,0,1
 1390 304 1390 304 1327 206.5 c 128,-1,2
 1264 109 1264 109 1147 54.5 c 128,-1,3
 1030 0 1030 0 869 0 c 2,4,-1
 137 0 l 1,5,-1
 137 1409 l 1,6,-1
 1198 1409 l 1,7,-1
 1198 1182 l 1,8,-1
 432 1182 l 1,9,-1
 432 841 l 1,10,-1
 901 841 l 2,11,12
 1138 841 1138 841 1264 733.5 c 128,-1,13
 1390 626 1390 626 1390 431 c 0,0,1
1091 425 m 0,14,15
 1091 518 1091 518 1022 570.5 c 128,-1,16
 953 623 953 623 815 623 c 2,17,-1
 432 623 l 1,18,-1
 432 219 l 1,19,-1
 821 219 l 2,20,21
 956 219 956 219 1023.5 270.5 c 128,-1,22
 1091 322 1091 322 1091 425 c 0,14,15
EndSplineSet
EndChar

StartChar: uni0183
Encoding: 387 387 323
Width: 1251
Flags: W
LayerCount: 2
Fore
SplineSet
1167 525 m 0,0,1
 1167 267 1167 267 1057.5 123.5 c 128,-1,2
 948 -20 948 -20 752 -20 c 0,3,4
 636 -20 636 -20 551.5 30.5 c 128,-1,5
 467 81 467 81 424 174 c 1,6,-1
 422 174 l 1,7,8
 422 151 422 151 420 114 c 128,-1,9
 418 77 418 77 415 44.5 c 128,-1,10
 412 12 412 12 408 0 c 1,11,-1
 135 0 l 1,12,13
 139 47 139 47 141 108.5 c 128,-1,14
 143 170 143 170 143 247 c 2,15,-1
 143 1484 l 1,16,-1
 885 1484 l 1,17,-1
 885 1271 l 1,18,-1
 424 1271 l 1,19,-1
 424 1030 l 2,20,21
 424 986 424 986 422.5 942 c 128,-1,22
 421 898 421 898 420 854 c 1,23,-1
 424 854 l 1,24,25
 471 958 471 958 558 1010 c 128,-1,26
 645 1062 645 1062 770 1062 c 0,27,28
 958 1062 958 1062 1062.5 921.5 c 128,-1,29
 1167 781 1167 781 1167 525 c 0,0,1
874 525 m 0,30,31
 874 696 874 696 818.5 781.5 c 128,-1,32
 763 867 763 867 653 867 c 0,33,34
 542 867 542 867 481 776.5 c 128,-1,35
 420 686 420 686 420 516 c 0,36,37
 420 353 420 353 479.5 262.5 c 128,-1,38
 539 172 539 172 651 172 c 256,39,40
 763 172 763 172 818.5 260.5 c 128,-1,41
 874 349 874 349 874 525 c 0,30,31
EndSplineSet
EndChar

StartChar: uni0184
Encoding: 388 388 324
Width: 1472
Flags: W
LayerCount: 2
Fore
SplineSet
1390 431 m 0,0,1
 1390 303 1390 303 1329 206 c 256,2,3
 1268 109 1268 109 1149 54.5 c 128,-1,4
 1030 0 1030 0 869 0 c 2,5,-1
 137 0 l 1,6,-1
 137 1003 l 1,7,-1
 0 1146 l 1,8,-1
 0 1182 l 1,9,-1
 357 1409 l 1,10,-1
 432 1409 l 1,11,-1
 432 841 l 1,12,-1
 901 841 l 2,13,14
 1138 841 1138 841 1264 733.5 c 128,-1,15
 1390 626 1390 626 1390 431 c 0,0,1
1091 425 m 0,16,17
 1091 518 1091 518 1022 570.5 c 128,-1,18
 953 623 953 623 815 623 c 2,19,-1
 432 623 l 1,20,-1
 432 219 l 1,21,-1
 821 219 l 2,22,23
 956 219 956 219 1023.5 270.5 c 128,-1,24
 1091 322 1091 322 1091 425 c 0,16,17
EndSplineSet
EndChar

StartChar: uni0185
Encoding: 389 389 325
Width: 1251
Flags: W
LayerCount: 2
Fore
SplineSet
1167 545 m 0,0,1
 1167 277 1167 277 1059.5 128.5 c 128,-1,2
 952 -20 952 -20 752 -20 c 0,3,4
 636 -20 636 -20 551.5 30.5 c 128,-1,5
 467 81 467 81 424 174 c 1,6,-1
 422 174 l 1,7,8
 422 151 422 151 420 114 c 128,-1,9
 418 77 418 77 415 44.5 c 128,-1,10
 412 12 412 12 408 0 c 1,11,-1
 135 0 l 1,12,13
 139 47 139 47 141 108.5 c 128,-1,14
 143 170 143 170 143 247 c 2,15,-1
 143 1097 l 1,16,-1
 0 1240 l 1,17,-1
 0 1276 l 1,18,-1
 349 1484 l 1,19,-1
 424 1484 l 1,20,-1
 424 1070 l 2,21,22
 424 1026 424 1026 423 982 c 128,-1,23
 422 938 422 938 420 894 c 1,24,-1
 424 894 l 1,25,26
 471 998 471 998 558 1050 c 128,-1,27
 645 1102 645 1102 770 1102 c 0,28,29
 962 1102 962 1102 1064.5 956.5 c 128,-1,30
 1167 811 1167 811 1167 545 c 0,0,1
874 545 m 0,31,32
 874 729 874 729 820 818 c 128,-1,33
 766 907 766 907 653 907 c 0,34,35
 539 907 539 907 479.5 811.5 c 128,-1,36
 420 716 420 716 420 536 c 0,37,38
 420 364 420 364 478.5 268 c 128,-1,39
 537 172 537 172 651 172 c 0,40,41
 763 172 763 172 818.5 265 c 128,-1,42
 874 358 874 358 874 545 c 0,31,32
EndSplineSet
EndChar

StartChar: uni0186
Encoding: 390 390 326
Width: 1479
Flags: W
LayerCount: 2
Fore
SplineSet
691 212 m 0,0,1
 891 212 891 212 994.5 336 c 128,-1,2
 1098 460 1098 460 1098 699 c 0,3,4
 1098 861 1098 861 1050.5 972.5 c 128,-1,5
 1003 1084 1003 1084 910.5 1141 c 128,-1,6
 818 1198 818 1198 684 1198 c 0,7,8
 416 1198 416 1198 313 930 c 1,9,-1
 56 1027 l 1,10,11
 139 1231 139 1231 299.5 1330.5 c 128,-1,12
 460 1430 460 1430 684 1430 c 0,13,14
 911 1430 911 1430 1069.5 1343.5 c 128,-1,15
 1228 1257 1228 1257 1311.5 1093.5 c 128,-1,16
 1395 930 1395 930 1395 699 c 0,17,18
 1395 467 1395 467 1315 307 c 128,-1,19
 1235 147 1235 147 1079.5 63.5 c 128,-1,20
 924 -20 924 -20 697 -20 c 0,21,22
 449 -20 449 -20 293 79.5 c 128,-1,23
 137 179 137 179 74 372 c 1,24,-1
 334 443 l 1,25,26
 367 337 367 337 463.5 274.5 c 128,-1,27
 560 212 560 212 691 212 c 0,0,1
EndSplineSet
EndChar

StartChar: uni0187
Encoding: 391 391 327
Width: 1479
Flags: W
LayerCount: 2
Fore
SplineSet
1145 967 m 1,0,1
 1112 1073 1112 1073 1015.5 1135.5 c 128,-1,2
 919 1198 919 1198 788 1198 c 0,3,4
 588 1198 588 1198 484.5 1074 c 128,-1,5
 381 950 381 950 381 711 c 0,6,7
 381 549 381 549 428.5 438 c 128,-1,8
 476 327 476 327 568.5 269.5 c 128,-1,9
 661 212 661 212 795 212 c 0,10,11
 922 212 922 212 1015 275 c 128,-1,12
 1108 338 1108 338 1166 480 c 1,13,-1
 1423 383 l 1,14,15
 1342 181 1342 181 1181 80.5 c 128,-1,16
 1020 -20 1020 -20 795 -20 c 0,17,18
 569 -20 569 -20 410 66.5 c 128,-1,19
 251 153 251 153 167.5 317 c 128,-1,20
 84 481 84 481 84 711 c 0,21,22
 84 943 84 943 164 1103 c 128,-1,23
 244 1263 244 1263 400 1346.5 c 128,-1,24
 556 1430 556 1430 782 1430 c 0,25,26
 994 1430 994 1430 1139 1357 c 1,27,-1
 1139 1417 l 2,28,29
 1139 1559 1139 1559 1222 1633 c 128,-1,30
 1305 1707 1305 1707 1453 1707 c 0,31,32
 1526 1707 1526 1707 1605 1690 c 1,33,-1
 1605 1486 l 1,34,35
 1547 1498 1547 1498 1517 1498 c 0,36,37
 1458 1498 1458 1498 1431.5 1463.5 c 128,-1,38
 1405 1429 1405 1429 1405 1357 c 2,39,-1
 1405 1038 l 1,40,-1
 1145 967 l 1,0,1
EndSplineSet
EndChar

StartChar: uni0188
Encoding: 392 392 328
Width: 1139
Flags: W
LayerCount: 2
Fore
SplineSet
788 727 m 1,0,1
 776 810 776 810 728 859.5 c 128,-1,2
 680 909 680 909 592 909 c 0,3,4
 483 909 483 909 429 818.5 c 128,-1,5
 375 728 375 728 375 546 c 0,6,7
 375 359 375 359 430.5 265.5 c 128,-1,8
 486 172 486 172 596 172 c 0,9,10
 676 172 676 172 730 222.5 c 128,-1,11
 784 273 784 273 797 373 c 1,12,-1
 1079 360 l 1,13,14
 1064 249 1064 249 1000 163.5 c 128,-1,15
 936 78 936 78 832 29 c 128,-1,16
 728 -20 728 -20 594 -20 c 0,17,18
 348 -20 348 -20 214 126.5 c 128,-1,19
 80 273 80 273 80 535 c 0,20,21
 80 803 80 803 215 952.5 c 128,-1,22
 350 1102 350 1102 598 1102 c 0,23,24
 713 1102 713 1102 812 1064 c 1,25,26
 820 1195 820 1195 898.5 1261.5 c 128,-1,27
 977 1328 977 1328 1119 1328 c 0,28,29
 1192 1328 1192 1328 1271 1311 c 1,30,-1
 1271 1110 l 1,31,32
 1213 1122 1213 1122 1183 1122 c 0,33,34
 1124 1122 1124 1122 1097.5 1087.5 c 128,-1,35
 1071 1053 1071 1053 1071 981 c 2,36,-1
 1071 741 l 1,37,-1
 788 727 l 1,0,1
EndSplineSet
EndChar

StartChar: uni018A
Encoding: 394 394 330
Width: 1715
Flags: W
LayerCount: 2
Fore
SplineSet
1630 715 m 0,0,1
 1630 496 1630 496 1545 335 c 0,2,3
 1460 172 1460 172 1303 86 c 128,-1,4
 1146 0 1146 0 944 0 c 2,5,-1
 374 0 l 1,6,-1
 374 1195 l 1,7,-1
 346 1195 l 2,8,9
 279 1195 279 1195 246 1167.5 c 128,-1,10
 213 1140 213 1140 213 1085 c 0,11,12
 213 1032 213 1032 244 951 c 1,13,-1
 30 934 l 1,14,15
 0 1039 0 1039 0 1135 c 0,16,17
 0 1262 0 1262 91.5 1335.5 c 128,-1,18
 183 1409 183 1409 334 1409 c 2,19,-1
 884 1409 l 2,20,21
 1240 1409 1240 1409 1435 1228.5 c 128,-1,22
 1630 1048 1630 1048 1630 715 c 0,0,1
1333 715 m 0,23,24
 1333 942 1333 942 1215 1061.5 c 128,-1,25
 1097 1181 1097 1181 878 1181 c 2,26,-1
 669 1181 l 1,27,-1
 669 228 l 1,28,-1
 919 228 l 2,29,30
 1046 228 1046 228 1138.5 287.5 c 128,-1,31
 1231 347 1231 347 1282 456 c 128,-1,32
 1333 565 1333 565 1333 715 c 0,23,24
EndSplineSet
EndChar

StartChar: uni018B
Encoding: 395 395 331
Width: 1472
Flags: W
LayerCount: 2
Fore
SplineSet
88 431 m 0,0,1
 88 626 88 626 214.5 733.5 c 128,-1,2
 341 841 341 841 577 841 c 2,3,-1
 1046 841 l 1,4,-1
 1046 1182 l 1,5,-1
 280 1182 l 1,6,-1
 280 1409 l 1,7,-1
 1341 1409 l 1,8,-1
 1341 0 l 1,9,-1
 609 0 l 2,10,11
 370 0 370 0 229 116 c 128,-1,12
 88 232 88 232 88 431 c 0,0,1
387 425 m 0,13,14
 387 322 387 322 454.5 270.5 c 128,-1,15
 522 219 522 219 657 219 c 2,16,-1
 1046 219 l 1,17,-1
 1046 623 l 1,18,-1
 663 623 l 2,19,20
 525 623 525 623 456 570.5 c 128,-1,21
 387 518 387 518 387 425 c 0,13,14
EndSplineSet
EndChar

StartChar: uni018C
Encoding: 396 396 332
Width: 1251
Flags: W
LayerCount: 2
Fore
SplineSet
84 525 m 0,0,1
 84 780 84 780 188.5 921 c 128,-1,2
 293 1062 293 1062 481 1062 c 0,3,4
 606 1062 606 1062 693 1010 c 128,-1,5
 780 958 780 958 827 854 c 1,6,-1
 831 854 l 1,7,8
 830 898 830 898 828.5 942 c 128,-1,9
 827 986 827 986 827 1030 c 2,10,-1
 827 1271 l 1,11,-1
 366 1271 l 1,12,-1
 366 1484 l 1,13,-1
 1108 1484 l 1,14,-1
 1108 247 l 2,15,16
 1108 170 1108 170 1110 108.5 c 128,-1,17
 1112 47 1112 47 1116 0 c 1,18,-1
 843 0 l 1,19,20
 840 11 840 11 836.5 43.5 c 128,-1,21
 833 76 833 76 831 113 c 128,-1,22
 829 150 829 150 829 174 c 1,23,-1
 827 174 l 1,24,25
 781 79 781 79 697.5 29.5 c 128,-1,26
 614 -20 614 -20 499 -20 c 0,27,28
 304 -20 304 -20 194 123.5 c 128,-1,29
 84 267 84 267 84 525 c 0,0,1
377 525 m 0,30,31
 377 349 377 349 432.5 260.5 c 128,-1,32
 488 172 488 172 600 172 c 256,33,34
 712 172 712 172 771.5 263 c 128,-1,35
 831 354 831 354 831 516 c 0,36,37
 831 685 831 685 770.5 776 c 128,-1,38
 710 867 710 867 598 867 c 0,39,40
 488 867 488 867 432.5 781.5 c 128,-1,41
 377 696 377 696 377 525 c 0,30,31
EndSplineSet
EndChar

StartChar: uni018D
Encoding: 397 397 333
Width: 1242
Flags: W
LayerCount: 2
Fore
SplineSet
1171 552 m 0,0,1
 1171 330 1171 330 1059.5 187 c 128,-1,2
 948 44 948 44 742 9 c 1,3,-1
 1089 -244 l 1,4,-1
 1089 -424 l 1,5,-1
 166 -424 l 1,6,-1
 166 -221 l 1,7,-1
 703 -221 l 1,8,-1
 288 78 l 2,9,10
 192 147 192 147 136 265 c 128,-1,11
 80 383 80 383 80 552 c 0,12,13
 80 719 80 719 146 842.5 c 128,-1,14
 212 966 212 966 334.5 1034 c 128,-1,15
 457 1102 457 1102 627 1102 c 0,16,17
 891 1102 891 1102 1031 960.5 c 128,-1,18
 1171 819 1171 819 1171 552 c 0,0,1
877 552 m 0,19,20
 877 731 877 731 815.5 820 c 128,-1,21
 754 909 754 909 631 909 c 0,22,23
 503 909 503 909 439 820 c 128,-1,24
 375 731 375 731 375 552 c 0,25,26
 375 376 375 376 438.5 284 c 128,-1,27
 502 192 502 192 618 192 c 0,28,29
 748 192 748 192 812.5 282 c 128,-1,30
 877 372 877 372 877 552 c 0,19,20
EndSplineSet
EndChar

StartChar: uni018E
Encoding: 398 398 334
Width: 1366
Flags: W
LayerCount: 2
Fore
SplineSet
1229 1409 m 1,0,-1
 1229 0 l 1,1,-1
 80 0 l 1,2,-1
 80 228 l 1,3,-1
 934 228 l 1,4,-1
 934 599 l 1,5,-1
 182 599 l 1,6,-1
 182 827 l 1,7,-1
 934 827 l 1,8,-1
 934 1181 l 1,9,-1
 121 1181 l 1,10,-1
 121 1409 l 1,11,-1
 1229 1409 l 1,0,-1
EndSplineSet
EndChar

StartChar: uni018F
Encoding: 399 399 335
AltUni2: 0004d8.ffffffff.0
Width: 1487
Flags: W
LayerCount: 2
Fore
SplineSet
1091 848 m 1,0,1
 1072 1016 1072 1016 984 1110.5 c 128,-1,2
 896 1205 896 1205 742 1205 c 0,3,4
 620 1205 620 1205 544.5 1154 c 128,-1,5
 469 1103 469 1103 425 997 c 1,6,-1
 161 1070 l 1,7,8
 226 1250 226 1250 371.5 1340 c 128,-1,9
 517 1430 517 1430 743 1430 c 0,10,11
 980 1430 980 1430 1140 1317 c 0,12,13
 1267 1228 1267 1228 1335 1074 c 128,-1,14
 1403 920 1403 920 1403 711 c 0,15,16
 1403 490 1403 490 1323 324 c 256,17,18
 1243 158 1243 158 1093 69 c 128,-1,19
 943 -20 943 -20 741 -20 c 0,20,21
 536 -20 536 -20 388 68 c 0,22,23
 241 155 241 155 162.5 320.5 c 128,-1,24
 84 486 84 486 84 711 c 0,25,26
 84 749 84 749 86.5 783 c 128,-1,27
 89 817 89 817 93 848 c 1,28,-1
 1091 848 l 1,0,1
741 206 m 0,29,30
 902 206 902 206 993 310.5 c 128,-1,31
 1084 415 1084 415 1096 613 c 1,32,-1
 386 613 l 1,33,34
 398 418 398 418 492 312 c 128,-1,35
 586 206 586 206 741 206 c 0,29,30
EndSplineSet
EndChar

StartChar: uni0190
Encoding: 400 400 336
Width: 1283
Flags: W
LayerCount: 2
Fore
SplineSet
635 -20 m 0,0,1
 466 -20 466 -20 344.5 31 c 128,-1,2
 223 82 223 82 158.5 176.5 c 128,-1,3
 94 271 94 271 94 400 c 0,4,5
 94 532 94 532 178 618 c 128,-1,6
 262 704 262 704 410 726 c 1,7,8
 130 796 130 796 130 1050 c 0,9,10
 130 1162 130 1162 193.5 1247.5 c 128,-1,11
 257 1333 257 1333 372 1381 c 128,-1,12
 487 1429 487 1429 641 1429 c 0,13,14
 859 1429 859 1429 996 1333 c 128,-1,15
 1133 1237 1133 1237 1201 1036 c 1,16,-1
 933 975 l 1,17,18
 896 1094 896 1094 824.5 1153 c 128,-1,19
 753 1212 753 1212 646 1212 c 0,20,21
 538 1212 538 1212 476.5 1164 c 128,-1,22
 415 1116 415 1116 415 1025 c 0,23,24
 415 829 415 829 710 829 c 2,25,-1
 769 829 l 1,26,-1
 769 602 l 1,27,-1
 710 602 l 2,28,29
 541 602 541 602 461.5 557.5 c 128,-1,30
 382 513 382 513 382 412 c 0,31,32
 382 315 382 315 449 261.5 c 128,-1,33
 516 208 516 208 645 208 c 0,34,35
 882 208 882 208 973 461 c 1,36,-1
 1237 368 l 1,37,38
 1169 171 1169 171 1020.5 75.5 c 128,-1,39
 872 -20 872 -20 635 -20 c 0,0,1
EndSplineSet
EndChar

StartChar: uni0191
Encoding: 401 401 337
Width: 1251
Flags: W
LayerCount: 2
Fore
SplineSet
432 -32 m 2,0,1
 432 -228 432 -228 346.5 -326.5 c 128,-1,2
 261 -425 261 -425 89 -425 c 0,3,4
 18 -425 18 -425 -76 -405 c 1,5,-1
 -76 -185 l 1,6,7
 -11 -198 -11 -198 19 -198 c 0,8,9
 84 -198 84 -198 110.5 -159.5 c 128,-1,10
 137 -121 137 -121 137 -42 c 2,11,-1
 137 1409 l 1,12,-1
 1176 1409 l 1,13,-1
 1176 1181 l 1,14,-1
 432 1181 l 1,15,-1
 432 745 l 1,16,-1
 1153 745 l 1,17,-1
 1153 517 l 1,18,-1
 432 517 l 1,19,-1
 432 -32 l 2,0,1
EndSplineSet
EndChar

StartChar: florin
Encoding: 402 402 338
Width: 1139
GlyphClass: 2
Flags: W
LayerCount: 2
Fore
SplineSet
885 1277 m 1,0,1
 863 1284 863 1284 831 1289 c 128,-1,2
 799 1294 799 1294 779 1294 c 0,3,4
 723 1294 723 1294 697.5 1267 c 128,-1,5
 672 1240 672 1240 672 1167 c 2,6,-1
 672 1082 l 1,7,-1
 885 1082 l 1,8,-1
 885 892 l 1,9,-1
 672 892 l 1,10,-1
 672 -425 l 1,11,-1
 392 -425 l 1,12,-1
 392 892 l 1,13,-1
 234 892 l 1,14,-1
 234 1082 l 1,15,-1
 392 1082 l 1,16,-1
 392 1195 l 2,17,18
 392 1345 392 1345 468.5 1414.5 c 128,-1,19
 545 1484 545 1484 702 1484 c 0,20,21
 752 1484 752 1484 801.5 1477 c 128,-1,22
 851 1470 851 1470 885 1457 c 1,23,-1
 885 1277 l 1,0,1
EndSplineSet
EndChar

StartChar: uni0193
Encoding: 403 403 339
Width: 1593
Flags: W
LayerCount: 2
Fore
SplineSet
1164 981 m 1,0,1
 1120 1088 1120 1088 1026 1143 c 128,-1,2
 932 1198 932 1198 805 1198 c 0,3,4
 597 1198 597 1198 489 1072 c 128,-1,5
 381 946 381 946 381 711 c 0,6,7
 381 472 381 472 492.5 341.5 c 128,-1,8
 604 211 604 211 806 211 c 0,9,10
 921 211 921 211 1029 244.5 c 128,-1,11
 1137 278 1137 278 1196 330 c 1,12,-1
 1196 525 l 1,13,-1
 852 525 l 1,14,-1
 852 743 l 1,15,-1
 1466 743 l 1,16,-1
 1466 225 l 1,17,18
 1354 110 1354 110 1174.5 45 c 128,-1,19
 995 -20 995 -20 798 -20 c 0,20,21
 569 -20 569 -20 409.5 65.5 c 128,-1,22
 250 151 250 151 167 314.5 c 128,-1,23
 84 478 84 478 84 711 c 0,24,25
 84 1059 84 1059 270 1244.5 c 128,-1,26
 456 1430 456 1430 805 1430 c 0,27,28
 1022 1430 1022 1430 1170 1358 c 1,29,-1
 1170 1417 l 2,30,31
 1170 1559 1170 1559 1253 1633 c 128,-1,32
 1336 1707 1336 1707 1484 1707 c 0,33,34
 1557 1707 1557 1707 1636 1690 c 1,35,-1
 1636 1486 l 1,36,37
 1578 1498 1578 1498 1548 1498 c 0,38,39
 1489 1498 1489 1498 1462.5 1463.5 c 128,-1,40
 1436 1429 1436 1429 1436 1357 c 2,41,-1
 1436 1063 l 1,42,-1
 1164 981 l 1,0,1
EndSplineSet
EndChar

StartChar: uni0194
Encoding: 404 404 340
Width: 1304
Flags: W
LayerCount: 2
Fore
SplineSet
14 1409 m 1,0,-1
 322 1409 l 1,1,-1
 656 543 l 1,2,-1
 987 1409 l 1,3,-1
 1292 1409 l 1,4,-1
 804 270 l 1,5,6
 855 178 855 178 889 109 c 128,-1,7
 923 40 923 40 939 -4 c 0,8,9
 971 -94 971 -94 971 -151 c 0,10,11
 971 -284 971 -284 888.5 -354.5 c 128,-1,12
 806 -425 806 -425 656 -425 c 0,13,14
 508 -425 508 -425 425 -352.5 c 128,-1,15
 342 -280 342 -280 342 -150 c 0,16,17
 342 -87 342 -87 372 -3 c 0,18,19
 386 39 386 39 419.5 107.5 c 128,-1,20
 453 176 453 176 505 270 c 1,21,-1
 14 1409 l 1,0,-1
734 -121 m 0,22,23
 734 -84 734 -84 717 -31 c 128,-1,24
 700 22 700 22 656 95 c 1,25,26
 619 31 619 31 599 -24 c 128,-1,27
 579 -79 579 -79 579 -120 c 0,28,29
 579 -168 579 -168 600.5 -190.5 c 128,-1,30
 622 -213 622 -213 656 -213 c 256,31,32
 690 -213 690 -213 712 -191 c 128,-1,33
 734 -169 734 -169 734 -121 c 0,22,23
EndSplineSet
EndChar

StartChar: uni0195
Encoding: 405 405 341
Width: 1906
Flags: W
LayerCount: 2
Fore
SplineSet
1314 -20 m 0,0,1
 1074 -20 1074 -20 959 96.5 c 128,-1,2
 844 213 844 213 844 456 c 2,3,-1
 844 606 l 2,4,5
 844 749 844 749 796 820 c 128,-1,6
 748 891 748 891 651 891 c 0,7,8
 549 891 549 891 486.5 803.5 c 128,-1,9
 424 716 424 716 424 579 c 2,10,-1
 424 0 l 1,11,-1
 143 0 l 1,12,-1
 143 1484 l 1,13,-1
 424 1484 l 1,14,-1
 424 1079 l 2,15,16
 424 1043 424 1043 423 1007 c 128,-1,17
 422 971 422 971 420.5 936 c 128,-1,18
 419 901 419 901 416 866 c 1,19,-1
 420 866 l 1,20,21
 477 990 477 990 563 1046 c 128,-1,22
 649 1102 649 1102 768 1102 c 0,23,24
 940 1102 940 1102 1032 996 c 128,-1,25
 1124 890 1124 890 1124 686 c 2,26,-1
 1124 448 l 2,27,28
 1124 316 1124 316 1171.5 253.5 c 128,-1,29
 1219 191 1219 191 1314 191 c 256,30,31
 1409 191 1409 191 1457 255.5 c 128,-1,32
 1505 320 1505 320 1505 448 c 2,33,-1
 1505 1082 l 1,34,-1
 1785 1082 l 1,35,-1
 1785 456 l 2,36,37
 1785 218 1785 218 1667.5 99 c 128,-1,38
 1550 -20 1550 -20 1314 -20 c 0,0,1
EndSplineSet
EndChar

StartChar: uni0196
Encoding: 406 406 342
Width: 569
Flags: W
LayerCount: 2
Fore
SplineSet
199 0 m 1,0,1
 170 31 170 31 153.5 98 c 128,-1,2
 137 165 137 165 137 236 c 2,3,-1
 137 1484 l 1,4,-1
 419 1484 l 1,5,-1
 419 227 l 2,6,7
 419 162 419 162 441 100 c 128,-1,8
 463 38 463 38 499 0 c 1,9,-1
 199 0 l 1,0,1
EndSplineSet
EndChar

StartChar: uni0197
Encoding: 407 407 343
Width: 569
Flags: W
LayerCount: 2
Fore
SplineSet
143 0 m 1,0,-1
 143 599 l 1,1,-1
 10 599 l 1,2,-1
 10 827 l 1,3,-1
 143 827 l 1,4,-1
 143 1484 l 1,5,-1
 424 1484 l 1,6,-1
 424 827 l 1,7,-1
 559 827 l 1,8,-1
 559 599 l 1,9,-1
 424 599 l 1,10,-1
 424 0 l 1,11,-1
 143 0 l 1,0,-1
EndSplineSet
EndChar

StartChar: uni0198
Encoding: 408 408 344
Width: 1479
Flags: W
LayerCount: 2
Fore
SplineSet
432 514 m 1,0,-1
 432 0 l 1,1,-1
 137 0 l 1,2,-1
 137 1409 l 1,3,-1
 432 1409 l 1,4,-1
 432 770 l 1,5,-1
 895 1240 l 2,6,7
 961 1306 961 1306 1016.5 1348 c 128,-1,8
 1072 1390 1072 1390 1130 1410 c 128,-1,9
 1188 1430 1188 1430 1259 1430 c 0,10,11
 1302 1430 1302 1430 1337.5 1424 c 128,-1,12
 1373 1418 1373 1418 1403 1410 c 1,13,-1
 1403 1190 l 1,14,15
 1377 1195 1377 1195 1352 1199 c 128,-1,16
 1327 1203 1327 1203 1305 1203 c 0,17,18
 1254 1203 1254 1203 1207 1181.5 c 128,-1,19
 1160 1160 1160 1160 1108 1109 c 2,20,-1
 809 813 l 1,21,-1
 1460 0 l 1,22,-1
 1112 0 l 1,23,-1
 606 647 l 1,24,-1
 432 514 l 1,0,-1
EndSplineSet
EndChar

StartChar: uni0199
Encoding: 409 409 345
Width: 1139
Flags: W
LayerCount: 2
Fore
SplineSet
834 0 m 1,0,-1
 545 490 l 1,1,-1
 424 406 l 1,2,-1
 424 0 l 1,3,-1
 143 0 l 1,4,-1
 143 1203 l 2,5,6
 143 1341 143 1341 230.5 1417 c 128,-1,7
 318 1493 318 1493 472 1493 c 0,8,9
 566 1493 566 1493 654 1476 c 1,10,-1
 654 1275 l 1,11,12
 636 1280 636 1280 598.5 1283.5 c 128,-1,13
 561 1287 561 1287 540 1287 c 0,14,15
 424 1287 424 1287 424 1146 c 2,16,-1
 424 634 l 1,17,-1
 810 1082 l 1,18,-1
 1112 1082 l 1,19,-1
 732 660 l 1,20,-1
 1141 0 l 1,21,-1
 834 0 l 1,0,-1
EndSplineSet
EndChar

StartChar: uni019A
Encoding: 410 410 346
Width: 569
Flags: W
LayerCount: 2
Fore
SplineSet
143 0 m 1,0,-1
 143 639 l 1,1,-1
 20 639 l 1,2,-1
 20 826 l 1,3,-1
 143 826 l 1,4,-1
 143 1484 l 1,5,-1
 424 1484 l 1,6,-1
 424 826 l 1,7,-1
 549 826 l 1,8,-1
 549 639 l 1,9,-1
 424 639 l 1,10,-1
 424 0 l 1,11,-1
 143 0 l 1,0,-1
EndSplineSet
EndChar

StartChar: uni019B
Encoding: 411 411 347
Width: 1139
Flags: W
LayerCount: 2
Fore
SplineSet
54 1159 m 1,0,-1
 338 1280 l 1,1,-1
 256 1484 l 1,2,-1
 554 1484 l 1,3,-1
 591 1388 l 1,4,-1
 772 1466 l 1,5,-1
 846 1293 l 1,6,-1
 659 1213 l 1,7,-1
 1128 0 l 1,8,-1
 834 0 l 1,9,-1
 569 797 l 1,10,-1
 313 0 l 1,11,-1
 16 0 l 1,12,-1
 424 1071 l 1,13,-1
 409 1106 l 1,14,-1
 128 986 l 1,15,-1
 54 1159 l 1,0,-1
EndSplineSet
EndChar

StartChar: uni019C
Encoding: 412 412 348
Width: 2031
Flags: W
LayerCount: 2
Fore
SplineSet
1163 1409 m 1,0,-1
 1163 476 l 2,1,2
 1163 328 1163 328 1212 259.5 c 128,-1,3
 1261 191 1261 191 1362 191 c 0,4,5
 1472 191 1472 191 1535.5 278.5 c 128,-1,6
 1599 366 1599 366 1599 503 c 2,7,-1
 1599 1409 l 1,8,-1
 1894 1409 l 1,9,-1
 1894 0 l 1,10,-1
 1606 0 l 1,11,-1
 1594 169 l 1,12,-1
 1590 169 l 1,13,14
 1533 68 1533 68 1444 24 c 128,-1,15
 1355 -20 1355 -20 1243 -20 c 0,16,17
 990 -20 990 -20 909 181 c 1,18,19
 838 71 838 71 746 25.5 c 128,-1,20
 654 -20 654 -20 516 -20 c 0,21,22
 335 -20 335 -20 236 87.5 c 128,-1,23
 137 195 137 195 137 396 c 2,24,-1
 137 1409 l 1,25,-1
 432 1409 l 1,26,-1
 432 476 l 2,27,28
 432 327 432 327 482 259 c 128,-1,29
 532 191 532 191 632 191 c 0,30,31
 738 191 738 191 803 274 c 128,-1,32
 868 357 868 357 868 490 c 2,33,-1
 868 1409 l 1,34,-1
 1163 1409 l 1,0,-1
EndSplineSet
EndChar

StartChar: uni019D
Encoding: 413 413 349
Width: 1479
Flags: W
LayerCount: 2
Fore
SplineSet
399 -52 m 2,0,1
 399 -251 399 -251 327.5 -338 c 128,-1,2
 256 -425 256 -425 89 -425 c 0,3,4
 18 -425 18 -425 -76 -405 c 1,5,-1
 -76 -175 l 1,6,7
 -11 -188 -11 -188 19 -188 c 0,8,9
 84 -188 84 -188 110.5 -149.5 c 128,-1,10
 137 -111 137 -111 137 -32 c 2,11,-1
 137 1409 l 1,12,-1
 474 1409 l 1,13,-1
 1097 315 l 1,14,15
 1079 467 1079 467 1079 590 c 2,16,-1
 1079 1409 l 1,17,-1
 1341 1409 l 1,18,-1
 1341 0 l 1,19,-1
 995 0 l 1,20,-1
 381 1085 l 1,21,22
 390 1006 390 1006 394.5 942.5 c 128,-1,23
 399 879 399 879 399 831 c 2,24,-1
 399 -52 l 2,0,1
EndSplineSet
EndChar

StartChar: uni019E
Encoding: 414 414 350
Width: 1251
Flags: W
LayerCount: 2
Fore
SplineSet
1124 687 m 2,0,-1
 1124 -424 l 1,1,-1
 844 -424 l 1,2,-1
 844 607 l 2,3,4
 844 750 844 750 796 821 c 128,-1,5
 748 892 748 892 651 892 c 0,6,7
 549 892 549 892 486.5 804.5 c 128,-1,8
 424 717 424 717 424 580 c 2,9,-1
 424 0 l 1,10,-1
 143 0 l 1,11,-1
 143 840 l 2,12,13
 143 909 143 909 141 969.5 c 128,-1,14
 139 1030 139 1030 135 1082 c 1,15,-1
 403 1082 l 1,16,17
 405 1070 405 1070 408 1025.5 c 128,-1,18
 411 981 411 981 413.5 934.5 c 128,-1,19
 416 888 416 888 416 867 c 1,20,-1
 420 867 l 1,21,22
 477 991 477 991 563 1047 c 128,-1,23
 649 1103 649 1103 768 1103 c 0,24,25
 940 1103 940 1103 1032 997 c 128,-1,26
 1124 891 1124 891 1124 687 c 2,0,-1
EndSplineSet
EndChar

StartChar: Ohorn
Encoding: 416 416 352
Width: 1747
Flags: W
LayerCount: 2
Fore
SplineSet
1507 711 m 0,0,1
 1507 491 1507 491 1420 324 c 256,2,3
 1333 157 1333 157 1171 68.5 c 128,-1,4
 1009 -20 1009 -20 793 -20 c 0,5,6
 572 -20 572 -20 413 68.5 c 128,-1,7
 254 157 254 157 169 321 c 128,-1,8
 84 485 84 485 84 711 c 256,9,10
 84 937 84 937 168.5 1098 c 128,-1,11
 253 1259 253 1259 412.5 1344.5 c 128,-1,12
 572 1430 572 1430 795 1430 c 0,13,14
 1068 1430 1068 1430 1248 1299 c 128,-1,15
 1428 1168 1428 1168 1483 927 c 1,16,17
 1545 959 1545 959 1575.5 1014.5 c 128,-1,18
 1606 1070 1606 1070 1606 1149 c 1,19,-1
 1481 1149 l 1,20,-1
 1481 1409 l 1,21,-1
 1744 1409 l 1,22,-1
 1744 1199 l 2,23,24
 1744 1039 1744 1039 1684 937 c 128,-1,25
 1624 835 1624 835 1503 791 c 1,26,27
 1504 771 1504 771 1505.5 751 c 128,-1,28
 1507 731 1507 731 1507 711 c 0,0,1
1206 711 m 0,29,30
 1206 939 1206 939 1098 1068.5 c 128,-1,31
 990 1198 990 1198 795 1198 c 0,32,33
 597 1198 597 1198 489 1069.5 c 128,-1,34
 381 941 381 941 381 711 c 0,35,36
 381 557 381 557 431 445 c 128,-1,37
 481 333 481 333 573.5 272.5 c 128,-1,38
 666 212 666 212 793 212 c 0,39,40
 991 212 991 212 1098.5 342 c 128,-1,41
 1206 472 1206 472 1206 711 c 0,29,30
EndSplineSet
EndChar

StartChar: ohorn
Encoding: 417 417 353
Width: 1456
Flags: W
LayerCount: 2
Fore
SplineSet
1166 454 m 1,0,1
 1151 304 1151 304 1081 198 c 128,-1,2
 1011 92 1011 92 894 36 c 128,-1,3
 777 -20 777 -20 621 -20 c 0,4,5
 368 -20 368 -20 224 130 c 128,-1,6
 80 280 80 280 80 542 c 0,7,8
 80 803 80 803 224 952.5 c 128,-1,9
 368 1102 368 1102 627 1102 c 0,10,11
 882 1102 882 1102 1020.5 969.5 c 128,-1,12
 1159 837 1159 837 1170 587 c 1,13,14
 1318 642 1318 642 1318 822 c 1,15,-1
 1193 822 l 1,16,-1
 1193 1082 l 1,17,-1
 1456 1082 l 1,18,-1
 1456 872 l 2,19,20
 1456 701 1456 701 1386 596.5 c 128,-1,21
 1316 492 1316 492 1166 454 c 1,0,1
877 542 m 0,22,23
 877 735 877 735 814 822 c 128,-1,24
 751 909 751 909 631 909 c 0,25,26
 503 909 503 909 439 817.5 c 128,-1,27
 375 726 375 726 375 542 c 0,28,29
 375 361 375 361 437.5 266.5 c 128,-1,30
 500 172 500 172 618 172 c 0,31,32
 750 172 750 172 813.5 263.5 c 128,-1,33
 877 355 877 355 877 542 c 0,22,23
EndSplineSet
EndChar

StartChar: uni01A2
Encoding: 418 418 354
Width: 1816
Flags: W
LayerCount: 2
Fore
SplineSet
1384 -425 m 1,0,-1
 1384 1181 l 1,1,-1
 1192 1181 l 1,2,-1
 1192 83 l 1,3,4
 1122 39 1122 39 1005.5 9.5 c 128,-1,5
 889 -20 889 -20 777 -20 c 0,6,7
 555 -20 555 -20 400 66.5 c 128,-1,8
 245 153 245 153 164.5 316 c 128,-1,9
 84 479 84 479 84 711 c 256,10,11
 84 943 84 943 164 1103 c 128,-1,12
 244 1263 244 1263 400 1346.5 c 128,-1,13
 556 1430 556 1430 782 1430 c 0,14,15
 979 1430 979 1430 1147 1347 c 1,16,-1
 1593 1425 l 1,17,-1
 1666 1425 l 1,18,-1
 1666 -425 l 1,19,-1
 1384 -425 l 1,0,-1
910 1188 m 1,20,21
 850 1203 850 1203 788 1203 c 0,22,23
 589 1203 589 1203 485 1077 c 128,-1,24
 381 951 381 951 381 711 c 0,25,26
 381 549 381 549 428.5 436.5 c 128,-1,27
 476 324 476 324 568.5 265.5 c 128,-1,28
 661 207 661 207 795 207 c 0,29,30
 856 207 856 207 910 221 c 1,31,-1
 910 1188 l 1,20,21
EndSplineSet
EndChar

StartChar: uni01A3
Encoding: 419 419 355
Width: 1523
Flags: W
LayerCount: 2
Fore
SplineSet
1379 1102 m 1,0,-1
 1379 -425 l 1,1,-1
 1126 -425 l 1,2,-1
 1126 877 l 1,3,-1
 958 877 l 1,4,-1
 958 67 l 1,5,6
 894 25 894 25 803 2.5 c 128,-1,7
 712 -20 712 -20 611 -20 c 0,8,9
 362 -20 362 -20 221 128.5 c 128,-1,10
 80 277 80 277 80 542 c 0,11,12
 80 806 80 806 219.5 954 c 128,-1,13
 359 1102 359 1102 617 1102 c 0,14,15
 712 1102 712 1102 793.5 1080 c 128,-1,16
 875 1058 875 1058 945 1014 c 1,17,-1
 1302 1102 l 1,18,-1
 1379 1102 l 1,0,-1
700 184 m 1,19,-1
 700 899 l 1,20,21
 667 909 667 909 624 909 c 0,22,23
 495 909 495 909 435.5 820 c 128,-1,24
 376 731 376 731 376 542 c 0,25,26
 376 360 376 360 435.5 266 c 128,-1,27
 495 172 495 172 611 172 c 0,28,29
 658 172 658 172 700 184 c 1,19,-1
EndSplineSet
EndChar

StartChar: uni01A4
Encoding: 420 420 356
Width: 1601
Flags: W
LayerCount: 2
Fore
SplineSet
1007 1409 m 2,0,1
 1260 1409 1260 1409 1396.5 1292.5 c 128,-1,2
 1533 1176 1533 1176 1533 963 c 0,3,4
 1533 825 1533 825 1470 720 c 128,-1,5
 1407 615 1407 615 1292 555.5 c 128,-1,6
 1177 496 1177 496 1019 496 c 2,7,-1
 669 496 l 1,8,-1
 669 0 l 1,9,-1
 374 0 l 1,10,-1
 374 1195 l 1,11,-1
 346 1195 l 2,12,13
 279 1195 279 1195 246 1167.5 c 128,-1,14
 213 1140 213 1140 213 1085 c 0,15,16
 213 1032 213 1032 244 951 c 1,17,-1
 30 934 l 1,18,19
 0 1039 0 1039 0 1135 c 0,20,21
 0 1262 0 1262 91.5 1335.5 c 128,-1,22
 183 1409 183 1409 334 1409 c 2,23,-1
 1007 1409 l 2,0,1
1236 958 m 0,24,25
 1236 1180 1236 1180 974 1180 c 2,26,-1
 669 1180 l 1,27,-1
 669 723 l 1,28,-1
 982 723 l 2,29,30
 1104 723 1104 723 1170 783.5 c 128,-1,31
 1236 844 1236 844 1236 958 c 0,24,25
EndSplineSet
EndChar

StartChar: uni01A5
Encoding: 421 421 357
Width: 1251
Flags: W
LayerCount: 2
Fore
SplineSet
1167 546 m 0,0,1
 1167 275 1167 275 1058.5 127.5 c 128,-1,2
 950 -20 950 -20 752 -20 c 0,3,4
 636 -20 636 -20 550.5 31 c 128,-1,5
 465 82 465 82 424 172 c 1,6,-1
 418 172 l 1,7,8
 424 142 424 142 424 -10 c 2,9,-1
 424 -425 l 1,10,-1
 143 -425 l 1,11,-1
 143 1203 l 2,12,13
 143 1340 143 1340 230.5 1416.5 c 128,-1,14
 318 1493 318 1493 474 1493 c 0,15,16
 523 1493 523 1493 584 1487 c 128,-1,17
 645 1481 645 1481 668 1476 c 1,18,-1
 668 1265 l 1,19,20
 650 1270 650 1270 612.5 1273.5 c 128,-1,21
 575 1277 575 1277 554 1277 c 0,22,23
 420 1277 420 1277 420 1144 c 2,24,-1
 420 903 l 1,25,-1
 424 903 l 1,26,27
 471 1003 471 1003 558 1052.5 c 128,-1,28
 645 1102 645 1102 770 1102 c 0,29,30
 958 1102 958 1102 1062.5 957.5 c 128,-1,31
 1167 813 1167 813 1167 546 c 0,0,1
874 546 m 0,32,33
 874 728 874 728 818.5 819 c 128,-1,34
 763 910 763 910 651 910 c 256,35,36
 539 910 539 910 479.5 812 c 128,-1,37
 420 714 420 714 420 538 c 0,38,39
 420 363 420 363 479 267.5 c 128,-1,40
 538 172 538 172 649 172 c 0,41,42
 762 172 762 172 818 265.5 c 128,-1,43
 874 359 874 359 874 546 c 0,32,33
EndSplineSet
EndChar

StartChar: uni01A6
Encoding: 422 422 358
Width: 1366
Flags: W
LayerCount: 2
Fore
SplineSet
958 416 m 1,0,-1
 1339 -330 l 1,1,-1
 1020 -330 l 1,2,-1
 690 359 l 1,3,-1
 432 359 l 1,4,-1
 432 0 l 1,5,-1
 137 0 l 1,6,-1
 137 1409 l 1,7,-1
 432 1409 l 1,8,-1
 432 1233 l 1,9,-1
 743 1233 l 2,10,11
 995 1233 995 1233 1132 1124.5 c 128,-1,12
 1269 1016 1269 1016 1269 813 c 0,13,14
 1269 665 1269 665 1185 557.5 c 128,-1,15
 1101 450 1101 450 958 416 c 1,0,-1
972 801 m 256,16,17
 972 902 972 902 907 953 c 128,-1,18
 842 1004 842 1004 712 1004 c 2,19,-1
 432 1004 l 1,20,-1
 432 588 l 1,21,-1
 720 588 l 2,22,23
 844 588 844 588 908 644 c 128,-1,24
 972 700 972 700 972 801 c 256,16,17
EndSplineSet
EndChar

StartChar: uni01A7
Encoding: 423 423 359
Width: 1366
Flags: W
LayerCount: 2
Fore
SplineSet
80 406 m 0,0,1
 80 529 80 529 126.5 604.5 c 128,-1,2
 173 680 173 680 249 725 c 0,3,4
 326 770 326 770 420.5 795 c 128,-1,5
 515 820 515 820 614 842 c 0,6,7
 787 879 787 879 841 903 c 0,8,9
 897 927 897 927 925.5 962.5 c 128,-1,10
 954 998 954 998 954 1053 c 0,11,12
 954 1221 954 1221 686 1221 c 0,13,14
 560 1221 560 1221 492.5 1175 c 128,-1,15
 425 1129 425 1129 403 1038 c 1,16,-1
 117 1077 l 1,17,18
 155 1265 155 1265 288.5 1347.5 c 128,-1,19
 422 1430 422 1430 687 1430 c 0,20,21
 958 1430 958 1430 1099.5 1330 c 128,-1,22
 1241 1230 1241 1230 1241 1036 c 0,23,24
 1241 958 1241 958 1221 900.5 c 128,-1,25
 1201 843 1201 843 1165 801 c 0,26,27
 1129 758 1129 758 1078.5 727.5 c 128,-1,28
 1028 697 1028 697 964 674 c 0,29,30
 932 663 932 663 878.5 648 c 128,-1,31
 825 633 825 633 750 616 c 0,32,33
 714 608 714 608 678.5 599.5 c 128,-1,34
 643 591 643 591 607 583 c 0,35,36
 485 555 485 555 426 508 c 128,-1,37
 367 461 367 461 367 389 c 0,38,39
 367 201 367 201 676 201 c 0,40,41
 776 201 776 201 846 223 c 128,-1,42
 916 245 916 245 959.5 292 c 128,-1,43
 1003 339 1003 339 1022 414 c 1,44,-1
 1307 367 l 1,45,46
 1264 174 1264 174 1106 77 c 128,-1,47
 948 -20 948 -20 676 -20 c 0,48,49
 381 -20 381 -20 230.5 89 c 128,-1,50
 80 198 80 198 80 406 c 0,0,1
EndSplineSet
EndChar

StartChar: uni01A8
Encoding: 424 424 360
Width: 1139
Flags: W
LayerCount: 2
Fore
SplineSet
84 316 m 0,0,1
 84 416 84 416 128.5 481.5 c 128,-1,2
 173 547 173 547 258 589 c 0,3,4
 301 610 301 610 386 634 c 128,-1,5
 471 658 471 658 599 684 c 0,6,7
 690 702 690 702 728 730 c 128,-1,8
 766 758 766 758 766 805 c 0,9,10
 766 865 766 865 716 890.5 c 128,-1,11
 666 916 666 916 566 916 c 0,12,13
 464 916 464 916 417 883 c 128,-1,14
 370 850 370 850 358 785 c 1,15,-1
 109 811 l 1,16,17
 138 952 138 952 257.5 1027.5 c 128,-1,18
 377 1103 377 1103 572 1103 c 0,19,20
 789 1103 789 1103 906.5 1017.5 c 128,-1,21
 1024 932 1024 932 1024 775 c 0,22,23
 1024 679 1024 679 979 614 c 128,-1,24
 934 549 934 549 847 509 c 0,25,26
 818 496 818 496 773.5 482 c 128,-1,27
 729 468 729 468 669.5 453.5 c 128,-1,28
 610 439 610 439 534 424 c 0,29,30
 429 403 429 403 385.5 372.5 c 128,-1,31
 342 342 342 342 342 290 c 0,32,33
 342 225 342 225 396.5 195.5 c 128,-1,34
 451 166 451 166 568 166 c 0,35,36
 695 166 695 166 747 197.5 c 128,-1,37
 799 229 799 229 820 307 c 1,38,-1
 1067 270 l 1,39,40
 1029 122 1029 122 909 51 c 128,-1,41
 789 -20 789 -20 564 -20 c 0,42,43
 340 -20 340 -20 212 68.5 c 128,-1,44
 84 157 84 157 84 316 c 0,0,1
EndSplineSet
EndChar

StartChar: uni01AA
Encoding: 426 426 362
Width: 737
Flags: W
LayerCount: 2
Fore
SplineSet
24 1286 m 0,0,1
 24 1380 24 1380 87 1435 c 128,-1,2
 150 1490 150 1490 257 1490 c 0,3,4
 424 1490 424 1490 507.5 1393 c 128,-1,5
 591 1296 591 1296 591 1106 c 2,6,-1
 591 -68 l 2,7,8
 591 -209 591 -209 710 -209 c 0,9,10
 729 -209 729 -209 767.5 -205.5 c 128,-1,11
 806 -202 806 -202 824 -197 c 1,12,-1
 824 -408 l 1,13,14
 754 -425 754 -425 642 -425 c 0,15,16
 478 -425 478 -425 395.5 -342.5 c 128,-1,17
 313 -260 313 -260 313 -96 c 2,18,-1
 313 1105 l 1,19,20
 291 1094 291 1094 267 1088.5 c 128,-1,21
 243 1083 243 1083 217 1083 c 0,22,23
 128 1083 128 1083 76 1139 c 128,-1,24
 24 1195 24 1195 24 1286 c 0,0,1
144 1286 m 256,25,26
 144 1246 144 1246 169.5 1222.5 c 128,-1,27
 195 1199 195 1199 231 1199 c 256,28,29
 267 1199 267 1199 292 1222.5 c 128,-1,30
 317 1246 317 1246 317 1286 c 256,31,32
 317 1326 317 1326 292 1349.5 c 128,-1,33
 267 1373 267 1373 231 1373 c 256,34,35
 195 1373 195 1373 169.5 1349.5 c 128,-1,36
 144 1326 144 1326 144 1286 c 256,25,26
EndSplineSet
EndChar

StartChar: uni01AB
Encoding: 427 427 363
Width: 682
Flags: W
LayerCount: 2
Fore
SplineSet
657 -122 m 2,0,1
 657 -265 657 -265 581 -345 c 128,-1,2
 505 -425 505 -425 349 -425 c 0,3,4
 276 -425 276 -425 182 -405 c 1,5,-1
 182 -204 l 1,6,7
 254 -219 254 -219 292 -219 c 0,8,9
 410 -219 410 -219 410 -78 c 2,10,-1
 410 -18 l 1,11,12
 291 -15 291 -15 226.5 52.5 c 128,-1,13
 162 120 162 120 162 254 c 2,14,-1
 162 892 l 1,15,-1
 25 892 l 1,16,-1
 25 1082 l 1,17,-1
 176 1082 l 1,18,-1
 264 1336 l 1,19,-1
 440 1336 l 1,20,-1
 440 1082 l 1,21,-1
 645 1082 l 1,22,-1
 645 892 l 1,23,-1
 440 892 l 1,24,-1
 440 330 l 2,25,26
 440 251 440 251 470 213.5 c 128,-1,27
 500 176 500 176 563 176 c 0,28,29
 593 176 593 176 657 190 c 1,30,-1
 657 -122 l 2,0,1
EndSplineSet
EndChar

StartChar: uni01AC
Encoding: 428 428 364
Width: 1251
Flags: W
LayerCount: 2
Fore
SplineSet
773 1181 m 1,0,-1
 773 0 l 1,1,-1
 478 0 l 1,2,-1
 478 1181 l 1,3,-1
 346 1181 l 2,4,5
 279 1181 279 1181 246 1157 c 128,-1,6
 213 1133 213 1133 213 1085 c 0,7,8
 213 1032 213 1032 244 951 c 1,9,-1
 30 934 l 1,10,11
 0 1039 0 1039 0 1135 c 0,12,13
 0 1261 0 1261 83.5 1335 c 128,-1,14
 167 1409 167 1409 315 1409 c 2,15,-1
 1229 1409 l 1,16,-1
 1229 1181 l 1,17,-1
 773 1181 l 1,0,-1
EndSplineSet
EndChar

StartChar: uni01AD
Encoding: 429 429 365
Width: 682
Flags: W
LayerCount: 2
Fore
SplineSet
657 16 m 1,0,1
 555 -18 555 -18 420 -18 c 0,2,3
 296 -18 296 -18 229 49.5 c 128,-1,4
 162 117 162 117 162 254 c 2,5,-1
 162 892 l 1,6,-1
 25 892 l 1,7,-1
 25 1082 l 1,8,-1
 159 1082 l 1,9,-1
 159 1203 l 2,10,11
 159 1341 159 1341 246.5 1417 c 128,-1,12
 334 1493 334 1493 488 1493 c 0,13,14
 582 1493 582 1493 670 1476 c 1,15,-1
 670 1275 l 1,16,17
 652 1280 652 1280 614.5 1283.5 c 128,-1,18
 577 1287 577 1287 556 1287 c 0,19,20
 495 1287 495 1287 467.5 1252 c 128,-1,21
 440 1217 440 1217 440 1146 c 2,22,-1
 440 1082 l 1,23,-1
 645 1082 l 1,24,-1
 645 892 l 1,25,-1
 440 892 l 1,26,-1
 440 330 l 2,27,28
 440 251 440 251 470 213.5 c 128,-1,29
 500 176 500 176 563 176 c 0,30,31
 593 176 593 176 657 190 c 1,32,-1
 657 16 l 1,0,1
EndSplineSet
EndChar

StartChar: uni01AE
Encoding: 430 430 366
Width: 1251
Flags: W
LayerCount: 2
Fore
SplineSet
986 -405 m 1,0,1
 892 -425 892 -425 821 -425 c 0,2,3
 648 -425 648 -425 563 -331 c 128,-1,4
 478 -237 478 -237 478 -36 c 2,5,-1
 478 1181 l 1,6,-1
 23 1181 l 1,7,-1
 23 1409 l 1,8,-1
 1229 1409 l 1,9,-1
 1229 1181 l 1,10,-1
 773 1181 l 1,11,-1
 773 -42 l 2,12,13
 773 -121 773 -121 800 -159.5 c 128,-1,14
 827 -198 827 -198 891 -198 c 0,15,16
 921 -198 921 -198 986 -185 c 1,17,-1
 986 -405 l 1,0,1
EndSplineSet
EndChar

StartChar: Uhorn
Encoding: 431 431 367
Width: 1699
Flags: W
LayerCount: 2
Fore
SplineSet
715 -20 m 0,0,1
 523 -20 523 -20 391 42.5 c 128,-1,2
 259 105 259 105 191 227.5 c 128,-1,3
 123 350 123 350 123 528 c 2,4,-1
 123 1409 l 1,5,-1
 418 1409 l 1,6,-1
 418 551 l 2,7,8
 418 381 418 381 494.5 296 c 128,-1,9
 571 211 571 211 723 211 c 0,10,11
 880 211 880 211 962 301.5 c 128,-1,12
 1044 392 1044 392 1044 561 c 2,13,-1
 1044 1409 l 1,14,-1
 1339 1409 l 1,15,-1
 1339 897 l 1,16,17
 1446 911 1446 911 1503.5 976.5 c 128,-1,18
 1561 1042 1561 1042 1561 1149 c 1,19,-1
 1436 1149 l 1,20,-1
 1436 1409 l 1,21,-1
 1699 1409 l 1,22,-1
 1699 1199 l 2,23,24
 1699 1011 1699 1011 1613 900.5 c 128,-1,25
 1527 790 1527 790 1339 761 c 1,26,-1
 1339 543 l 2,27,28
 1339 364 1339 364 1265.5 238 c 128,-1,29
 1192 112 1192 112 1053 46 c 128,-1,30
 914 -20 914 -20 715 -20 c 0,0,1
EndSplineSet
EndChar

StartChar: uhorn
Encoding: 432 432 368
Width: 1483
Flags: W
LayerCount: 2
Fore
SplineSet
831 215 m 1,0,1
 778 97 778 97 691 38.5 c 128,-1,2
 604 -20 604 -20 483 -20 c 0,3,4
 311 -20 311 -20 219 86 c 128,-1,5
 127 192 127 192 127 395 c 2,6,-1
 127 1082 l 1,7,-1
 408 1082 l 1,8,-1
 408 475 l 2,9,10
 408 333 408 333 456 261.5 c 128,-1,11
 504 190 504 190 600 190 c 0,12,13
 702 190 702 190 764.5 277.5 c 128,-1,14
 827 365 827 365 827 502 c 2,15,-1
 827 1082 l 1,16,-1
 1108 1082 l 1,17,-1
 1108 561 l 1,18,19
 1218 573 1218 573 1281.5 642.5 c 128,-1,20
 1345 712 1345 712 1345 822 c 1,21,-1
 1220 822 l 1,22,-1
 1220 1082 l 1,23,-1
 1483 1082 l 1,24,-1
 1483 872 l 2,25,26
 1483 676 1483 676 1390 567 c 128,-1,27
 1297 458 1297 458 1108 432 c 1,28,-1
 1108 242 l 2,29,30
 1108 155 1108 155 1110.5 99.5 c 128,-1,31
 1113 44 1113 44 1116 0 c 1,32,-1
 848 0 l 1,33,34
 846 17 846 17 843 56.5 c 128,-1,35
 840 96 840 96 838.5 140.5 c 128,-1,36
 837 185 837 185 836 215 c 1,37,-1
 831 215 l 1,0,1
EndSplineSet
EndChar

StartChar: uni01B1
Encoding: 433 433 369
Width: 1642
Flags: W
LayerCount: 2
Fore
SplineSet
821 -22 m 256,0,1
 614 -22 614 -22 459 53.5 c 128,-1,2
 304 129 304 129 218.5 266.5 c 128,-1,3
 133 404 133 404 133 589 c 0,4,5
 133 792 133 792 237.5 940 c 128,-1,6
 342 1088 342 1088 563 1191 c 1,7,8
 499 1186 499 1186 452 1183 c 128,-1,9
 405 1180 405 1180 375 1180 c 2,10,-1
 105 1180 l 1,11,-1
 105 1408 l 1,12,-1
 755 1408 l 1,13,-1
 755 1099 l 1,14,15
 592 1019 592 1019 510 906.5 c 128,-1,16
 428 794 428 794 428 634 c 0,17,18
 428 434 428 434 533 322 c 128,-1,19
 638 210 638 210 822 210 c 256,20,21
 1006 210 1006 210 1111.5 322 c 128,-1,22
 1217 434 1217 434 1217 634 c 0,23,24
 1217 792 1217 792 1136.5 905.5 c 128,-1,25
 1056 1019 1056 1019 893 1099 c 1,26,-1
 893 1408 l 1,27,-1
 1537 1408 l 1,28,-1
 1537 1180 l 1,29,-1
 1269 1180 l 2,30,31
 1240 1180 1240 1180 1193.5 1183 c 128,-1,32
 1147 1186 1147 1186 1083 1191 c 1,33,34
 1300 1088 1300 1088 1404.5 940.5 c 128,-1,35
 1509 793 1509 793 1509 590 c 0,36,37
 1509 407 1509 407 1423.5 269 c 128,-1,38
 1338 131 1338 131 1183 54.5 c 128,-1,39
 1028 -22 1028 -22 821 -22 c 256,0,1
EndSplineSet
EndChar

StartChar: uni01B2
Encoding: 434 434 370
Width: 1479
Flags: W
LayerCount: 2
Fore
SplineSet
683 -20 m 0,0,1
 412 -20 412 -20 267.5 120 c 128,-1,2
 123 260 123 260 123 528 c 2,3,-1
 123 1409 l 1,4,-1
 418 1409 l 1,5,-1
 418 551 l 2,6,7
 418 386 418 386 484.5 298.5 c 128,-1,8
 551 211 551 211 683 211 c 0,9,10
 819 211 819 211 900.5 284 c 128,-1,11
 982 357 982 357 1018 517 c 128,-1,12
 1054 677 1054 677 1054 937 c 0,13,14
 1054 1071 1054 1071 1010.5 1136 c 128,-1,15
 967 1201 967 1201 875 1201 c 0,16,17
 829 1201 829 1201 764 1188 c 1,18,-1
 764 1408 l 1,19,20
 856 1428 856 1428 996 1428 c 0,21,22
 1167 1428 1167 1428 1257.5 1306.5 c 128,-1,23
 1348 1185 1348 1185 1348 952 c 0,24,25
 1348 473 1348 473 1183 228 c 0,26,27
 1015 -20 1015 -20 683 -20 c 0,0,1
EndSplineSet
EndChar

StartChar: uni01B3
Encoding: 435 435 371
Width: 1577
Flags: W
LayerCount: 2
Fore
SplineSet
682 813 m 1,0,-1
 923 1239 l 2,1,2
 979 1339 979 1339 1041.5 1384.5 c 128,-1,3
 1104 1430 1104 1430 1189 1430 c 0,4,5
 1268 1430 1268 1430 1342.5 1398 c 128,-1,6
 1417 1366 1417 1366 1487 1301 c 1,7,-1
 1378 1116 l 1,8,9
 1343 1147 1343 1147 1311 1162.5 c 128,-1,10
 1279 1178 1279 1178 1250 1178 c 0,11,12
 1213 1178 1213 1178 1187.5 1158 c 128,-1,13
 1162 1138 1162 1138 1135 1094 c 2,14,-1
 831 578 l 1,15,-1
 831 0 l 1,16,-1
 537 0 l 1,17,-1
 537 578 l 1,18,-1
 35 1409 l 1,19,-1
 344 1409 l 1,20,-1
 682 813 l 1,0,-1
EndSplineSet
EndChar

StartChar: uni01B4
Encoding: 436 436 372
Width: 1139
Flags: W
LayerCount: 2
Fore
SplineSet
283 -425 m 0,0,1
 180 -425 180 -425 106 -412 c 1,2,-1
 106 -212 l 1,3,4
 162 -220 162 -220 203 -220 c 0,5,6
 291 -220 291 -220 340 -178.5 c 128,-1,7
 389 -137 389 -137 426 -37 c 2,8,-1
 444 11 l 1,9,-1
 16 1082 l 1,10,-1
 313 1082 l 1,11,-1
 483 575 l 2,12,13
 489 558 489 558 503 512.5 c 128,-1,14
 517 467 517 467 533.5 412 c 128,-1,15
 550 357 550 357 564 309.5 c 128,-1,16
 578 262 578 262 584 241 c 1,17,-1
 674 571 l 1,18,-1
 884 1228 l 2,19,20
 928 1368 928 1368 1002.5 1430.5 c 128,-1,21
 1077 1493 1077 1493 1181 1493 c 0,22,23
 1306 1493 1306 1493 1427 1419 c 1,24,-1
 1332 1223 l 1,25,26
 1277 1259 1277 1259 1222 1259 c 0,27,28
 1178 1259 1178 1259 1152.5 1229.5 c 128,-1,29
 1127 1200 1127 1200 1111 1153 c 2,30,-1
 700 -57 l 2,31,32
 653 -195 653 -195 594.5 -275.5 c 128,-1,33
 536 -356 536 -356 459.5 -390.5 c 128,-1,34
 383 -425 383 -425 283 -425 c 0,0,1
EndSplineSet
EndChar

StartChar: uni01B5
Encoding: 437 437 373
Width: 1251
Flags: W
LayerCount: 2
Fore
SplineSet
1192 231 m 1,0,-1
 1192 0 l 1,1,-1
 61 0 l 1,2,-1
 61 209 l 1,3,-1
 398 638 l 1,4,-1
 52 638 l 1,5,-1
 52 835 l 1,6,-1
 553 835 l 1,7,-1
 823 1178 l 1,8,-1
 137 1178 l 1,9,-1
 137 1409 l 1,10,-1
 1151 1409 l 1,11,-1
 1151 1204 l 1,12,-1
 862 835 l 1,13,-1
 1157 835 l 1,14,-1
 1157 638 l 1,15,-1
 707 638 l 1,16,-1
 389 231 l 1,17,-1
 1192 231 l 1,0,-1
EndSplineSet
EndChar

StartChar: uni01B6
Encoding: 438 438 374
Width: 1024
Flags: W
LayerCount: 2
Fore
SplineSet
967 205 m 1,0,-1
 967 0 l 1,1,-1
 68 0 l 1,2,-1
 68 199 l 1,3,-1
 282 456 l 1,4,-1
 64 456 l 1,5,-1
 64 633 l 1,6,-1
 412 633 l 1,7,-1
 608 879 l 1,8,-1
 109 879 l 1,9,-1
 109 1082 l 1,10,-1
 918 1082 l 1,11,-1
 918 881 l 1,12,-1
 715 633 l 1,13,-1
 932 633 l 1,14,-1
 932 456 l 1,15,-1
 580 456 l 1,16,-1
 381 205 l 1,17,-1
 967 205 l 1,0,-1
EndSplineSet
EndChar

StartChar: uni01B7
Encoding: 439 439 375
Width: 1251
Flags: W
LayerCount: 2
Fore
SplineSet
593 -434 m 0,0,1
 378 -434 378 -434 239.5 -343 c 128,-1,2
 101 -252 101 -252 26 -59 c 1,3,-1
 284 42 l 1,4,5
 338 -89 338 -89 409.5 -145.5 c 128,-1,6
 481 -202 481 -202 584 -202 c 0,7,8
 731 -202 731 -202 810.5 -105 c 128,-1,9
 890 -8 890 -8 890 175 c 0,10,11
 890 345 890 345 788.5 434.5 c 128,-1,12
 687 524 687 524 487 524 c 2,13,-1
 359 524 l 1,14,-1
 359 755 l 1,15,-1
 776 1178 l 1,16,-1
 86 1178 l 1,17,-1
 86 1409 l 1,18,-1
 1136 1409 l 1,19,-1
 1136 1204 l 1,20,-1
 662 737 l 1,21,22
 906 725 906 725 1042.5 579.5 c 128,-1,23
 1179 434 1179 434 1179 186 c 0,24,25
 1179 0 1179 0 1108 -142 c 0,26,27
 1036 -283 1036 -283 902 -358.5 c 128,-1,28
 768 -434 768 -434 593 -434 c 0,0,1
EndSplineSet
EndChar

StartChar: uni01B8
Encoding: 440 440 376
Width: 1251
Flags: W
LayerCount: 2
Fore
SplineSet
658 -434 m 0,0,1
 476 -434 476 -434 344.5 -360.5 c 128,-1,2
 213 -287 213 -287 142.5 -152 c 128,-1,3
 72 -17 72 -17 72 169 c 0,4,5
 72 337 72 337 136.5 462 c 128,-1,6
 201 587 201 587 317.5 658.5 c 128,-1,7
 434 730 434 730 589 737 c 1,8,-1
 115 1204 l 1,9,-1
 115 1409 l 1,10,-1
 1165 1409 l 1,11,-1
 1165 1178 l 1,12,-1
 475 1178 l 1,13,-1
 892 755 l 1,14,-1
 892 524 l 1,15,-1
 764 524 l 2,16,17
 563 524 563 524 462 434.5 c 128,-1,18
 361 345 361 345 361 175 c 0,19,20
 361 53 361 53 396.5 -31 c 128,-1,21
 432 -115 432 -115 500.5 -158.5 c 128,-1,22
 569 -202 569 -202 667 -202 c 0,23,24
 770 -202 770 -202 842 -145 c 128,-1,25
 914 -88 914 -88 967 42 c 1,26,-1
 1225 -59 l 1,27,28
 1150 -252 1150 -252 1011.5 -343 c 128,-1,29
 873 -434 873 -434 658 -434 c 0,0,1
EndSplineSet
EndChar

StartChar: uni01B9
Encoding: 441 441 377
Width: 1078
Flags: W
LayerCount: 2
Fore
SplineSet
569 -241 m 0,0,1
 656 -241 656 -241 713.5 -193.5 c 128,-1,2
 771 -146 771 -146 781 -40 c 1,3,-1
 1058 -53 l 1,4,5
 1034 -235 1034 -235 904.5 -334.5 c 128,-1,6
 775 -434 775 -434 567 -434 c 0,7,8
 405 -434 405 -434 286.5 -374.5 c 128,-1,9
 168 -315 168 -315 104 -206 c 128,-1,10
 40 -97 40 -97 40 51 c 0,11,12
 40 251 40 251 151 372 c 128,-1,13
 262 493 262 493 464 513 c 1,14,-1
 100 887 l 1,15,-1
 100 1082 l 1,16,-1
 1002 1082 l 1,17,-1
 1002 879 l 1,18,-1
 437 879 l 1,19,-1
 773 523 l 1,20,-1
 773 334 l 1,21,-1
 671 334 l 2,22,23
 488 334 488 334 407 261.5 c 128,-1,24
 326 189 326 189 326 34 c 0,25,26
 326 -57 326 -57 353 -118.5 c 128,-1,27
 380 -180 380 -180 434 -210.5 c 128,-1,28
 488 -241 488 -241 569 -241 c 0,0,1
EndSplineSet
EndChar

StartChar: uni01BA
Encoding: 442 442 378
Width: 1078
Flags: W
LayerCount: 2
Fore
SplineSet
1039 -99 m 1,0,1
 1005 -255 1005 -255 862.5 -344.5 c 128,-1,2
 720 -434 720 -434 503 -434 c 0,3,4
 439 -434 439 -434 381.5 -424.5 c 128,-1,5
 324 -415 324 -415 273 -396 c 0,6,7
 170 -358 170 -358 112.5 -286.5 c 128,-1,8
 55 -215 55 -215 55 -115 c 0,9,10
 55 -28 55 -28 103 36 c 0,11,12
 135 78 135 78 184 109 c 128,-1,13
 233 140 233 140 312.5 166.5 c 128,-1,14
 392 193 392 193 516 221 c 0,15,16
 627 245 627 245 678 276 c 0,17,18
 729 306 729 306 729 350 c 0,19,20
 729 433 729 433 626 452 c 0,21,22
 576 462 576 462 407 462 c 2,23,-1
 305 462 l 1,24,-1
 305 606 l 1,25,-1
 608 879 l 1,26,-1
 70 879 l 1,27,-1
 70 1082 l 1,28,-1
 972 1082 l 1,29,-1
 972 919 l 1,30,-1
 626 624 l 1,31,32
 834 619 834 619 924.5 552 c 128,-1,33
 1015 485 1015 485 1015 346 c 0,34,35
 1015 265 1015 265 970.5 205.5 c 128,-1,36
 926 146 926 146 838 104 c 0,37,38
 747 61 747 61 543 12 c 0,39,40
 426 -16 426 -16 375 -47 c 0,41,42
 350 -63 350 -63 337 -81 c 128,-1,43
 324 -99 324 -99 324 -119 c 0,44,45
 324 -175 324 -175 379 -208 c 128,-1,46
 434 -241 434 -241 534 -241 c 0,47,48
 632 -241 632 -241 693 -195 c 128,-1,49
 754 -149 754 -149 765 -61 c 1,50,-1
 1039 -99 l 1,0,1
EndSplineSet
EndChar

StartChar: uni01BB
Encoding: 443 443 379
Width: 1139
Flags: W
LayerCount: 2
Fore
SplineSet
1057 231 m 1,0,-1
 1057 0 l 1,1,-1
 71 0 l 1,2,-1
 71 195 l 1,3,4
 107 274 107 274 163 351 c 0,5,6
 188 386 188 386 218.5 421.5 c 128,-1,7
 249 457 249 457 286.5 495 c 128,-1,8
 324 533 324 533 369 573 c 1,9,-1
 86 573 l 1,10,-1
 86 764 l 1,11,-1
 591 764 l 1,12,13
 750 905 750 905 750 1022 c 0,14,15
 750 1114 750 1114 703.5 1160 c 128,-1,16
 657 1206 657 1206 565 1206 c 0,17,18
 475 1206 475 1206 427.5 1157.5 c 128,-1,19
 380 1109 380 1109 366 1012 c 1,20,-1
 83 1028 l 1,21,22
 107 1224 107 1224 229.5 1327 c 128,-1,23
 352 1430 352 1430 563 1430 c 0,24,25
 791 1430 791 1430 913 1326 c 128,-1,26
 1035 1222 1035 1222 1035 1034 c 0,27,28
 1035 895 1035 895 933 764 c 1,29,-1
 1043 764 l 1,30,-1
 1043 573 l 1,31,-1
 741 573 l 1,32,33
 673 517 673 517 635.5 486.5 c 128,-1,34
 598 456 598 456 579.5 440.5 c 128,-1,35
 561 425 561 425 548 412 c 0,36,37
 493 362 493 362 456.5 317 c 128,-1,38
 420 272 420 272 403 231 c 1,39,-1
 1057 231 l 1,0,-1
EndSplineSet
EndChar

StartChar: uni01BC
Encoding: 444 444 380
Width: 1139
Flags: W
LayerCount: 2
Fore
SplineSet
70 1409 m 1,0,-1
 1051 1409 l 1,1,-1
 1051 1181 l 1,2,-1
 520 1181 l 1,3,-1
 520 943 l 1,4,-1
 556 943 l 2,5,6
 813 943 813 943 945 827 c 128,-1,7
 1077 711 1077 711 1077 486 c 0,8,9
 1077 237 1077 237 945 108.5 c 128,-1,10
 813 -20 813 -20 555 -20 c 0,11,12
 347 -20 347 -20 216.5 81 c 128,-1,13
 86 182 86 182 61 364 c 1,14,-1
 343 377 l 1,15,16
 363 290 363 290 418 246.5 c 128,-1,17
 473 203 473 203 563 203 c 0,18,19
 683 203 683 203 736 266.5 c 128,-1,20
 789 330 789 330 789 462 c 0,21,22
 789 587 789 587 729 647.5 c 128,-1,23
 669 708 669 708 529 708 c 2,24,-1
 244 708 l 1,25,-1
 244 1181 l 1,26,-1
 70 1181 l 1,27,-1
 70 1409 l 1,0,-1
EndSplineSet
EndChar

StartChar: uni01BD
Encoding: 445 445 381
Width: 1018
Flags: W
LayerCount: 2
Fore
SplineSet
30 1082 m 1,0,-1
 882 1082 l 1,1,-1
 882 879 l 1,2,-1
 435 879 l 1,3,-1
 435 695 l 1,4,-1
 485 695 l 2,5,6
 715 695 715 695 830 605 c 128,-1,7
 945 515 945 515 945 335 c 0,8,9
 945 166 945 166 825.5 73 c 128,-1,10
 706 -20 706 -20 485 -20 c 0,11,12
 299 -20 299 -20 177 66.5 c 128,-1,13
 55 153 55 153 17 314 c 1,14,-1
 288 332 l 1,15,16
 306 249 306 249 357 210.5 c 128,-1,17
 408 172 408 172 496 172 c 0,18,19
 675 172 675 172 675 335 c 0,20,21
 675 429 675 429 621.5 469.5 c 128,-1,22
 568 510 568 510 447 510 c 2,23,-1
 189 510 l 1,24,-1
 189 879 l 1,25,-1
 30 879 l 1,26,-1
 30 1082 l 1,0,-1
EndSplineSet
EndChar

StartChar: uni01BE
Encoding: 446 446 382
Width: 1186
Flags: W
LayerCount: 2
Fore
SplineSet
168 892 m 1,0,-1
 31 892 l 1,1,-1
 31 1082 l 1,2,-1
 182 1082 l 1,3,-1
 270 1336 l 1,4,-1
 446 1336 l 1,5,-1
 446 1082 l 1,6,-1
 651 1082 l 1,7,-1
 651 892 l 1,8,-1
 446 892 l 1,9,-1
 446 815 l 2,10,11
 446 743 446 743 526 709 c 0,12,13
 546 700 546 700 591.5 687.5 c 128,-1,14
 637 675 637 675 707 659 c 0,15,16
 765 646 765 646 812 632.5 c 128,-1,17
 859 619 859 619 895 605.5 c 128,-1,18
 931 592 931 592 955 578 c 0,19,20
 1029 537 1029 537 1069 474 c 128,-1,21
 1109 411 1109 411 1109 316 c 0,22,23
 1109 159 1109 159 980.5 69.5 c 128,-1,24
 852 -20 852 -20 625 -20 c 0,25,26
 402 -20 402 -20 283.5 50.5 c 128,-1,27
 165 121 165 121 126 270 c 1,28,-1
 373 307 l 1,29,30
 394 230 394 230 445.5 198 c 128,-1,31
 497 166 497 166 625 166 c 0,32,33
 742 166 742 166 796.5 195.5 c 128,-1,34
 851 225 851 225 851 290 c 0,35,36
 851 342 851 342 807.5 372.5 c 128,-1,37
 764 403 764 403 660 424 c 0,38,39
 542 447 542 447 462.5 469.5 c 128,-1,40
 383 492 383 492 341 514 c 0,41,42
 257 558 257 558 212.5 629.5 c 128,-1,43
 168 701 168 701 168 808 c 2,44,-1
 168 892 l 1,0,-1
EndSplineSet
EndChar

StartChar: uni01BF
Encoding: 447 447 383
Width: 1251
Flags: W
LayerCount: 2
Fore
SplineSet
1164 668 m 0,0,1
 1164 547 1164 547 1139.5 443 c 128,-1,2
 1115 339 1115 339 1062 249 c 0,3,4
 979 105 979 105 821.5 -8.5 c 128,-1,5
 664 -122 664 -122 424 -219 c 1,6,-1
 424 -425 l 1,7,-1
 143 -425 l 1,8,-1
 143 1082 l 1,9,-1
 408 1082 l 1,10,11
 412 1056 412 1056 415 1015 c 128,-1,12
 418 974 418 974 420 918 c 1,13,-1
 424 918 l 1,14,15
 475 1009 475 1009 559.5 1057 c 128,-1,16
 644 1105 644 1105 757 1105 c 0,17,18
 951 1105 951 1105 1057.5 983 c 128,-1,19
 1164 861 1164 861 1164 668 c 0,0,1
878 639 m 0,20,21
 878 910 878 910 660 910 c 0,22,23
 548 910 548 910 486 822.5 c 128,-1,24
 424 735 424 735 424 595 c 2,25,-1
 424 0 l 1,26,27
 616 98 616 98 723 220 c 0,28,29
 878 396 878 396 878 639 c 0,20,21
EndSplineSet
EndChar

StartChar: uni01C0
Encoding: 448 448 384
Width: 573
Flags: W
LayerCount: 2
Fore
SplineSet
427 1484 m 1,0,-1
 427 0 l 1,1,-1
 146 0 l 1,2,-1
 146 1484 l 1,3,-1
 427 1484 l 1,0,-1
EndSplineSet
EndChar

StartChar: uni01C1
Encoding: 449 449 385
Width: 1019
Flags: W
LayerCount: 2
Fore
SplineSet
414 1484 m 1,0,-1
 414 0 l 1,1,-1
 174 0 l 1,2,-1
 174 1484 l 1,3,-1
 414 1484 l 1,0,-1
845 1484 m 1,4,-1
 845 0 l 1,5,-1
 605 0 l 1,6,-1
 605 1484 l 1,7,-1
 845 1484 l 1,4,-1
EndSplineSet
EndChar

StartChar: uni01C2
Encoding: 450 450 386
Width: 1197
Flags: W
LayerCount: 2
Fore
SplineSet
721 399 m 1,0,-1
 721 0 l 1,1,-1
 476 0 l 1,2,-1
 476 399 l 1,3,-1
 82 399 l 1,4,-1
 82 608 l 1,5,-1
 476 608 l 1,6,-1
 476 874 l 1,7,-1
 82 874 l 1,8,-1
 82 1083 l 1,9,-1
 476 1083 l 1,10,-1
 476 1484 l 1,11,-1
 721 1484 l 1,12,-1
 721 1083 l 1,13,-1
 1115 1083 l 1,14,-1
 1115 874 l 1,15,-1
 721 874 l 1,16,-1
 721 608 l 1,17,-1
 1115 608 l 1,18,-1
 1115 399 l 1,19,-1
 721 399 l 1,0,-1
EndSplineSet
EndChar

StartChar: uni01DD
Encoding: 477 477 413
Width: 1139
Flags: W
LayerCount: 2
Fore
SplineSet
774 595 m 1,0,1
 774 753 774 753 715.5 833.5 c 128,-1,2
 657 914 657 914 549 914 c 0,3,4
 475 914 475 914 428 882 c 128,-1,5
 381 850 381 850 361 785 c 1,6,-1
 96 808 l 1,7,8
 212 1102 212 1102 563 1102 c 0,9,10
 807 1102 807 1102 938 957.5 c 128,-1,11
 1069 813 1069 813 1069 536 c 0,12,13
 1069 268 1069 268 936 124 c 128,-1,14
 803 -20 803 -20 559 -20 c 0,15,16
 326 -20 326 -20 203 134.5 c 128,-1,17
 80 289 80 289 80 587 c 2,18,-1
 80 595 l 1,19,-1
 774 595 l 1,0,1
352 419 m 1,20,21
 360 288 360 288 415 222.5 c 128,-1,22
 470 157 470 157 563 157 c 0,23,24
 662 157 662 157 715.5 226 c 128,-1,25
 769 295 769 295 772 419 c 1,26,-1
 352 419 l 1,20,21
EndSplineSet
EndChar

StartChar: uni01E4
Encoding: 484 484 420
Width: 1593
Flags: W
LayerCount: 2
Fore
SplineSet
1466 225 m 1,0,1
 1354 110 1354 110 1174.5 45 c 128,-1,2
 995 -20 995 -20 798 -20 c 0,3,4
 569 -20 569 -20 409.5 65.5 c 128,-1,5
 250 151 250 151 167 314.5 c 128,-1,6
 84 478 84 478 84 711 c 0,7,8
 84 1059 84 1059 270 1244.5 c 128,-1,9
 456 1430 456 1430 805 1430 c 0,10,11
 1053 1430 1053 1430 1211 1338.5 c 128,-1,12
 1369 1247 1369 1247 1436 1063 c 1,13,-1
 1164 981 l 1,14,15
 1120 1088 1120 1088 1026 1143 c 128,-1,16
 932 1198 932 1198 805 1198 c 0,17,18
 597 1198 597 1198 489 1072 c 128,-1,19
 381 946 381 946 381 711 c 0,20,21
 381 472 381 472 492.5 341.5 c 128,-1,22
 604 211 604 211 806 211 c 0,23,24
 933 211 933 211 1039.5 243 c 128,-1,25
 1146 275 1146 275 1206 330 c 1,26,-1
 1206 331 l 1,27,-1
 856 331 l 1,28,-1
 856 479 l 1,29,-1
 1196 479 l 1,30,-1
 1196 607 l 1,31,-1
 852 607 l 1,32,-1
 852 825 l 1,33,-1
 1466 825 l 1,34,-1
 1466 479 l 1,35,-1
 1582 479 l 1,36,-1
 1582 331 l 1,37,-1
 1466 331 l 1,38,-1
 1466 225 l 1,0,1
EndSplineSet
EndChar

StartChar: uni01E5
Encoding: 485 485 421
Width: 1251
Flags: W
LayerCount: 2
Fore
SplineSet
596 -434 m 0,0,1
 416 -434 416 -434 299.5 -370.5 c 128,-1,2
 183 -307 183 -307 141 -186 c 1,3,-1
 424 -149 l 1,4,5
 472 -249 472 -249 604 -249 c 0,6,7
 774 -249 774 -249 816 -93 c 1,8,-1
 427 -93 l 1,9,-1
 427 0 l 1,10,-1
 830 0 l 1,11,-1
 831 201 l 1,12,-1
 829 201 l 1,13,14
 767 120 767 120 687 86 c 128,-1,15
 607 52 607 52 498 52 c 0,16,17
 296 52 296 52 190 189.5 c 128,-1,18
 84 327 84 327 84 575 c 0,19,20
 84 831 84 831 192.5 967 c 128,-1,21
 301 1103 301 1103 502 1103 c 0,22,23
 620 1103 620 1103 701.5 1054.5 c 128,-1,24
 783 1006 783 1006 829 908 c 1,25,-1
 834 908 l 1,26,27
 834 932 834 932 836 968 c 128,-1,28
 838 1004 838 1004 841.5 1037 c 128,-1,29
 845 1070 845 1070 848 1082 c 1,30,-1
 1114 1082 l 1,31,32
 1108 974 1108 974 1108 832 c 2,33,-1
 1108 0 l 1,34,-1
 1207 0 l 1,35,-1
 1207 -93 l 1,36,-1
 1096 -93 l 1,37,38
 1062 -265 1062 -265 933.5 -349.5 c 128,-1,39
 805 -434 805 -434 596 -434 c 0,0,1
831 581 m 0,40,41
 831 737 831 737 771.5 823.5 c 128,-1,42
 712 910 712 910 602 910 c 0,43,44
 490 910 490 910 433.5 826 c 128,-1,45
 377 742 377 742 377 575 c 0,46,47
 377 411 377 411 432.5 329 c 128,-1,48
 488 247 488 247 600 247 c 0,49,50
 711 247 711 247 771 332.5 c 128,-1,51
 831 418 831 418 831 581 c 0,40,41
EndSplineSet
EndChar

StartChar: uni01F6
Encoding: 502 502 438
Width: 2115
Flags: W
LayerCount: 2
Fore
SplineSet
1341 448 m 2,0,1
 1341 316 1341 316 1388.5 253.5 c 128,-1,2
 1436 191 1436 191 1531 191 c 256,3,4
 1626 191 1626 191 1674 255.5 c 128,-1,5
 1722 320 1722 320 1722 448 c 2,6,-1
 1722 1082 l 1,7,-1
 2002 1082 l 1,8,-1
 2002 456 l 2,9,10
 2002 218 2002 218 1884.5 99 c 128,-1,11
 1767 -20 1767 -20 1531 -20 c 0,12,13
 1285 -20 1285 -20 1165.5 94 c 128,-1,14
 1046 208 1046 208 1046 456 c 2,15,-1
 1046 604 l 1,16,-1
 432 604 l 1,17,-1
 432 0 l 1,18,-1
 137 0 l 1,19,-1
 137 1409 l 1,20,-1
 432 1409 l 1,21,-1
 432 848 l 1,22,-1
 1046 848 l 1,23,-1
 1046 1409 l 1,24,-1
 1341 1409 l 1,25,-1
 1341 448 l 2,0,1
EndSplineSet
EndChar

StartChar: uni01F7
Encoding: 503 503 439
Width: 1362
Flags: W
LayerCount: 2
Fore
SplineSet
1251 895 m 0,0,1
 1251 587 1251 587 1114 354 c 0,2,3
 1049 244 1049 244 952 147 c 128,-1,4
 855 50 855 50 724.5 -34.5 c 128,-1,5
 594 -119 594 -119 428 -193 c 1,6,-1
 428 -424 l 1,7,-1
 137 -424 l 1,8,-1
 137 1409 l 1,9,-1
 409 1409 l 1,10,-1
 409 1243 l 1,11,12
 484 1345 484 1345 571.5 1387.5 c 128,-1,13
 659 1430 659 1430 785 1430 c 0,14,15
 923 1430 923 1430 1028 1360 c 128,-1,16
 1133 1290 1133 1290 1192 1169.5 c 128,-1,17
 1251 1049 1251 1049 1251 895 c 0,0,1
950 863 m 0,18,19
 950 1032 950 1032 894 1115 c 128,-1,20
 838 1198 838 1198 706 1198 c 0,21,22
 621 1198 621 1198 558.5 1161.5 c 128,-1,23
 496 1125 496 1125 462 1061 c 128,-1,24
 428 997 428 997 428 912 c 2,25,-1
 428 60 l 1,26,27
 603 149 603 149 718 264 c 0,28,29
 798 344 798 344 849 436.5 c 128,-1,30
 900 529 900 529 925 635.5 c 128,-1,31
 950 742 950 742 950 863 c 0,18,19
EndSplineSet
EndChar

StartChar: Aringacute
Encoding: 506 506 442
Width: 1479
Flags: W
LayerCount: 2
Fore
SplineSet
756 1832 m 1,0,-1
 586 1831 l 1,1,-1
 586 1862 l 1,2,-1
 838 2116 l 1,3,-1
 1096 2116 l 1,4,-1
 1096 2073 l 1,5,-1
 756 1832 l 1,0,-1
993 1537 m 0,6,7
 993 1488 993 1488 976 1444.5 c 128,-1,8
 959 1401 959 1401 928 1367 c 1,9,-1
 1425 0 l 1,10,-1
 1133 0 l 1,11,-1
 1008 360 l 1,12,-1
 471 360 l 1,13,-1
 346 0 l 1,14,-1
 51 0 l 1,15,-1
 550 1367 l 1,16,17
 519 1401 519 1401 502 1444.5 c 128,-1,18
 485 1488 485 1488 485 1537 c 0,19,20
 485 1607 485 1607 519.5 1664.5 c 128,-1,21
 554 1722 554 1722 611.5 1756.5 c 128,-1,22
 669 1791 669 1791 739 1791 c 256,23,24
 809 1791 809 1791 866.5 1756.5 c 128,-1,25
 924 1722 924 1722 958.5 1664.5 c 128,-1,26
 993 1607 993 1607 993 1537 c 0,6,7
866 1537 m 0,27,28
 866 1588 866 1588 829.5 1625 c 128,-1,29
 793 1662 793 1662 739 1662 c 0,30,31
 688 1662 688 1662 651 1626 c 128,-1,32
 614 1590 614 1590 614 1537 c 0,33,34
 614 1481 614 1481 651 1445 c 128,-1,35
 688 1409 688 1409 739 1409 c 0,36,37
 792 1409 792 1409 829 1446 c 128,-1,38
 866 1483 866 1483 866 1537 c 0,27,28
739 1192 m 1,39,40
 729 1152 729 1152 711 1096 c 128,-1,41
 693 1040 693 1040 685 1017 c 2,42,-1
 537 582 l 1,43,-1
 942 582 l 1,44,-1
 790 1026 l 2,45,46
 776 1067 776 1067 763.5 1107.5 c 128,-1,47
 751 1148 751 1148 739 1192 c 1,39,40
EndSplineSet
EndChar

StartChar: uni021C
Encoding: 540 540 476
Width: 1182
Flags: W
LayerCount: 2
Fore
SplineSet
110 -427 m 1,0,-1
 110 -189 l 1,1,2
 479 -110 479 -110 647.5 12.5 c 128,-1,3
 816 135 816 135 816 311 c 0,4,5
 816 390 816 390 791.5 456.5 c 128,-1,6
 767 523 767 523 727 558 c 1,7,8
 670 523 670 523 564 483.5 c 128,-1,9
 458 444 458 444 343 410 c 1,10,-1
 343 652 l 1,11,12
 587 721 587 721 695 802.5 c 128,-1,13
 803 884 803 884 803 994 c 0,14,15
 803 1091 803 1091 740.5 1144.5 c 128,-1,16
 678 1198 678 1198 563 1198 c 0,17,18
 472 1198 472 1198 389.5 1159.5 c 128,-1,19
 307 1121 307 1121 240 1030 c 1,20,-1
 40 1170 l 1,21,22
 139 1301 139 1301 268 1365.5 c 128,-1,23
 397 1430 397 1430 570 1430 c 0,24,25
 736 1430 736 1430 855.5 1379.5 c 128,-1,26
 975 1329 975 1329 1039.5 1237 c 128,-1,27
 1104 1145 1104 1145 1104 1019 c 0,28,29
 1104 933 1104 933 1066.5 858.5 c 128,-1,30
 1029 784 1029 784 938 715 c 1,31,32
 1021 634 1021 634 1062.5 531.5 c 128,-1,33
 1104 429 1104 429 1104 308 c 0,34,35
 1104 170 1104 170 1045.5 55.5 c 128,-1,36
 987 -59 987 -59 863 -151 c 0,37,38
 782 -211 782 -211 672 -261.5 c 128,-1,39
 562 -312 562 -312 422 -353.5 c 128,-1,40
 282 -395 282 -395 110 -427 c 1,0,-1
EndSplineSet
EndChar

StartChar: uni021D
Encoding: 541 541 477
Width: 1065
Flags: W
LayerCount: 2
Fore
SplineSet
306 485 m 1,0,1
 473 524 473 524 543 557 c 0,2,3
 614 590 614 590 655.5 636 c 128,-1,4
 697 682 697 682 697 750 c 0,5,6
 697 826 697 826 648.5 872 c 128,-1,7
 600 918 600 918 513 918 c 0,8,9
 429 918 429 918 372 872.5 c 128,-1,10
 315 827 315 827 293 747 c 1,11,-1
 64 801 l 1,12,13
 89 942 89 942 213 1022 c 128,-1,14
 337 1102 337 1102 525 1102 c 0,15,16
 736 1102 736 1102 852.5 1011 c 128,-1,17
 969 920 969 920 969 748 c 0,18,19
 969 669 969 669 924 600 c 128,-1,20
 879 531 879 531 808 492 c 1,21,22
 893 440 893 440 941 352.5 c 128,-1,23
 989 265 989 265 989 155 c 0,24,25
 989 -9 989 -9 899 -128 c 0,26,27
 808 -246 808 -246 622 -322 c 128,-1,28
 436 -398 436 -398 111 -431 c 1,29,-1
 111 -214 l 1,30,31
 236 -197 236 -197 327.5 -176.5 c 128,-1,32
 419 -156 419 -156 477 -133 c 0,33,34
 593 -87 593 -87 650 -14 c 128,-1,35
 707 59 707 59 707 163 c 0,36,37
 707 232 707 232 679.5 282 c 128,-1,38
 652 332 652 332 605 369 c 1,39,40
 553 346 553 346 477.5 321 c 128,-1,41
 402 296 402 296 306 274 c 1,42,-1
 306 485 l 1,0,1
EndSplineSet
EndChar

StartChar: uni0220
Encoding: 544 544 480
Width: 1439
Flags: W
LayerCount: 2
Fore
SplineSet
1299 926 m 2,0,-1
 1299 -425 l 1,1,-1
 1008 -425 l 1,2,-1
 1008 827 l 2,3,4
 1008 971 1008 971 981 1047 c 0,5,6
 953 1122 953 1122 893.5 1160.5 c 128,-1,7
 834 1199 834 1199 737 1199 c 0,8,9
 651 1199 651 1199 574.5 1166.5 c 128,-1,10
 498 1134 498 1134 431 1069 c 1,11,-1
 431 0 l 1,12,-1
 140 0 l 1,13,-1
 140 1409 l 1,14,-1
 412 1409 l 1,15,-1
 412 1279 l 1,16,17
 487 1349 487 1349 590 1389.5 c 128,-1,18
 693 1430 693 1430 805 1430 c 0,19,20
 1052 1430 1052 1430 1175.5 1304 c 128,-1,21
 1299 1178 1299 1178 1299 926 c 2,0,-1
EndSplineSet
EndChar

StartChar: uni0221
Encoding: 545 545 481
Width: 1715
Flags: W
LayerCount: 2
Fore
SplineSet
1108 111 m 1,0,1
 1224 192 1224 192 1367 192 c 0,2,3
 1535 192 1535 192 1629 108.5 c 128,-1,4
 1723 25 1723 25 1723 -114 c 0,5,6
 1723 -257 1723 -257 1619.5 -341 c 128,-1,7
 1516 -425 1516 -425 1345 -425 c 0,8,9
 1243 -425 1243 -425 1151 -393 c 128,-1,10
 1059 -361 1059 -361 962 -285 c 1,11,-1
 850 -419 l 1,12,-1
 682 -268 l 1,13,14
 704 -236 704 -236 748 -186 c 128,-1,15
 792 -136 792 -136 857 -68 c 1,16,17
 843 -31 843 -31 836 19 c 128,-1,18
 829 69 829 69 829 133 c 2,19,-1
 829 176 l 1,20,-1
 825 176 l 1,21,22
 779 78 779 78 693 29 c 128,-1,23
 607 -20 607 -20 479 -20 c 0,24,25
 290 -20 290 -20 187 127.5 c 128,-1,26
 84 275 84 275 84 540 c 0,27,28
 84 809 84 809 192.5 955.5 c 128,-1,29
 301 1102 301 1102 500 1102 c 0,30,31
 615 1102 615 1102 698.5 1054 c 128,-1,32
 782 1006 782 1006 827 911 c 1,33,-1
 829 911 l 1,34,-1
 827 1089 l 1,35,-1
 827 1484 l 1,36,-1
 1108 1484 l 1,37,-1
 1108 111 l 1,0,1
377 540 m 0,38,39
 377 356 377 356 432.5 264 c 128,-1,40
 488 172 488 172 598 172 c 0,41,42
 709 172 709 172 770 269.5 c 128,-1,43
 831 367 831 367 831 547 c 0,44,45
 831 722 831 722 772.5 816.5 c 128,-1,46
 714 911 714 911 600 911 c 0,47,48
 487 911 487 911 432 819.5 c 128,-1,49
 377 728 377 728 377 540 c 0,38,39
1487 -120 m 0,50,51
 1487 -69 1487 -69 1449.5 -40.5 c 128,-1,52
 1412 -12 1412 -12 1350 -12 c 0,53,54
 1291 -12 1291 -12 1231.5 -37.5 c 128,-1,55
 1172 -63 1172 -63 1136 -107 c 1,56,57
 1153 -158 1153 -158 1214.5 -193.5 c 128,-1,58
 1276 -229 1276 -229 1349 -229 c 0,59,60
 1412 -229 1412 -229 1449.5 -200.5 c 128,-1,61
 1487 -172 1487 -172 1487 -120 c 0,50,51
EndSplineSet
EndChar

StartChar: uni0222
Encoding: 546 546 482
Width: 1292
Flags: W
LayerCount: 2
Fore
SplineSet
706 1429 m 1,0,1
 926 1429 926 1429 1044.5 1332 c 128,-1,2
 1163 1235 1163 1235 1163 1055 c 0,3,4
 1163 939 1163 939 1104 861 c 128,-1,5
 1045 783 1045 783 927 743 c 1,6,-1
 927 739 l 1,7,8
 1064 710 1064 710 1131 623 c 128,-1,9
 1198 536 1198 536 1198 397 c 0,10,11
 1198 198 1198 198 1055 89 c 128,-1,12
 912 -20 912 -20 648 -20 c 0,13,14
 383 -20 383 -20 240 90 c 128,-1,15
 97 200 97 200 97 395 c 0,16,17
 97 531 97 531 166 620 c 128,-1,18
 235 709 235 709 364 737 c 1,19,-1
 364 741 l 1,20,21
 244 777 244 777 187 853.5 c 128,-1,22
 130 930 130 930 130 1032 c 0,23,24
 130 1184 130 1184 248.5 1270.5 c 128,-1,25
 367 1357 367 1357 580 1357 c 1,26,-1
 580 1158 l 1,27,28
 417 1158 417 1158 417 1012 c 0,29,30
 417 925 417 925 474 881.5 c 128,-1,31
 531 838 531 838 646 838 c 0,32,33
 759 838 759 838 816.5 884.5 c 128,-1,34
 874 931 874 931 874 1040 c 0,35,36
 874 1143 874 1143 832.5 1187 c 128,-1,37
 791 1231 791 1231 706 1231 c 1,38,-1
 706 1429 l 1,0,1
907 420 m 0,39,40
 907 530 907 530 840.5 585.5 c 128,-1,41
 774 641 774 641 641 641 c 0,42,43
 517 641 517 641 451.5 584 c 128,-1,44
 386 527 386 527 386 416 c 0,45,46
 386 293 386 293 451 235.5 c 128,-1,47
 516 178 516 178 651 178 c 0,48,49
 783 178 783 178 845 235 c 128,-1,50
 907 292 907 292 907 420 c 0,39,40
EndSplineSet
EndChar

StartChar: uni0223
Encoding: 547 547 483
Width: 1292
Flags: W
LayerCount: 2
Fore
SplineSet
641 -20 m 0,0,1
 381 -20 381 -20 232.5 95 c 128,-1,2
 84 210 84 210 84 412 c 0,3,4
 84 553 84 553 153.5 647 c 128,-1,5
 223 741 223 741 355 769 c 1,6,-1
 355 773 l 1,7,8
 240 820 240 820 179.5 905 c 128,-1,9
 119 990 119 990 119 1103 c 0,10,11
 119 1232 119 1232 193.5 1328.5 c 128,-1,12
 268 1425 268 1425 417 1489 c 1,13,-1
 523 1337 l 1,14,15
 455 1281 455 1281 430 1231 c 128,-1,16
 405 1181 405 1181 405 1108 c 0,17,18
 405 981 405 981 467.5 924.5 c 128,-1,19
 530 868 530 868 646 868 c 0,20,21
 758 868 758 868 817.5 924.5 c 128,-1,22
 877 981 877 981 877 1108 c 0,23,24
 877 1180 877 1180 852 1231 c 128,-1,25
 827 1282 827 1282 759 1337 c 1,26,-1
 865 1489 l 1,27,28
 1014 1425 1014 1425 1088.5 1328.5 c 128,-1,29
 1163 1232 1163 1232 1163 1103 c 0,30,31
 1163 990 1163 990 1103 905 c 128,-1,32
 1043 820 1043 820 927 773 c 1,33,-1
 927 769 l 1,34,35
 1059 741 1059 741 1128.5 647 c 128,-1,36
 1198 553 1198 553 1198 412 c 0,37,38
 1198 210 1198 210 1049 95 c 128,-1,39
 900 -20 900 -20 641 -20 c 0,0,1
641 178 m 256,40,41
 907 178 907 178 907 435 c 0,42,43
 907 552 907 552 839 611.5 c 128,-1,44
 771 671 771 671 641 671 c 0,45,46
 512 671 512 671 443.5 612 c 128,-1,47
 375 553 375 553 375 435 c 0,48,49
 375 178 375 178 641 178 c 256,40,41
EndSplineSet
EndChar

StartChar: uni0224
Encoding: 548 548 484
Width: 1251
Flags: W
LayerCount: 2
Fore
SplineSet
1213 -45 m 0,0,1
 1213 -151 1213 -151 1171 -277 c 1,2,-1
 944 -244 l 1,3,4
 975 -163 975 -163 975 -110 c 0,5,6
 975 -55 975 -55 942 -27.5 c 128,-1,7
 909 0 909 0 842 0 c 2,8,-1
 61 0 l 1,9,-1
 61 209 l 1,10,-1
 823 1178 l 1,11,-1
 137 1178 l 1,12,-1
 137 1409 l 1,13,-1
 1151 1409 l 1,14,-1
 1151 1204 l 1,15,-1
 389 231 l 1,16,-1
 879 231 l 2,17,18
 1033 231 1033 231 1123 159 c 128,-1,19
 1213 87 1213 87 1213 -45 c 0,0,1
EndSplineSet
EndChar

StartChar: uni0225
Encoding: 549 549 485
Width: 1024
Flags: W
LayerCount: 2
Fore
SplineSet
68 0 m 1,0,-1
 68 199 l 1,1,-1
 608 879 l 1,2,-1
 109 879 l 1,3,-1
 109 1082 l 1,4,-1
 918 1082 l 1,5,-1
 918 881 l 1,6,-1
 381 204 l 1,7,-1
 659 204 l 2,8,9
 826 204 826 204 909.5 142 c 128,-1,10
 993 80 993 80 993 -45 c 0,11,12
 993 -149 993 -149 958 -277 c 1,13,-1
 737 -244 l 1,14,15
 768 -163 768 -163 768 -110 c 0,16,17
 768 0 768 0 635 0 c 2,18,-1
 68 0 l 1,0,-1
EndSplineSet
EndChar

StartChar: uni0234
Encoding: 564 564 500
Width: 1022
Flags: W
LayerCount: 2
Fore
SplineSet
424 1484 m 1,0,-1
 424 111 l 1,1,2
 540 192 540 192 683 192 c 0,3,4
 851 192 851 192 945 108.5 c 128,-1,5
 1039 25 1039 25 1039 -114 c 0,6,7
 1039 -257 1039 -257 935.5 -341 c 128,-1,8
 832 -425 832 -425 661 -425 c 0,9,10
 559 -425 559 -425 467 -393 c 128,-1,11
 375 -361 375 -361 278 -285 c 1,12,13
 250 -319 250 -319 222 -352 c 128,-1,14
 194 -385 194 -385 166 -419 c 1,15,-1
 -2 -268 l 1,16,17
 23 -233 23 -233 66 -182.5 c 128,-1,18
 109 -132 109 -132 171 -68 c 1,19,20
 143 4 143 4 143 133 c 2,21,-1
 143 1484 l 1,22,-1
 424 1484 l 1,0,-1
803 -120 m 0,23,24
 803 -69 803 -69 765.5 -40.5 c 128,-1,25
 728 -12 728 -12 666 -12 c 0,26,27
 607 -12 607 -12 547.5 -37.5 c 128,-1,28
 488 -63 488 -63 452 -107 c 1,29,30
 469 -158 469 -158 530.5 -193.5 c 128,-1,31
 592 -229 592 -229 665 -229 c 0,32,33
 728 -229 728 -229 765.5 -200.5 c 128,-1,34
 803 -172 803 -172 803 -120 c 0,23,24
EndSplineSet
EndChar

StartChar: uni0235
Encoding: 565 565 501
Width: 1707
Flags: W
LayerCount: 2
Fore
SplineSet
844 607 m 2,0,1
 844 750 844 750 796 821 c 128,-1,2
 748 892 748 892 651 892 c 0,3,4
 549 892 549 892 486.5 804.5 c 128,-1,5
 424 717 424 717 424 580 c 2,6,-1
 424 0 l 1,7,-1
 143 0 l 1,8,-1
 143 840 l 2,9,10
 143 909 143 909 141 969.5 c 128,-1,11
 139 1030 139 1030 135 1082 c 1,12,-1
 403 1082 l 1,13,14
 405 1070 405 1070 408 1025.5 c 128,-1,15
 411 981 411 981 413.5 934.5 c 128,-1,16
 416 888 416 888 416 867 c 1,17,-1
 420 867 l 1,18,19
 477 991 477 991 563 1047 c 128,-1,20
 649 1103 649 1103 768 1103 c 0,21,22
 940 1103 940 1103 1032 997 c 128,-1,23
 1124 891 1124 891 1124 687 c 2,24,-1
 1124 115 l 1,25,26
 1182 157 1182 157 1238 174.5 c 128,-1,27
 1294 192 1294 192 1363 192 c 0,28,29
 1531 192 1531 192 1625 108.5 c 128,-1,30
 1719 25 1719 25 1719 -114 c 0,31,32
 1719 -257 1719 -257 1615.5 -341 c 128,-1,33
 1512 -425 1512 -425 1341 -425 c 0,34,35
 1234 -425 1234 -425 1142.5 -394 c 128,-1,36
 1051 -363 1051 -363 978 -285 c 1,37,-1
 866 -419 l 1,38,-1
 698 -268 l 1,39,40
 723 -233 723 -233 766 -182.5 c 128,-1,41
 809 -132 809 -132 871 -68 c 1,42,43
 844 3 844 3 844 133 c 2,44,-1
 844 607 l 2,0,1
1483 -120 m 0,45,46
 1483 -69 1483 -69 1445.5 -40.5 c 128,-1,47
 1408 -12 1408 -12 1346 -12 c 0,48,49
 1288 -12 1288 -12 1235 -40.5 c 128,-1,50
 1182 -69 1182 -69 1152 -107 c 1,51,52
 1170 -162 1170 -162 1223.5 -195.5 c 128,-1,53
 1277 -229 1277 -229 1345 -229 c 0,54,55
 1408 -229 1408 -229 1445.5 -200.5 c 128,-1,56
 1483 -172 1483 -172 1483 -120 c 0,45,46
EndSplineSet
EndChar

StartChar: uni0236
Encoding: 566 566 502
Width: 1036
Flags: W
LayerCount: 2
Fore
SplineSet
25 892 m 1,0,-1
 25 1082 l 1,1,-1
 176 1082 l 1,2,-1
 264 1336 l 1,3,-1
 440 1336 l 1,4,-1
 440 1082 l 1,5,-1
 645 1082 l 1,6,-1
 645 892 l 1,7,-1
 440 892 l 1,8,-1
 440 541 l 1,9,10
 501 585 501 585 561 603.5 c 128,-1,11
 621 622 621 622 704 622 c 0,12,13
 858 622 858 622 947 537.5 c 128,-1,14
 1036 453 1036 453 1036 316 c 0,15,16
 1036 175 1036 175 937 90 c 128,-1,17
 838 5 838 5 683 5 c 0,18,19
 561 5 561 5 466.5 35 c 128,-1,20
 372 65 372 65 295 145 c 1,21,-1
 183 11 l 1,22,-1
 15 162 l 1,23,24
 40 197 40 197 81 243.5 c 128,-1,25
 122 290 122 290 184 354 c 1,26,27
 171 389 171 389 166.5 434 c 128,-1,28
 162 479 162 479 162 527 c 2,29,-1
 162 892 l 1,30,-1
 25 892 l 1,0,-1
800 310 m 0,31,32
 800 361 800 361 765 389.5 c 128,-1,33
 730 418 730 418 680 418 c 0,34,35
 613 418 613 418 560.5 394 c 128,-1,36
 508 370 508 370 469 323 c 1,37,38
 487 268 487 268 542 234.5 c 128,-1,39
 597 201 597 201 677 201 c 0,40,41
 730 201 730 201 765 230.5 c 128,-1,42
 800 260 800 260 800 310 c 0,31,32
EndSplineSet
EndChar

StartChar: uni0237
Encoding: 567 567 503
Width: 569
Flags: W
LayerCount: 2
Fore
SplineSet
138 -425 m 0,0,1
 39 -425 39 -425 -32 -416 c 1,2,-1
 -32 -218 l 1,3,4
 -19 -220 -19 -220 -6.5 -221 c 128,-1,5
 6 -222 6 -222 19 -222 c 0,6,7
 91 -222 91 -222 117.5 -190.5 c 128,-1,8
 144 -159 144 -159 144 -60 c 2,9,-1
 144 1082 l 1,10,-1
 425 1082 l 1,11,-1
 425 -128 l 2,12,13
 425 -271 425 -271 352.5 -348 c 128,-1,14
 280 -425 280 -425 138 -425 c 0,0,1
EndSplineSet
EndChar

StartChar: uni0238
Encoding: 568 568 504
Width: 1953
Flags: W
LayerCount: 2
Fore
SplineSet
1860 545 m 0,0,1
 1860 277 1860 277 1752.5 128.5 c 128,-1,2
 1645 -20 1645 -20 1445 -20 c 0,3,4
 1327 -20 1327 -20 1239.5 31.5 c 128,-1,5
 1152 83 1152 83 1110 174 c 1,6,-1
 1107 174 l 1,7,-1
 1107 0 l 1,8,-1
 846 0 l 1,9,-1
 846 176 l 1,10,-1
 842 176 l 1,11,12
 799 82 799 82 710.5 31 c 128,-1,13
 622 -20 622 -20 488 -20 c 0,14,15
 299 -20 299 -20 196 127.5 c 128,-1,16
 93 275 93 275 93 540 c 0,17,18
 93 809 93 809 201.5 955.5 c 128,-1,19
 310 1102 310 1102 509 1102 c 0,20,21
 624 1102 624 1102 707.5 1054 c 128,-1,22
 791 1006 791 1006 836 911 c 1,23,-1
 838 911 l 1,24,25
 837 955 837 955 836.5 1000 c 128,-1,26
 836 1045 836 1045 836 1089 c 2,27,-1
 836 1484 l 1,28,-1
 1117 1484 l 1,29,-1
 1117 1090 l 2,30,31
 1117 1039 1117 1039 1115.5 992 c 128,-1,32
 1114 945 1114 945 1113 894 c 1,33,-1
 1117 894 l 1,34,35
 1164 998 1164 998 1251 1050 c 128,-1,36
 1338 1102 1338 1102 1463 1102 c 0,37,38
 1655 1102 1655 1102 1757.5 956.5 c 128,-1,39
 1860 811 1860 811 1860 545 c 0,0,1
386 540 m 0,40,41
 386 356 386 356 441.5 264 c 128,-1,42
 497 172 497 172 607 172 c 0,43,44
 718 172 718 172 779 269.5 c 128,-1,45
 840 367 840 367 840 547 c 0,46,47
 840 722 840 722 781.5 816.5 c 128,-1,48
 723 911 723 911 609 911 c 0,49,50
 496 911 496 911 441 819.5 c 128,-1,51
 386 728 386 728 386 540 c 0,40,41
1567 545 m 0,52,53
 1567 729 1567 729 1513 818 c 128,-1,54
 1459 907 1459 907 1346 907 c 0,55,56
 1232 907 1232 907 1172.5 811.5 c 128,-1,57
 1113 716 1113 716 1113 536 c 0,58,59
 1113 364 1113 364 1171.5 268 c 128,-1,60
 1230 172 1230 172 1344 172 c 0,61,62
 1456 172 1456 172 1511.5 265 c 128,-1,63
 1567 358 1567 358 1567 545 c 0,52,53
EndSplineSet
EndChar

StartChar: uni0239
Encoding: 569 569 505
Width: 1953
Flags: W
LayerCount: 2
Fore
SplineSet
1852 546 m 0,0,1
 1852 275 1852 275 1743.5 127.5 c 128,-1,2
 1635 -20 1635 -20 1437 -20 c 0,3,4
 1321 -20 1321 -20 1235.5 31 c 128,-1,5
 1150 82 1150 82 1109 172 c 1,6,-1
 1104 172 l 1,7,8
 1106 154 1106 154 1107.5 110 c 128,-1,9
 1109 66 1109 66 1109 -10 c 2,10,-1
 1109 -425 l 1,11,-1
 829 -425 l 1,12,-1
 829 -16 l 2,13,14
 829 31 829 31 831 90.5 c 128,-1,15
 833 150 833 150 835 180 c 1,16,-1
 831 180 l 1,17,18
 785 80 785 80 697 30 c 128,-1,19
 609 -20 609 -20 479 -20 c 0,20,21
 290 -20 290 -20 187 127.5 c 128,-1,22
 84 275 84 275 84 540 c 0,23,24
 84 808 84 808 193.5 955.5 c 128,-1,25
 303 1103 303 1103 502 1103 c 0,26,27
 624 1103 624 1103 710 1051.5 c 128,-1,28
 796 1000 796 1000 839 908 c 1,29,-1
 840 1082 l 1,30,-1
 1098 1082 l 1,31,-1
 1099 906 l 1,32,33
 1144 1002 1144 1002 1234 1053.5 c 128,-1,34
 1324 1105 1324 1105 1455 1105 c 0,35,36
 1643 1105 1643 1105 1747.5 960 c 128,-1,37
 1852 815 1852 815 1852 546 c 0,0,1
831 546 m 0,38,39
 831 719 831 719 773 814.5 c 128,-1,40
 715 910 715 910 602 910 c 0,41,42
 490 910 490 910 433.5 817.5 c 128,-1,43
 377 725 377 725 377 540 c 0,44,45
 377 356 377 356 432.5 264 c 128,-1,46
 488 172 488 172 600 172 c 0,47,48
 710 172 710 172 770.5 269.5 c 128,-1,49
 831 367 831 367 831 546 c 0,38,39
1559 546 m 0,50,51
 1559 728 1559 728 1503.5 819 c 128,-1,52
 1448 910 1448 910 1336 910 c 256,53,54
 1224 910 1224 910 1164.5 812 c 128,-1,55
 1105 714 1105 714 1105 538 c 0,56,57
 1105 363 1105 363 1164 267.5 c 128,-1,58
 1223 172 1223 172 1334 172 c 0,59,60
 1447 172 1447 172 1503 265.5 c 128,-1,61
 1559 359 1559 359 1559 546 c 0,50,51
EndSplineSet
EndChar

StartChar: uni023A
Encoding: 570 570 506
Width: 1479
Flags: W
LayerCount: 2
Fore
SplineSet
688 360 m 1,0,-1
 465 -54 l 1,1,-1
 302 -54 l 1,2,-1
 331 0 l 1,3,-1
 51 0 l 1,4,-1
 565 1409 l 1,5,-1
 913 1409 l 1,6,-1
 984 1213 l 1,7,-1
 1130 1484 l 1,8,-1
 1293 1484 l 1,9,-1
 1050 1032 l 1,10,-1
 1425 0 l 1,11,-1
 1133 0 l 1,12,-1
 1008 360 l 1,13,-1
 688 360 l 1,0,-1
537 582 m 1,14,-1
 644 582 l 1,15,-1
 826 920 l 1,16,-1
 739 1192 l 1,17,-1
 537 582 l 1,14,-1
807 582 m 1,18,-1
 942 582 l 1,19,-1
 889 734 l 1,20,-1
 807 582 l 1,18,-1
471 360 m 1,21,-1
 373 78 l 1,22,-1
 524 360 l 1,23,-1
 471 360 l 1,21,-1
EndSplineSet
EndChar

StartChar: uni023B
Encoding: 571 571 507
Width: 1479
Flags: W
LayerCount: 2
Fore
SplineSet
344 107 m 1,0,1
 211 204 211 204 147.5 360 c 128,-1,2
 84 516 84 516 84 711 c 0,3,4
 84 943 84 943 164 1103 c 128,-1,5
 244 1263 244 1263 400 1346.5 c 128,-1,6
 556 1430 556 1430 782 1430 c 0,7,8
 950 1430 950 1430 1073 1385 c 1,9,-1
 1130 1484 l 1,10,-1
 1293 1484 l 1,11,-1
 1200 1321 l 1,12,13
 1344 1222 1344 1222 1405 1038 c 1,14,-1
 1145 967 l 1,15,16
 1121 1042 1121 1042 1069 1092 c 1,17,-1
 592 256 l 1,18,19
 675 212 675 212 795 212 c 0,20,21
 922 212 922 212 1015 275 c 128,-1,22
 1108 338 1108 338 1166 480 c 1,23,-1
 1423 383 l 1,24,25
 1342 181 1342 181 1181 80.5 c 128,-1,26
 1020 -20 1020 -20 795 -20 c 0,27,28
 606 -20 606 -20 468 38 c 1,29,-1
 415 -54 l 1,30,-1
 252 -54 l 1,31,-1
 344 107 l 1,0,1
788 1198 m 0,32,33
 588 1198 588 1198 484.5 1074 c 128,-1,34
 381 950 381 950 381 711 c 0,35,36
 381 475 381 475 481 347 c 1,37,-1
 950 1169 l 1,38,39
 877 1198 877 1198 788 1198 c 0,32,33
EndSplineSet
EndChar

StartChar: uni023C
Encoding: 572 572 508
Width: 1139
Flags: W
LayerCount: 2
Fore
SplineSet
258 85 m 1,0,1
 80 227 80 227 80 535 c 0,2,3
 80 803 80 803 215 952.5 c 128,-1,4
 350 1102 350 1102 598 1102 c 0,5,6
 675 1102 675 1102 745 1085 c 1,7,-1
 940 1484 l 1,8,-1
 1103 1484 l 1,9,-1
 881 1029 l 1,10,11
 1035 932 1035 932 1071 741 c 1,12,-1
 788 727 l 1,13,14
 784 760 784 760 768 798 c 1,15,-1
 481 208 l 1,16,17
 528 172 528 172 596 172 c 0,18,19
 676 172 676 172 730 222.5 c 128,-1,20
 784 273 784 273 797 373 c 1,21,-1
 1079 360 l 1,22,23
 1064 249 1064 249 1000 163.5 c 128,-1,24
 936 78 936 78 832.5 29 c 128,-1,25
 729 -20 729 -20 594 -20 c 0,26,27
 479 -20 479 -20 386 13 c 1,28,-1
 172 -425 l 1,29,-1
 9 -425 l 1,30,-1
 258 85 l 1,0,1
375 546 m 0,31,32
 375 440 375 440 393 363 c 1,33,-1
 655 900 l 1,34,35
 627 909 627 909 592 909 c 0,36,37
 483 909 483 909 429 818.5 c 128,-1,38
 375 728 375 728 375 546 c 0,31,32
EndSplineSet
EndChar

StartChar: uni023D
Encoding: 573 573 509
Width: 1251
Flags: W
LayerCount: 2
Fore
SplineSet
10 856 m 1,0,-1
 137 856 l 1,1,-1
 137 1409 l 1,2,-1
 432 1409 l 1,3,-1
 432 856 l 1,4,-1
 798 856 l 1,5,-1
 798 653 l 1,6,-1
 432 653 l 1,7,-1
 432 228 l 1,8,-1
 1188 228 l 1,9,-1
 1188 0 l 1,10,-1
 137 0 l 1,11,-1
 137 653 l 1,12,-1
 10 653 l 1,13,-1
 10 856 l 1,0,-1
EndSplineSet
EndChar

StartChar: uni023E
Encoding: 574 574 510
Width: 1251
Flags: W
LayerCount: 2
Fore
SplineSet
478 358 m 1,0,-1
 205 -54 l 1,1,-1
 42 -54 l 1,2,-1
 478 604 l 1,3,-1
 478 1181 l 1,4,-1
 23 1181 l 1,5,-1
 23 1409 l 1,6,-1
 1010 1409 l 1,7,-1
 1060 1484 l 1,8,-1
 1223 1484 l 1,9,-1
 1173 1409 l 1,10,-1
 1229 1409 l 1,11,-1
 1229 1181 l 1,12,-1
 1022 1181 l 1,13,-1
 773 804 l 1,14,-1
 773 0 l 1,15,-1
 478 0 l 1,16,-1
 478 358 l 1,0,-1
773 1181 m 1,17,-1
 773 1050 l 1,18,-1
 859 1181 l 1,19,-1
 773 1181 l 1,17,-1
EndSplineSet
EndChar

StartChar: uni023F
Encoding: 575 575 511
Width: 1139
Flags: W
LayerCount: 2
Fore
SplineSet
79 170 m 1,0,-1
 242 321 l 1,1,2
 297 251 297 251 381 208.5 c 128,-1,3
 465 166 465 166 571 166 c 0,4,5
 688 166 688 166 742.5 195.5 c 128,-1,6
 797 225 797 225 797 290 c 0,7,8
 797 342 797 342 753.5 372.5 c 128,-1,9
 710 403 710 403 606 424 c 0,10,11
 530 439 530 439 469.5 453.5 c 128,-1,12
 409 468 409 468 364.5 482.5 c 128,-1,13
 320 497 320 497 291 510 c 0,14,15
 204 551 204 551 159.5 615 c 128,-1,16
 115 679 115 679 115 775 c 0,17,18
 115 930 115 930 234.5 1016.5 c 128,-1,19
 354 1103 354 1103 573 1103 c 0,20,21
 766 1103 766 1103 883.5 1028 c 128,-1,22
 1001 953 1001 953 1030 811 c 1,23,-1
 781 785 l 1,24,25
 769 851 769 851 722 883.5 c 128,-1,26
 675 916 675 916 573 916 c 0,27,28
 473 916 473 916 423 890.5 c 128,-1,29
 373 865 373 865 373 805 c 0,30,31
 373 757 373 757 411.5 729.5 c 128,-1,32
 450 702 450 702 540 684 c 0,33,34
 605 671 605 671 658.5 658 c 128,-1,35
 712 645 712 645 754.5 633 c 128,-1,36
 797 621 797 621 829.5 610 c 128,-1,37
 862 599 862 599 883 588 c 0,38,39
 967 546 967 546 1011 480 c 128,-1,40
 1055 414 1055 414 1055 316 c 0,41,42
 1055 159 1055 159 926.5 69.5 c 128,-1,43
 798 -20 798 -20 571 -20 c 0,44,45
 539 -20 539 -20 532 -19 c 1,46,-1
 588 -84 l 2,47,48
 651 -158 651 -158 695.5 -188.5 c 128,-1,49
 740 -219 740 -219 798 -219 c 0,50,51
 817 -219 817 -219 855.5 -215.5 c 128,-1,52
 894 -212 894 -212 912 -207 c 1,53,-1
 912 -408 l 1,54,55
 869 -416 869 -416 831 -420.5 c 128,-1,56
 793 -425 793 -425 761 -425 c 0,57,58
 679 -425 679 -425 611.5 -394 c 128,-1,59
 544 -363 544 -363 481 -303 c 0,60,61
 450 -274 450 -274 403 -217 c 128,-1,62
 356 -160 356 -160 294 -76 c 0,63,64
 254 -24 254 -24 209.5 27.5 c 128,-1,65
 165 79 165 79 115 129 c 0,66,67
 105 139 105 139 96 149.5 c 128,-1,68
 87 160 87 160 79 170 c 1,0,-1
EndSplineSet
EndChar

StartChar: uni0240
Encoding: 576 576 512
Width: 1024
Flags: W
LayerCount: 2
Fore
SplineSet
68 0 m 1,0,-1
 68 199 l 1,1,-1
 608 879 l 1,2,-1
 109 879 l 1,3,-1
 109 1082 l 1,4,-1
 918 1082 l 1,5,-1
 918 881 l 1,6,-1
 381 205 l 1,7,8
 408 199 408 199 434 188 c 128,-1,9
 460 177 460 177 486 158 c 0,10,11
 512 141 512 141 538.5 116 c 128,-1,12
 565 91 565 91 593.5 58.5 c 128,-1,13
 622 26 622 26 653 -16 c 0,14,15
 704 -82 704 -82 745 -123 c 128,-1,16
 786 -164 786 -164 823.5 -182.5 c 128,-1,17
 861 -201 861 -201 899 -201 c 0,18,19
 919 -201 919 -201 943.5 -198 c 128,-1,20
 968 -195 968 -195 997 -189 c 1,21,-1
 997 -408 l 1,22,23
 907 -425 907 -425 846 -425 c 0,24,25
 815 -425 815 -425 787.5 -419.5 c 128,-1,26
 760 -414 760 -414 734 -404 c 0,27,28
 700 -389 700 -389 669.5 -369 c 128,-1,29
 639 -349 639 -349 603 -312 c 128,-1,30
 567 -275 567 -275 515 -212 c 2,31,-1
 452 -134 l 2,32,33
 397 -67 397 -67 339 -33.5 c 128,-1,34
 281 0 281 0 222 0 c 2,35,-1
 68 0 l 1,0,-1
EndSplineSet
EndChar

StartChar: uni0241
Encoding: 577 577 513
Width: 1321
Flags: W
LayerCount: 2
Fore
SplineSet
481 0 m 1,0,-1
 481 559 l 1,1,2
 536 546 536 546 590 546 c 0,3,4
 755 546 755 546 845.5 635.5 c 128,-1,5
 936 725 936 725 936 892 c 0,6,7
 936 1037 936 1037 858.5 1117.5 c 128,-1,8
 781 1198 781 1198 626 1198 c 0,9,10
 501 1198 501 1198 423 1143.5 c 128,-1,11
 345 1089 345 1089 312 967 c 1,12,-1
 52 1038 l 1,13,14
 110 1226 110 1226 258 1328 c 128,-1,15
 406 1430 406 1430 626 1430 c 0,16,17
 912 1430 912 1430 1072.5 1284.5 c 128,-1,18
 1233 1139 1233 1139 1233 887 c 0,19,20
 1233 752 1233 752 1175 636 c 128,-1,21
 1117 520 1117 520 1014.5 439.5 c 128,-1,22
 912 359 912 359 776 332 c 1,23,-1
 776 0 l 1,24,-1
 481 0 l 1,0,-1
EndSplineSet
EndChar

StartChar: uni0242
Encoding: 578 578 514
Width: 991
Flags: W
LayerCount: 2
Fore
SplineSet
352 0 m 1,0,-1
 352 428 l 1,1,2
 511 433 511 433 572.5 493.5 c 128,-1,3
 634 554 634 554 634 681 c 0,4,5
 634 792 634 792 599 850.5 c 128,-1,6
 564 909 564 909 480 909 c 0,7,8
 414 909 414 909 371.5 859.5 c 128,-1,9
 329 810 329 810 320 727 c 1,10,-1
 43 741 l 1,11,12
 69 903 69 903 190 1002.5 c 128,-1,13
 311 1102 311 1102 488 1102 c 0,14,15
 698 1102 698 1102 813.5 989.5 c 128,-1,16
 929 877 929 877 929 674 c 0,17,18
 929 534 929 534 854 436.5 c 128,-1,19
 779 339 779 339 633 294 c 1,20,-1
 633 0 l 1,21,-1
 352 0 l 1,0,-1
EndSplineSet
EndChar

StartChar: uni0243
Encoding: 579 579 515
Width: 1479
Flags: W
LayerCount: 2
Fore
SplineSet
1386 402 m 0,0,1
 1386 210 1386 210 1242 105 c 128,-1,2
 1098 0 1098 0 842 0 c 2,3,-1
 137 0 l 1,4,-1
 137 324 l 1,5,-1
 0 324 l 1,6,-1
 0 520 l 1,7,-1
 137 520 l 1,8,-1
 137 1409 l 1,9,-1
 782 1409 l 2,10,11
 1305 1409 1305 1409 1305 1055 c 0,12,13
 1305 935 1305 935 1238.5 852.5 c 128,-1,14
 1172 770 1172 770 1036 741 c 1,15,16
 1207 721 1207 721 1296.5 633.5 c 128,-1,17
 1386 546 1386 546 1386 402 c 0,0,1
1008 1015 m 0,18,19
 1008 1110 1008 1110 947 1150 c 128,-1,20
 886 1190 886 1190 768 1190 c 2,21,-1
 432 1190 l 1,22,-1
 432 841 l 1,23,-1
 770 841 l 2,24,25
 895 841 895 841 951.5 884.5 c 128,-1,26
 1008 928 1008 928 1008 1015 c 0,18,19
1090 425 m 0,27,28
 1090 628 1090 628 806 628 c 2,29,-1
 432 628 l 1,30,-1
 432 520 l 1,31,-1
 695 520 l 1,32,-1
 695 324 l 1,33,-1
 432 324 l 1,34,-1
 432 214 l 1,35,-1
 817 214 l 2,36,37
 954 214 954 214 1022 266.5 c 128,-1,38
 1090 319 1090 319 1090 425 c 0,27,28
EndSplineSet
EndChar

StartChar: uni0244
Encoding: 580 580 516
Width: 1479
Flags: W
LayerCount: 2
Fore
SplineSet
1344 543 m 2,0,1
 1344 364 1344 364 1272 238 c 128,-1,2
 1200 112 1200 112 1061.5 46 c 128,-1,3
 923 -20 923 -20 723 -20 c 0,4,5
 533 -20 533 -20 401 42 c 128,-1,6
 269 104 269 104 201 226.5 c 128,-1,7
 133 349 133 349 133 528 c 2,8,-1
 133 675 l 1,9,-1
 20 675 l 1,10,-1
 20 878 l 1,11,-1
 133 878 l 1,12,-1
 133 1409 l 1,13,-1
 428 1409 l 1,14,-1
 428 878 l 1,15,-1
 1049 878 l 1,16,-1
 1049 1409 l 1,17,-1
 1344 1409 l 1,18,-1
 1344 878 l 1,19,-1
 1459 878 l 1,20,-1
 1459 675 l 1,21,-1
 1344 675 l 1,22,-1
 1344 543 l 2,0,1
731 211 m 0,23,24
 886 211 886 211 967.5 300.5 c 128,-1,25
 1049 390 1049 390 1049 561 c 2,26,-1
 1049 675 l 1,27,-1
 428 675 l 1,28,-1
 428 551 l 2,29,30
 428 381 428 381 504 296 c 128,-1,31
 580 211 580 211 731 211 c 0,23,24
EndSplineSet
EndChar

StartChar: uni0245
Encoding: 581 581 517
Width: 1366
Flags: W
LayerCount: 2
Fore
SplineSet
1352 0 m 1,0,-1
 1047 0 l 1,1,-1
 758 886 l 2,2,3
 734 960 734 960 717 1025 c 128,-1,4
 700 1090 700 1090 686 1152 c 1,5,6
 678 1113 678 1113 664 1062 c 128,-1,7
 650 1011 650 1011 636 964 c 128,-1,8
 622 917 622 917 613 889 c 2,9,-1
 322 0 l 1,10,-1
 14 0 l 1,11,-1
 535 1410 l 1,12,-1
 834 1410 l 1,13,-1
 1352 0 l 1,0,-1
EndSplineSet
EndChar

StartChar: uni0246
Encoding: 582 582 518
Width: 1366
Flags: W
LayerCount: 2
Fore
SplineSet
262 -110 m 1,0,-1
 315 0 l 1,1,-1
 137 0 l 1,2,-1
 137 1409 l 1,3,-1
 1003 1409 l 1,4,-1
 1050 1504 l 1,5,-1
 1213 1504 l 1,6,-1
 1166 1409 l 1,7,-1
 1245 1409 l 1,8,-1
 1245 1181 l 1,9,-1
 1055 1181 l 1,10,-1
 882 827 l 1,11,-1
 1184 827 l 1,12,-1
 1184 599 l 1,13,-1
 771 599 l 1,14,-1
 590 228 l 1,15,-1
 1286 228 l 1,16,-1
 1286 0 l 1,17,-1
 478 0 l 1,18,-1
 425 -110 l 1,19,-1
 262 -110 l 1,0,-1
432 827 m 1,20,-1
 719 827 l 1,21,-1
 892 1181 l 1,22,-1
 432 1181 l 1,23,-1
 432 827 l 1,20,-1
432 599 m 1,24,-1
 432 238 l 1,25,-1
 433 238 l 1,26,-1
 608 599 l 1,27,-1
 432 599 l 1,24,-1
EndSplineSet
EndChar

StartChar: uni0247
Encoding: 583 583 519
Width: 1139
Flags: W
LayerCount: 2
Fore
SplineSet
586 -20 m 0,0,1
 471 -20 471 -20 385 11 c 1,2,-1
 172 -425 l 1,3,-1
 9 -425 l 1,4,-1
 256 82 l 1,5,6
 80 225 80 225 80 546 c 0,7,8
 80 814 80 814 213 958 c 128,-1,9
 346 1102 346 1102 590 1102 c 0,10,11
 672 1102 672 1102 744 1082 c 1,12,-1
 940 1484 l 1,13,-1
 1103 1484 l 1,14,-1
 875 1017 l 1,15,16
 1069 868 1069 868 1069 495 c 2,17,-1
 1069 487 l 1,18,-1
 617 487 l 1,19,-1
 478 203 l 1,20,21
 528 168 528 168 600 168 c 0,22,23
 674 168 674 168 721.5 200.5 c 128,-1,24
 769 233 769 233 788 297 c 1,25,-1
 1053 274 l 1,26,27
 996 126 996 126 876 53 c 128,-1,28
 756 -20 756 -20 586 -20 c 0,0,1
540 663 m 1,29,-1
 661 912 l 1,30,31
 625 925 625 925 586 925 c 0,32,33
 487 925 487 925 433.5 856 c 128,-1,34
 380 787 380 787 377 663 c 1,35,-1
 540 663 l 1,29,-1
797 663 m 1,36,37
 791 745 791 745 769 798 c 1,38,-1
 703 663 l 1,39,-1
 797 663 l 1,36,37
375 487 m 1,40,41
 375 409 375 409 389 353 c 1,42,-1
 452 487 l 1,43,-1
 375 487 l 1,40,41
EndSplineSet
EndChar

StartChar: uni0248
Encoding: 584 584 520
Width: 1139
Flags: W
LayerCount: 2
Fore
SplineSet
524 -20 m 0,0,1
 305 -20 305 -20 187.5 75 c 128,-1,2
 70 170 70 170 31 382 c 1,3,-1
 324 425 l 1,4,5
 342 316 342 316 391 263.5 c 128,-1,6
 440 211 440 211 526 211 c 0,7,8
 614 211 614 211 659.5 270 c 128,-1,9
 705 329 705 329 705 439 c 2,10,-1
 705 675 l 1,11,-1
 464 675 l 1,12,-1
 464 878 l 1,13,-1
 705 878 l 1,14,-1
 705 1409 l 5,15,-1
 999 1409 l 1,16,-1
 999 878 l 1,17,-1
 1129 878 l 1,18,-1
 1129 675 l 1,19,-1
 999 675 l 1,20,-1
 999 446 l 2,21,22
 999 226 999 226 874 103 c 128,-1,23
 749 -20 749 -20 524 -20 c 0,0,1
EndSplineSet
EndChar

StartChar: uni0249
Encoding: 585 585 521
Width: 569
Flags: W
LayerCount: 2
Fore
SplineSet
425 1484 m 1,0,-1
 425 1277 l 1,1,-1
 144 1277 l 1,2,-1
 144 1484 l 1,3,-1
 425 1484 l 1,0,-1
138 -425 m 0,4,5
 39 -425 39 -425 -32 -416 c 1,6,-1
 -32 -218 l 1,7,8
 -19 -219 -19 -219 -6.5 -220.5 c 128,-1,9
 6 -222 6 -222 19 -222 c 0,10,11
 91 -222 91 -222 117.5 -190.5 c 128,-1,12
 144 -159 144 -159 144 -60 c 2,13,-1
 144 455 l 1,14,-1
 22 455 l 1,15,-1
 22 658 l 1,16,-1
 144 658 l 1,17,-1
 144 1082 l 1,18,-1
 425 1082 l 1,19,-1
 425 658 l 1,20,-1
 547 658 l 1,21,-1
 547 455 l 1,22,-1
 425 455 l 1,23,-1
 425 -128 l 2,24,25
 425 -271 425 -271 352.5 -348 c 128,-1,26
 280 -425 280 -425 138 -425 c 0,4,5
EndSplineSet
EndChar

StartChar: uni024A
Encoding: 586 586 522
Width: 1587
Flags: W
LayerCount: 2
Fore
SplineSet
1406 -32 m 2,0,1
 1406 -111 1406 -111 1432.5 -149.5 c 128,-1,2
 1459 -188 1459 -188 1520 -188 c 0,3,4
 1553 -188 1553 -188 1618 -175 c 1,5,-1
 1618 -405 l 1,6,7
 1580 -414 1580 -414 1522.5 -419.5 c 128,-1,8
 1465 -425 1465 -425 1432 -425 c 0,9,10
 1264 -425 1264 -425 1194.5 -337.5 c 128,-1,11
 1125 -250 1125 -250 1125 -52 c 2,12,-1
 1125 77 l 1,13,14
 968 -20 968 -20 756 -20 c 0,15,16
 550 -20 550 -20 399 69 c 128,-1,17
 248 158 248 158 166 320 c 128,-1,18
 84 482 84 482 84 701 c 0,19,20
 84 929 84 929 169.5 1092 c 128,-1,21
 255 1255 255 1255 414 1342.5 c 128,-1,22
 573 1430 573 1430 795 1430 c 0,23,24
 1015 1430 1015 1430 1178 1331 c 1,25,-1
 1342 1409 l 1,26,-1
 1406 1409 l 1,27,-1
 1406 -32 l 2,0,1
759 200 m 0,28,29
 868 200 868 200 959.5 225.5 c 128,-1,30
 1051 251 1051 251 1111 298 c 1,31,-1
 1111 1109 l 1,32,33
 1050 1155 1050 1155 966 1176.5 c 128,-1,34
 882 1198 882 1198 795 1198 c 0,35,36
 599 1198 599 1198 490 1067 c 128,-1,37
 381 936 381 936 381 701 c 0,38,39
 381 551 381 551 428 438 c 128,-1,40
 475 325 475 325 560 262.5 c 128,-1,41
 645 200 645 200 759 200 c 0,28,29
EndSplineSet
EndChar

StartChar: uni024B
Encoding: 587 587 523
Width: 1251
Flags: W
LayerCount: 2
Fore
SplineSet
1320 -405 m 1,0,1
 1282 -414 1282 -414 1224.5 -419.5 c 128,-1,2
 1167 -425 1167 -425 1134 -425 c 0,3,4
 968 -425 968 -425 898.5 -339 c 128,-1,5
 829 -253 829 -253 829 -52 c 2,6,-1
 829 176 l 1,7,-1
 825 176 l 1,8,9
 779 78 779 78 693 29 c 128,-1,10
 607 -20 607 -20 479 -20 c 0,11,12
 290 -20 290 -20 187 127.5 c 128,-1,13
 84 275 84 275 84 540 c 0,14,15
 84 809 84 809 192.5 955.5 c 128,-1,16
 301 1102 301 1102 500 1102 c 0,17,18
 615 1102 615 1102 698.5 1054 c 128,-1,19
 782 1006 782 1006 827 911 c 1,20,-1
 831 911 l 1,21,22
 831 933 831 933 833.5 968.5 c 128,-1,23
 836 1004 836 1004 840 1037 c 128,-1,24
 844 1070 844 1070 848 1082 c 1,25,-1
 1114 1082 l 1,26,27
 1111 1030 1111 1030 1109.5 967.5 c 128,-1,28
 1108 905 1108 905 1108 832 c 2,29,-1
 1108 -32 l 2,30,31
 1108 -111 1108 -111 1134.5 -149.5 c 128,-1,32
 1161 -188 1161 -188 1222 -188 c 0,33,34
 1255 -188 1255 -188 1320 -175 c 1,35,-1
 1320 -405 l 1,0,1
831 547 m 0,36,37
 831 722 831 722 772.5 816.5 c 128,-1,38
 714 911 714 911 600 911 c 0,39,40
 487 911 487 911 432 819.5 c 128,-1,41
 377 728 377 728 377 540 c 0,42,43
 377 356 377 356 432.5 264 c 128,-1,44
 488 172 488 172 598 172 c 0,45,46
 709 172 709 172 770 269.5 c 128,-1,47
 831 367 831 367 831 547 c 0,36,37
EndSplineSet
EndChar

StartChar: uni024C
Encoding: 588 588 524
Width: 1479
Flags: W
LayerCount: 2
Fore
SplineSet
522 535 m 1,0,-1
 522 0 l 1,1,-1
 227 0 l 1,2,-1
 227 535 l 1,3,-1
 0 535 l 1,4,-1
 0 764 l 1,5,-1
 227 764 l 1,6,-1
 227 1409 l 1,7,-1
 841 1409 l 2,8,9
 1093 1409 1093 1409 1230 1300.5 c 128,-1,10
 1367 1192 1367 1192 1367 989 c 0,11,12
 1367 841 1367 841 1283 733.5 c 128,-1,13
 1199 626 1199 626 1056 592 c 1,14,-1
 1437 0 l 1,15,-1
 1105 0 l 1,16,-1
 778 535 l 1,17,-1
 522 535 l 1,0,-1
1070 977 m 256,18,19
 1070 1078 1070 1078 1005 1129 c 128,-1,20
 940 1180 940 1180 810 1180 c 2,21,-1
 522 1180 l 1,22,-1
 522 764 l 1,23,-1
 818 764 l 2,24,25
 942 764 942 764 1006 820 c 128,-1,26
 1070 876 1070 876 1070 977 c 256,18,19
EndSplineSet
EndChar

StartChar: uni024D
Encoding: 589 589 525
Width: 797
Flags: W
LayerCount: 2
Fore
SplineSet
143 0 m 1,0,-1
 143 365 l 1,1,-1
 27 365 l 1,2,-1
 27 568 l 1,3,-1
 143 568 l 1,4,-1
 143 828 l 2,5,6
 143 903 143 903 141 966.5 c 128,-1,7
 139 1030 139 1030 135 1082 c 1,8,-1
 403 1082 l 1,9,10
 405 1073 405 1073 407 1042 c 128,-1,11
 409 1011 409 1011 411 972.5 c 128,-1,12
 413 934 413 934 414.5 900 c 128,-1,13
 416 866 416 866 416 851 c 1,14,-1
 420 851 l 1,15,16
 460 963 460 963 493 1012 c 0,17,18
 525 1059 525 1059 569 1081 c 128,-1,19
 613 1103 613 1103 679 1103 c 0,20,21
 733 1103 733 1103 766 1088 c 1,22,-1
 766 853 l 1,23,24
 699 868 699 868 646 868 c 0,25,26
 547 868 547 868 489.5 792.5 c 128,-1,27
 432 717 432 717 425 568 c 1,28,-1
 578 568 l 1,29,-1
 578 365 l 1,30,-1
 424 365 l 1,31,-1
 424 0 l 1,32,-1
 143 0 l 1,0,-1
EndSplineSet
EndChar

StartChar: uni024E
Encoding: 590 590 526
Width: 1366
Flags: W
LayerCount: 2
Fore
SplineSet
831 578 m 1,0,-1
 831 0 l 1,1,-1
 537 0 l 1,2,-1
 537 578 l 1,3,-1
 242 1065 l 1,4,-1
 0 1065 l 1,5,-1
 0 1268 l 1,6,-1
 120 1268 l 1,7,-1
 35 1409 l 1,8,-1
 344 1409 l 1,9,-1
 424 1268 l 1,10,-1
 943 1268 l 1,11,-1
 1024 1409 l 1,12,-1
 1333 1409 l 1,13,-1
 1247 1268 l 1,14,-1
 1366 1268 l 1,15,-1
 1366 1065 l 1,16,-1
 1125 1065 l 1,17,-1
 831 578 l 1,0,-1
539 1065 m 1,18,-1
 682 813 l 1,19,-1
 826 1065 l 1,20,-1
 539 1065 l 1,18,-1
EndSplineSet
EndChar

StartChar: uni024F
Encoding: 591 591 527
Width: 1139
Flags: W
LayerCount: 2
Fore
SplineSet
700 -57 m 2,0,1
 649 -193 649 -193 590.5 -274 c 128,-1,2
 532 -355 532 -355 457.5 -390 c 128,-1,3
 383 -425 383 -425 283 -425 c 0,4,5
 180 -425 180 -425 106 -412 c 1,6,-1
 106 -212 l 1,7,8
 162 -220 162 -220 203 -220 c 0,9,10
 291 -220 291 -220 340 -178.5 c 128,-1,11
 389 -137 389 -137 426 -37 c 2,12,-1
 444 11 l 1,13,-1
 218 575 l 1,14,-1
 17 575 l 1,15,-1
 17 778 l 1,16,-1
 137 778 l 1,17,-1
 16 1082 l 1,18,-1
 313 1082 l 1,19,-1
 415 778 l 1,20,-1
 738 778 l 1,21,-1
 834 1082 l 1,22,-1
 1128 1082 l 1,23,-1
 1014 778 l 1,24,-1
 1122 778 l 1,25,-1
 1122 575 l 1,26,-1
 937 575 l 1,27,-1
 700 -57 l 2,0,1
483 575 m 1,28,-1
 584 241 l 1,29,-1
 675 575 l 1,30,-1
 483 575 l 1,28,-1
EndSplineSet
EndChar

